<?xml version="1.0" encoding="utf-8"?><svg viewBox="0 0 253 88" xmlns="http://www.w3.org/2000/svg" xmlns:xlink="http://www.w3.org/1999/xlink"><style>:root>svg{display:none}:root>svg:target{display:block}</style><svg viewBox="0 0 24 24" id="check" xmlns="http://www.w3.org/2000/svg"><path fill-rule="evenodd" d="M22.594 3.5L8.062 18.188l-6.656-6.625L0 13l8.063 8L24 4.937z"/></svg><svg fill="none" viewBox="0 0 32 32" id="cyber" xmlns="http://www.w3.org/2000/svg"><path d="M17.333.719l-1.817.705-12.85 4.998v8.245c0 2.022.74 5.007 2.714 8.057 1.974 3.05 5.225 6.098 10.172 7.864l1.781.639v-8.56h4v1.692a2.666 2.666 0 102.667.003v-3.029A1.333 1.333 0 0022.667 20h-5.334v-2.667h8.357a2.666 2.666 0 10.98-3.641c-.405.234-.741.57-.975.975h-8.362V12h5.334A1.333 1.333 0 0024 10.667V7.638a2.667 2.667 0 001.333-2.305 2.667 2.667 0 00-4.287-2.114 2.667 2.667 0 00.287 4.422v1.692h-4V.72zm-2.666 3.896v5.828c-.024.144-.024.29 0 .435v10.231c-.024.144-.024.291 0 .435v5.547c-3.23-1.574-5.632-3.628-7.047-5.815-1.693-2.617-2.287-5.298-2.287-6.61V8.246l9.334-3.63z" fill="#fff"/></svg><svg fill="none" viewBox="0 0 24 24" id="downloads" xmlns="http://www.w3.org/2000/svg"><path d="M3.667 0a1.333 1.333 0 00-1.151.661l-2.334 4C.063 4.865 0 5.097 0 5.333v16A2.687 2.687 0 002.667 24h18.666A2.687 2.687 0 0024 21.333v-16c0-.236-.063-.468-.182-.672l-2.334-4A1.333 1.333 0 0020.334 0H3.666zm.765 2.667h15.136l1.554 2.666H2.878l1.554-2.666zM2.667 8h18.666v13.333H2.667V8zm8 2.667v4h-4L12 20l5.333-5.333h-4v-4h-2.666z" fill="#fff"/></svg><svg fill="none" viewBox="0 0 32 32" id="electronics" xmlns="http://www.w3.org/2000/svg"><path d="M9.333 1.333V4H12V1.333H9.333zm5.334 0V4h2.666V1.333h-2.666zm5.333 0V4h2.667V1.333H20zM9.333 6.667a2.687 2.687 0 00-2.666 2.666v13.334a2.687 2.687 0 002.666 2.666h13.334a2.687 2.687 0 002.666-2.666V9.333a2.687 2.687 0 00-2.666-2.666H9.333zm-8 2.666V12H4V9.333H1.333zm8 0h13.334v13.334H9.333V9.333zm18.667 0V12h2.667V9.333H28zM12 12v8h8v-8h-8zM1.333 14.667v2.666H4v-2.666H1.333zm13.334 0h2.666v2.666h-2.666v-2.666zm13.333 0v2.666h2.667v-2.666H28zM1.333 20v2.667H4V20H1.333zM28 20v2.667h2.667V20H28zM9.333 28v2.667H12V28H9.333zm5.334 0v2.667h2.666V28h-2.666zM20 28v2.667h2.667V28H20z" fill="#fff"/></svg><svg fill="none" viewBox="0 0 32 32" id="heart" xmlns="http://www.w3.org/2000/svg"><path d="M10 4a7.333 7.333 0 00-7.333 7.333c0 5.562 6.55 10.951 8.375 12.654A296.92 296.92 0 0016 28.467s2.856-2.52 4.958-4.48c1.826-1.703 8.375-7.092 8.375-12.654A7.333 7.333 0 0022 4c-3.86 0-6 2.786-6 2.786S13.86 4 10 4zm0 2.667c2.436 0 3.848 1.7 3.885 1.744L16 11.164l2.115-2.753c.013-.018 1.449-1.744 3.885-1.744a4.672 4.672 0 014.667 4.666c0 3.892-5.026 8.435-6.92 10.146-.236.213-.44.399-.606.555A233.673 233.673 0 0116 24.896c-.955-.856-2.14-1.929-3.14-2.862a60.994 60.994 0 00-.607-.555c-1.15-1.04-3.448-3.13-5.081-5.479h1.273l1.894-1.422 2.666 4L16.445 16h1.25A2.667 2.667 0 0020 17.333a2.666 2.666 0 10-2.307-4h-2.138l-1.893 1.422-2.667-4-3.44 2.578H5.729c-.245-.674-.396-1.346-.396-2A4.672 4.672 0 0110 6.667z" fill="#fff"/></svg><svg fill="none" viewBox="0 0 32 32" id="home" xmlns="http://www.w3.org/2000/svg"><g clip-path="url(#afclip0)"><path d="M16 2.8L1.334 16h4v12h9.661l-2.622-2.667H8V13.586l8-7.198L26.72 16h3.948L16 2.8zm6.667 15.867c-3.64 0-6.933 1.452-9.333 3.812v.029L15.2 24.4a10.61 10.61 0 017.466-3.068 10.61 10.61 0 017.466 3.068L32 22.508l.013-.016a13.303 13.303 0 00-9.346-3.825zm0 5.333a7.866 7.866 0 00-5.6 2.307l1.866 1.894a5.332 5.332 0 013.734-1.534c1.453 0 2.76.587 3.734 1.534l1.865-1.894a7.866 7.866 0 00-5.6-2.307zm0 5.333a2.62 2.62 0 00-1.867.774L22.667 32l1.867-1.893a2.62 2.62 0 00-1.867-.774z" fill="#fff"/></g><defs><clipPath id="afclip0"><path fill="#fff" d="M0 0h32v32H0z"/></clipPath></defs></svg><svg fill="none" viewBox="0 0 40 40" id="ind1" xmlns="http://www.w3.org/2000/svg"><path d="M26.644 5l-3.337 3.337A3.315 3.315 0 0020.462 10h-7.418c-.665-1.968-2.47-3.333-4.71-3.333-2.834 0-5 2.166-5 5 0 2.454 1.628 4.404 3.906 4.882L10.937 25H8.334A3.343 3.343 0 005 28.333V35h28.333v-6.667C33.333 26.5 31.833 25 30 25H15.937l-4.212-9.632a4.827 4.827 0 001.319-2.035h7.418a3.315 3.315 0 002.845 1.664l3.337 3.336H35V15h-6.976l-3.333-3.333 3.333-3.334H35V5h-8.356zm-18.31 5C9.33 10 10 10.67 10 11.667c0 .996-.67 1.666-1.667 1.666-.996 0-1.666-.67-1.666-1.666 0-.997.67-1.667 1.666-1.667zm0 18.333H30v3.334H8.333v-3.334z" fill="#00F"/></svg><svg fill="none" viewBox="0 0 40 40" id="ind2" xmlns="http://www.w3.org/2000/svg"><path d="M12.5 5a9.166 9.166 0 00-9.167 9.167c0 6.951 8.187 13.688 10.47 15.817C16.43 32.434 20 35.583 20 35.583s3.57-3.15 6.198-5.6c2.282-2.128 10.469-8.865 10.469-15.816A9.166 9.166 0 0027.5 5C22.675 5 20 8.483 20 8.483S17.325 5 12.5 5zm0 3.333c3.045 0 4.81 2.126 4.857 2.181L20 13.955l2.643-3.44c.017-.024 1.812-2.182 4.857-2.182a5.84 5.84 0 015.833 5.834c0 4.865-6.282 10.544-8.649 12.682-.295.267-.55.498-.758.693A292.53 292.53 0 0120 31.12a282.468 282.468 0 01-3.926-3.578c-.21-.195-.465-.428-.758-.693-1.438-1.3-4.31-3.912-6.351-6.849h1.592l2.366-1.777 3.333 5 4.3-3.223h1.563A3.334 3.334 0 0025 21.667a3.333 3.333 0 10-2.884-5h-2.673l-2.366 1.777-3.334-5-4.3 3.223H7.161c-.306-.843-.494-1.683-.494-2.5A5.84 5.84 0 0112.5 8.333z" fill="#00F"/></svg><svg fill="none" viewBox="0 0 40 40" id="ind3" xmlns="http://www.w3.org/2000/svg"><path d="M21.667.898l-2.273.883-16.06 6.246v10.306c0 2.528.924 6.26 3.391 10.072 2.467 3.812 6.531 7.622 12.715 9.83l2.227.798v-10.7h5v2.116a3.333 3.333 0 103.333.003v-3.785A1.667 1.667 0 0028.333 25h-6.666v-3.333h10.446a3.334 3.334 0 102.887-5 3.333 3.333 0 00-2.88 1.666H21.666V15h6.666A1.667 1.667 0 0030 13.333V9.548a3.333 3.333 0 001.667-2.881 3.333 3.333 0 00-5.36-2.644 3.334 3.334 0 00.36 5.528v2.116h-5V.898zm-3.334 4.87v7.285c-.03.18-.03.364 0 .544v12.79c-.03.18-.03.363 0 .543v6.934c-4.037-1.968-7.04-4.535-8.808-7.269-2.117-3.27-2.858-6.623-2.858-8.262v-8.027l11.666-4.538z" fill="#00F"/></svg><svg fill="none" viewBox="0 0 40 40" id="ind4" xmlns="http://www.w3.org/2000/svg"><g clip-path="url(#ajclip0)"><path d="M20 3.5L1.667 20h5v15h12.077l-3.278-3.333H10V16.983l10-8.998L33.398 20h4.935L20 3.5zm8.333 19.834c-4.55 0-8.666 1.815-11.666 4.765v.036L19 30.5c2.4-2.366 5.699-3.834 9.332-3.834 3.634 0 6.933 1.468 9.333 3.834L40 28.136l.016-.02a16.63 16.63 0 00-11.683-4.781zm0 6.666a9.832 9.832 0 00-6.998 2.884l2.33 2.367c1.217-1.183 2.852-1.917 4.668-1.917 1.817 0 3.452.733 4.668 1.917l2.331-2.367A9.832 9.832 0 0028.333 30zm0 6.667c-.916 0-1.734.367-2.334.967L28.333 40l2.334-2.366c-.6-.6-1.417-.967-2.334-.967z" fill="#00F"/></g><defs><clipPath id="ajclip0"><path fill="#fff" d="M0 0h40v40H0z"/></clipPath></defs></svg><svg fill="none" viewBox="0 0 40 40" id="ind5" xmlns="http://www.w3.org/2000/svg"><path d="M11.667 1.667V5H15V1.667h-3.333zm6.666 0V5h3.334V1.667h-3.334zm6.667 0V5h3.333V1.667H25zM11.667 8.332c-1.822 0-3.334 1.512-3.334 3.333v16.667c0 1.822 1.512 3.334 3.334 3.334h16.666c1.822 0 3.334-1.512 3.334-3.334V11.667c0-1.822-1.512-3.334-3.334-3.334H11.667zm-10 3.333V15H5v-3.334H1.667zm10 0h16.666v16.667H11.667V11.667zm23.333 0V15h3.333v-3.334H35zM15 15v10h10V15H15zM1.667 18.333v3.334H5v-3.334H1.667zm16.666 0h3.334v3.334h-3.334v-3.334zm16.667 0v3.334h3.333v-3.334H35zM1.667 25v3.333H5V25H1.667zM35 25v3.333h3.333V25H35zM11.667 35v3.333H15V35h-3.333zm6.666 0v3.333h3.334V35h-3.334zM25 35v3.333h3.333V35H25z" fill="#00F"/></svg><svg fill="none" viewBox="0 0 40 40" id="ind6" xmlns="http://www.w3.org/2000/svg"><path d="M23.333 3.333v3.334c5.515 0 10 4.485 10 10h3.334c0-7.352-5.982-13.334-13.334-13.334zm-12.22 3.112L9.645 7.914A15.761 15.761 0 005 19.134a15.76 15.76 0 004.648 11.221A15.753 15.753 0 0020.866 35a15.76 15.76 0 0011.22-4.648l1.505-1.504-1.823-1.1c-3.054-1.845-5.93-4.018-8.633-6.482.3-.107.598-.285.888-.576a3.333 3.333 0 10-4.713-4.713 2.387 2.387 0 00-.566.866 67.528 67.528 0 01-6.514-8.646l-1.117-1.752zM23.333 10v3.334a3.337 3.337 0 013.334 3.333H30A6.673 6.673 0 0023.333 10zm-12.679 1.865c4.912 7.224 10.768 13.099 17.448 17.507a12.446 12.446 0 01-7.236 2.295 12.456 12.456 0 01-8.864-3.669c-4.385-4.387-4.834-11.24-1.348-16.133z" fill="#00F"/></svg><svg fill="none" viewBox="0 0 253 43" id="logo" xmlns="http://www.w3.org/2000/svg"><path d="M67.621 14.184v9.457c0 2.543-1.558 4.757-4.113 4.757-2.707 0-4.125-2.378-4.125-4.746v-9.457H56.57v9.586c0 4.102 2.883 7.23 6.914 7.23 4.172 0 6.926-3.21 6.926-7.23v-9.586l-2.789-.011zm23.248.023v11.895L80.475 14.207h-1.489V31h2.801V19.105L92.182 31h1.488V14.207h-2.8zM102.68 31h2.801V14.195h-2.813L102.68 31zm23.541-16.816l-5.191 13.101-5.18-13.101h-3.035L119.6 31h2.871l6.773-16.816h-3.023zm10.217.011V31h11.472v-2.59h-8.671v-5.297h6.539v-2.59h-6.539V16.81h8.66v-2.602l-11.461-.012zm22.967 2.614h4.875c1.336 0 2.507.949 2.507 2.273 0 1.406-1.265 2.262-2.496 2.262h-4.886v-4.535zm11.039 14.203l-4.313-7.371c2.203-.703 3.387-2.38 3.387-4.547 0-2.918-2.215-4.864-4.922-4.864h-8.016v16.793h2.801v-7.125h3.739l4.16 7.125 3.164-.011zm18.502-16.828v9.457c0 2.543-1.559 4.757-4.113 4.757-2.708 0-4.125-2.378-4.125-4.746v-9.457h-2.813v9.586c0 4.102 2.883 7.23 6.914 7.23 4.172 0 6.926-3.21 6.926-7.23v-9.586l-2.789-.011zm27.432.011l-7.278 8.672-7.289-8.672h-1.5V31h2.695V19.129l6.094 7.16 6.094-7.148v11.87h2.531V14.208l-1.347-.012z" fill="var(--logo-text)"/><path d="M21.443 0a4.266 4.266 0 110 8.532 4.266 4.266 0 110-8.532z" fill="var(--logo-icon)"/><path d="M26.918 16.196a4.404 4.404 0 005.888-.256 4.3 4.3 0 000-6.128c-1.582-1.565-4.077-1.693-5.788-.342-2.153 1.55-3.722 1.707-5.532 1.735-1.426.028-4.32-.412-6.16-1.763-1.71-1.337-4.205-1.209-5.788.355a4.3 4.3 0 000 6.129 4.4 4.4 0 005.584.5l.028-.02c.072-.051.14-.098.205-.153 3.051-2.133 8.583-2.346 11.563-.057zM26.918 33.36a4.404 4.404 0 005.888-.257 4.3 4.3 0 000-6.128c-1.582-1.565-4.077-1.693-5.788-.342-2.153 1.55-3.722 1.707-5.532 1.735-1.426.029-4.32-.412-6.16-1.763-1.71-1.337-4.205-1.209-5.788.355a4.3 4.3 0 000 6.129 4.4 4.4 0 005.546.526l.066-.047c.073-.05.14-.097.205-.152 3.051-2.133 8.583-2.36 11.563-.057z" fill="var(--logo-icon)"/><path d="M35.928 18.116c1.711-1.351 4.206-1.223 5.789.341 1.71 1.692 1.71 4.436-.014 6.185a4.405 4.405 0 01-5.889.256c-2.98-2.303-8.511-2.09-11.548.029a3.069 3.069 0 01-.205.152l-.066.047a4.448 4.448 0 01-1.469.626 4.4 4.4 0 01-3.863-.882c-2.98-2.303-8.512-2.09-11.549.028a3.08 3.08 0 01-.204.153c-.022.015-.044.03-.066.047a4.4 4.4 0 01-5.547-.527 4.3 4.3 0 010-6.128c1.583-1.564 4.078-1.692 5.789-.356 1.84 1.351 4.733 1.792 6.16 1.764 1.81-.029 3.378-.185 5.53-1.735a4.393 4.393 0 011.64-.797 4.41 4.41 0 013.821.768c1.84 1.351 4.734 1.792 6.16 1.764 1.81-.029 3.379-.185 5.531-1.735zM25.72 38.734c0-2.36-1.91-4.266-4.277-4.266a4.275 4.275 0 00-4.277 4.266c0 2.36 1.91 4.266 4.277 4.266a4.266 4.266 0 004.277-4.266z" fill="var(--logo-icon)"/></svg><svg fill="none" viewBox="0 0 178 56" id="logo1" xmlns="http://www.w3.org/2000/svg"><g clip-path="url(#anclip0)" fill="#363636"><path d="M70.837 32.53c0-5.683 4.045-11.036 11.64-11.036 8.01 0 11.642 5.765 11.642 11.035 0 5.683-4.046 11.036-11.641 11.036-7.843 0-11.641-5.765-11.641-11.036zm3.55-.495c0 5.27 3.302 9.06 8.09 9.06 3.964 0 8.257-2.554 8.257-8.072 0-5.27-3.303-9.058-8.091-9.058-3.963-.083-8.256 2.47-8.256 8.07zM95.44 42.247l-.826-4.118c1.651 1.895 4.128 2.965 6.687 2.883 3.798 0 6.192-1.565 6.192-4.283 0-2.635-2.064-4.117-5.201-4.117-.991-.083-2.064.082-2.972.494v-3.13c.743.165 1.486.248 2.229.248 4.211 0 4.954-1.977 4.954-3.377 0-1.976-1.404-3.047-3.963-3.047-2.229 0-4.458.659-6.357 1.812l.412-3.788c3.468-.165 2.808-.495 5.862-.495 1.486 0 7.513 0 7.513 5.106 0 3.377-2.972 4.365-4.128 4.612v.082c2.725-.082 5.036 2.06 5.119 4.777v.412c0 5.188-4.706 7.082-9.494 7.082-2.147.247-4.211-.247-6.027-1.153zm74.221-2.8l-5.366-7.33 4.706-6.34c.826-1.071 1.238-1.73 1.238-2.389-.082-.659-.495-1.235-1.073-1.482h5.862l-7.431 9.553 3.468 4.612c2.807 3.706 4.293 5.517 6.935 7.082l-3.22.165h-.248c-2.229 0-3.385-1.812-4.871-3.87zM58.618 43.071c.99-.66 1.486-1.812 1.403-3.047V24.953a3.485 3.485 0 00-1.403-3.047h11.889c.33 0 .742 0 1.073-.082v3.705c-.826-1.07-1.982-1.235-4.376-1.235-1.403 0-3.22.082-4.21.082v15.647c-.166 1.236.495 2.389 1.568 3.048h-5.944zm100.558 0c.991-.66 1.486-1.812 1.404-3.047V24.87c.165-1.153-.413-2.389-1.404-3.047h5.862c-.991.658-1.486 1.811-1.404 3.047v15.152c-.165 1.153.413 2.389 1.404 3.048h-5.862zm-7.678 0c.826-.247 1.321-1.153 1.073-1.977 0-.165-.082-.247-.165-.33l-2.311-5.682h-8.174l-1.899 4.777c-.413 1.07-.66 2.306.743 3.294h-5.696c1.568-.988 2.146-2.388 2.807-3.87l6.027-15.318c.412-.741.082-1.647-.578-1.977 0 0-.083 0-.083-.082h4.954l7.348 18.117c.412 1.318 1.321 2.471 2.559 3.13l-6.605-.082zm-8.751-10.047h6.605l-3.303-8.4-3.302 8.4zM128.051 43.07c.991-.66 1.569-1.812 1.404-3.047v-7.412h-11.724v7.411c-.165 1.153.413 2.389 1.403 3.048h-5.861c.99-.66 1.568-1.812 1.403-3.047V24.87c.165-1.153-.413-2.389-1.403-3.047h5.861c-.99.658-1.568 1.811-1.403 3.047v5.353h11.724V24.87c.165-1.153-.413-2.389-1.404-3.047h5.862c-.991.658-1.569 1.811-1.404 3.047v15.152c-.165 1.153.413 2.389 1.404 3.048h-5.862zm17.833-26.106v-1.153h-3.963v-4.2h.495V15.4h1.321v-3.788h.496V15.4h1.321v-3.788h.495V15.4h.413v1.482h-.578v.083zm-71.91 0v-1.153h-2.642v-4.2h.495V15.4h1.652v-3.788h.495V15.4h.413v1.482h-.413v.083zm97.999-1.565a2.966 2.966 0 01-.495-1.647c0-.576.165-1.153.495-1.647a1.577 1.577 0 012.229-.165c.083.082.165.082.165.165.331.494.496 1.07.496 1.647 0 .576-.165 1.153-.496 1.647a1.577 1.577 0 01-2.229.165c-.082-.083-.082-.165-.165-.165zm.33-2.965a3.408 3.408 0 00-.247 1.318c0 .412.082.906.247 1.318.331.494.908.658 1.404.329.165-.082.248-.247.33-.33.165-.411.248-.823.248-1.317 0-.412-.083-.906-.248-1.318-.33-.494-.908-.659-1.403-.33l-.331.33zm-17.09 2.965c-.33-.494-.495-.988-.495-1.565 0-.576.165-1.153.578-1.647.33-.33.743-.576 1.238-.576.413 0 .743.082 1.074.33l-.248.329a1.398 1.398 0 00-.826-.248c-.495 0-.908.33-1.073.742-.165.33-.165.74-.165 1.153 0 .33 0 .576.165.905.165.495.66.824 1.156.824.33 0 .578-.082.825-.247l.248.33c-.33.246-.743.329-1.156.329-.578-.165-1.073-.33-1.321-.659zm-25.428 0a2.967 2.967 0 01-.496-1.647c0-.576.166-1.153.496-1.647a1.577 1.577 0 012.229-.165c.082.082.165.082.165.165.33.494.495 1.07.495 1.647 0 .576-.165 1.153-.495 1.647a1.577 1.577 0 01-2.229.165c-.083-.083-.083-.165-.165-.165zm.33-2.965a3.409 3.409 0 00-.248 1.318c0 .412.083.906.248 1.318.33.494.908.658 1.404.329.165-.082.247-.247.33-.33.165-.411.247-.823.247-1.317 0-.412-.082-.906-.247-1.318-.248-.494-.908-.659-1.404-.33l-.33.33zM114.181 15.4a2.966 2.966 0 01-.495-1.647c0-.576.165-1.153.495-1.647a1.577 1.577 0 012.229-.165c.083.082.165.082.165.165.33.494.495 1.07.495 1.647 0 .576-.165 1.153-.495 1.647a1.577 1.577 0 01-2.229.165c0-.083-.083-.165-.165-.165zm.33-2.965a3.409 3.409 0 00-.248 1.318c0 .412.083.906.248 1.318.33.494.908.658 1.404.329.165-.082.247-.247.33-.33.165-.411.248-.823.248-1.317 0-.412-.083-.906-.248-1.318-.33-.494-.908-.659-1.404-.33l-.33.33zm-30.3 2.965a2.964 2.964 0 01-.495-1.647c0-.576.165-1.153.496-1.647a1.577 1.577 0 012.229-.165c.082.082.165.082.165.165.33.494.495 1.07.495 1.647 0 .576-.165 1.153-.495 1.647a1.577 1.577 0 01-2.23.165c0-.083-.082-.165-.165-.165zm.33-2.965a3.407 3.407 0 00-.247 1.318c0 .412.083.906.248 1.318.33.494.908.658 1.403.329.165-.082.248-.247.33-.33.166-.411.248-.823.248-1.317 0-.412-.082-.906-.248-1.318-.33-.494-.908-.659-1.403-.33l-.33.33zm-16.676 3.46c-.166 0-.413-.083-.496-.248-.082-.165-.165-.33-.165-.494l-.165-.659a.628.628 0 00-.165-.412.632.632 0 00-.413-.164h-.495v2.059h-.496v-4.2h.496v1.729h.578c.165 0 .33 0 .412-.165a.629.629 0 00.165-.412l.083-.576c0-.165.083-.33.165-.412.165-.082.248-.165.496-.165h.247l.083.33-.165.082c-.083 0-.165.083-.165.083-.083-.083-.166 0-.166.082l-.165.576c0 .165-.082.33-.165.412l-.248.247c.083 0 .166.083.248.165.083.165.165.247.248.412l.248.823c0 .165.082.247.165.33.082 0 .165.082.247.082h.083l-.083.33-.412.164zm97.833-.083v-4.2h.991c.413 0 .826.082 1.156.247.248.165.413.494.413.823 0 .247-.083.495-.248.66-.165.082-.33.246-.495.246.165 0 .413.083.578.247.247.247.413.494.413.824 0 .33-.083.576-.331.823-.413.247-.825.412-1.321.33h-1.156zm.496-.412h.908c.248 0 .413-.082.66-.165a.744.744 0 00.248-.576c0-.247-.082-.494-.248-.659-.247-.165-.495-.165-.743-.165h-.743l-.082 1.565zm0-1.976h.743c.248 0 .413 0 .578-.165.33-.33.247-.741 0-1.07-.165-.165-.413-.165-.661-.165h-.578l-.082 1.4zm-5.036 2.388v-3.788h-1.156v-.412h2.807v.412h-1.156v3.788h-.495zm-11.641 0v-4.2h2.311l-.082.412h-1.734v1.4h1.486v.411h-1.486V15.4h1.899v.412h-2.394zm-13.54 0v-4.2h2.394l-.083.412h-1.816v1.317h.661c.412 0 .743.083 1.073.247.33.247.495.66.495.989 0 .329-.082.658-.33.823-.413.33-.826.412-1.321.33l-1.073.082zm.495-.412h.908c.248 0 .413-.082.661-.165a.888.888 0 00.247-.576c0-.247-.082-.494-.247-.659-.248-.165-.496-.165-.743-.165h-.743V15.4h-.083zm-16.099.412v-4.2h2.312l-.083.412h-1.734v1.4h1.486v.411h-1.403V15.4h1.899v.412h-2.477zm-10.403 0v-2.06h-1.733v2.06h-.496v-4.2h.496v1.73h1.733v-1.73h.496v4.2h-.496zm-7.925 0v-4.2h1.155c.331 0 .661 0 .909.165.33.247.577.576.577.988 0 .412-.082.74-.412.988-.248.247-.661.33-.991.33h-.743v1.646l-.495.083zm.495-2.06h.743c.248 0 .495-.081.66-.246a.885.885 0 00.248-.577c0-.247-.082-.494-.248-.658a1.394 1.394 0 00-.825-.248h-.496l-.082 1.73zm-5.945 2.06v-4.2h2.312l-.082.412H97.09v1.4h1.486v.411h-1.486V15.4h1.899v.412h-2.394zm-3.962 0v-2.06h-1.734v2.06h-.496v-4.2h.496v1.73h1.734v-1.73h.495v4.2h-.495zm-12.632 0v-3.706c0 .165-.083.33-.165.412l-1.734 3.294h-.495v-4.2h.495v2.964c0 .083 0 .412-.083.66.083-.165.166-.413.248-.577l1.651-3.047h.578v4.2h-.495zm-18.08 0l-.414-1.318H59.94l-.413 1.318h-.495l1.403-4.2h.66l1.404 4.2h-.578zm-1.817-1.647h1.32l-.66-2.06-.66 2.06zM47.224 37.882c-.082 1.647-.495 4.365-2.064 6.67-.99 1.483-2.312 2.636-3.963 3.542-1.32.741-2.642 1.235-4.128 1.73-1.569.494-3.22.905-4.788 1.317-1.321.33-2.725.741-4.046 1.236-.99.411-1.899.823-2.807 1.482-.743.576-1.403 1.235-1.899 2.059h-.082c0-.083-.083-.165-.083-.165-.578-.988-1.486-1.73-2.477-2.306-1.073-.659-2.146-1.07-3.302-1.482-1.486-.494-2.972-.824-4.458-1.236-1.569-.411-3.138-.823-4.624-1.4-1.403-.576-2.724-1.235-3.963-2.058-1.816-1.318-3.054-3.047-3.797-5.106-.33-.989-.66-2.06-.743-3.13 0-.494-.083-.74-.083-1.564C0 24.377 0 0 0 0h47.224v37.882zm-23.53 15.565c.083-.082.166-.082.166-.165.33-.411.742-.823 1.155-1.153.909-.74 1.982-1.317 3.138-1.729 1.403-.576 2.807-.988 4.293-1.318 1.486-.411 3.055-.74 4.54-1.235 1.404-.494 2.808-.988 4.129-1.73 1.981-1.152 3.467-2.635 4.458-4.529a13.234 13.234 0 001.238-5.023c.083-.988.083-1.977.083-2.965V.494H.494v34.012c0 .906.083 1.812.166 2.718.083.988.33 1.976.66 2.964.661 2.141 1.982 3.87 3.798 5.27 1.156.824 2.395 1.4 3.716 1.895 1.403.576 2.807.906 4.293 1.318 1.403.411 2.807.74 4.293 1.153 1.238.329 2.394.74 3.467 1.4 1.074.494 1.982 1.235 2.807 2.223 0 0-.082 0 0 0z"/><path d="M41.115 30.718c-.743 4.859-3.22 8.235-3.22 8.235h.99s-3.55 4.036-5.86 3.789c-.331 0 4.87-4.283 6.521-13.094.743-4.118-.165-8.565-.165-8.565.991.74 2.395 5.188 1.734 9.635zm-5.201-12.023s.413 2.882.247 6.423c-.247 6.506-1.981 10.294-4.87 13.67-.744.907-7.183 6.671-7.183 6.671 5.449.083 10.485-5.765 10.485-5.765h-1.321c0-.082 3.22-3.294 4.458-9.552.99-5.271-.908-10.047-.908-10.047l-.908-1.4zm-6.44 21h-2.23s6.688-4.612 6.688-14.412c0-5.27-.825-9.224-.825-9.224l-1.734-2.882v1.976c0 1.977-.826 4.612-2.064 5.847-1.321 1.236-3.055 2.06-5.036 2.06 2.89.988 6.027-.495 7.595-3.048.413 3.377.66 7.247-.578 10.541-.99 2.636-2.559 4.86-4.21 6.67V34.59l-1.816-1.236s0 2.636-.083 2.553c0 0-.908-.494-1.239-.906-.908-.823-1.65-2.058-1.65-2.058s.082 2.964-.083 2.882c-1.9-1.153-2.23-3.13-2.23-3.13v2.06s-.742-.412-1.32-.989c-.578-.576-.991-1.565-.991-1.565l-4.789.906L12.302 35l.908-.823 3.467-.659s.413.659 1.073 1.4c.661.741 1.817 1.482 1.817 1.482v-.576c1.238 1.4 1.486 1.73 2.064 2.059 1.238.823 2.146 1.235 2.146 1.235s0-2.388.083-2.388c0 0 .66 1.07 1.816 1.73-2.394 2.223-4.623 3.54-5.118 3.87-.083.082-3.138 1.894-2.973 1.894 5.614 1.73 11.889-4.53 11.889-4.53zm11.393-3.212c.909-3.46 3.303-8.235.496-16.224 1.156 1.318 1.899 3.377 2.229 5.27 0-.576 0-1.152-.083-1.729-.743-7.247-4.788-12.682-8.999-15.4-2.642-1.729-4.788-2.223-5.284-1.317-.495.74.083 3.211.166 3.953.082 1.564.412 4.694-1.074 5.93-1.899 1.564-7.183-2.636-7.183-2.636s.743.247 1.57-1.236c.082-.082.082-.246.164-.329.496-1.647.578-3.212-.413-6.423.33-.165.991-.412 1.486-.577-3.054.082-5.779 0-5.861 0 0 1.482-1.651 1.318-1.651.577-1.57 0-2.477-.165-2.312 2.058 0 0 1.073-.164 1.403-.247 2.725-.164 3.138 2.306 2.973 4.036-.248 1.647-1.074 1.317-1.982 4.2-.825 3.623.66 5.517 2.477 8.317-1.569-.823-1.734-.906-2.807-2.058.578 2.717 2.312 5.846 2.724 6.588 2.807-.742 3.468-1.483 3.468-1.73V29.4c-.413.66-2.312.989-5.45 1.648-4.375.74-4.292.823-4.953.411-.495-.33-.66-.906-.825-1.153-.083 0-2.23.247-2.725.33a.808.808 0 00-.495.906c.082.576.413.74 1.073.74v.166s-.826.082-.743.905c.083.824.99.824.99.824v.082s-.742.247-.577 1.07c.165.824.99.66 1.238.66l1.982-.247.578 4.611-1.982.247-.413-3.953c-.165 0-.495.083-.743.083-.33 0-1.486 0-1.733-1.07-.166-.824.33-1.154.33-1.154-.083-.082-.743-.164-.826-.823-.165-.741.413-1.07.496-1.153 0 0-.578-.165-.66-.906-.166-.741.247-1.153.412-1.235.165-.165.33-.247.578-.33h.082l-3.715.412s1.404-3.541 5.45-3.788c4.21-.33 6.026 2.635 6.026 2.635l-3.55.33c.083.247.33.576.578.74.66.33 3.22-.329 4.21-.494h.083c-.413-.905-2.147-4.694-2.724-8.235-1.322.083-3.716.083-3.963-.247-.496-.823-.248-.906-.496-1.73-.247-.823-1.568-1.152-2.146-.411-.743.906-.496 2.141 1.156 2.388-.083 0 0 0 0-.33h.495c0 .577.082.907.413 1.154-1.321.165-2.23-.33-2.642-.989-.33.083-.578 0-.908 0-.166.165-.33.412-.248.742.082.659.578.823.908.823.578 0 .908-.74.908-.74v1.317h6.688s-1.156 1.894-3.138 2.635c-.743.33-1.733.494-2.807.494-1.899-.082-3.22-.741-3.963-1.482-.743-.741-1.32-1.565-1.32-1.565h2.972c-.33-.165-.743-.412-.991-.906-.33-.741-.083-1.235.248-1.482-.166-.082-.33-.165-.413-.33a1.793 1.793 0 01-.413-.658c-.165-.494-.165-.989 0-1.4.165-.494.743-1.071 1.403-1.153.661-.083 1.156.082 1.652.33v-4.2h1.981l.083 3.952c.413 0 .825.165 1.073.659s.248 1.235.248 1.235-.083.659.66.824h2.312a10.764 10.764 0 010-2.306 10.01 10.01 0 011.156-3.294c.165-.165.247-.412.413-.495l.825-.988c.743-.906 1.073-1.564.99-2.717-.164-1.73-3.632-1.894-4.045-.824-.33-.494-.33-1.07-.33-1.647 0-.576.248-.906.33-1.235.083-1.236 1.404-1.318 2.395-1.4 0-2.47 6.77-1.483 9.164.247-.248.082-1.239.659-1.239.659.66 1.317 1.239 6.094 1.321 8.811 2.147 1.071 1.982-1.811 1.569-5.517-.165-1.812.33-2.965 1.073-3.788.743-.824 1.817-.824 2.642-.742 3.55.247 13.788 6.012 14.2 18.365.248 5.188-2.229 12.024-3.715 12.765zM7.017 18.448c-.33-.248-1.898-.165-1.898.905 0 .66.247.906.578 1.07.165.083.412.166.578.166a2.652 2.652 0 01.743-2.141z"/></g><defs><clipPath id="anclip0"><path fill="#fff" d="M0 0h178v56H0z"/></clipPath></defs></svg><svg fill="none" viewBox="0 0 200 49" id="logo12" xmlns="http://www.w3.org/2000/svg"><path fill-rule="evenodd" clip-rule="evenodd" d="M0 24.5c0 4.846 1.442 9.583 4.143 13.611a24.564 24.564 0 0011.032 9.024 24.658 24.658 0 0014.203 1.394 24.608 24.608 0 0012.587-6.705 24.476 24.476 0 006.728-12.544 24.424 24.424 0 00-1.4-14.156A24.518 24.518 0 0038.24 4.13 24.641 24.641 0 0024.582 0 24.625 24.625 0 007.2 7.176 24.458 24.458 0 000 24.5zM63.06 23.168a11.922 11.922 0 005.21 1.331c2.672 0 4.141-1.331 4.141-2.93 0-1.597-2.137-3.195-4.542-3.195h-2.271v-3.728h2.004c1.737 0 4.008-.666 4.008-2.53 0-1.864-1.069-2.397-3.34-2.397a9.91 9.91 0 00-4.676 1.332l-1.069-3.728a13.932 13.932 0 016.947-1.731c4.81 0 7.348 2.53 7.348 5.592a5.316 5.316 0 01-1.16 3.318 5.346 5.346 0 01-2.981 1.875 5.616 5.616 0 013.415 1.845 5.583 5.583 0 011.394 3.614c0 3.862-3.473 6.79-9.085 6.79a13.664 13.664 0 01-6.68-1.597l1.336-3.861zM87.241 24.234h1.87c4.81 0 7.883-2.53 7.883-8.122 0-5.593-2.805-7.324-7.348-7.324l-2.405.267v15.179zm-5.21-18.775a46.38 46.38 0 017.08-.532c4.41 0 7.349.799 9.486 2.53a10.252 10.252 0 013.001 3.854c.675 1.507.974 3.154.874 4.8a11.84 11.84 0 01-3.875 9.32c-2.404 1.998-6.145 2.93-10.688 2.93-2.01.001-4.019-.133-6.012-.399l.134-22.503zM111.423 28.228L103.808 5.06h3.206l3.607 11.318c.935 3.062 1.871 5.992 2.539 8.655h.133c.668-2.663 1.603-5.593 2.672-8.655l3.875-11.451h3.072l-8.283 23.301h-3.206z" fill="#363636"/><path d="M128.524 5.06h-3.073v23.116h3.073V5.06z" fill="#363636"/><path fill-rule="evenodd" clip-rule="evenodd" d="M133.333 24.633a10.18 10.18 0 005.344 1.465c3.073 0 4.81-1.598 4.81-3.995 0-2.397-1.202-3.329-4.409-4.527-3.206-1.198-6.145-3.329-6.145-6.525 0-3.195 2.939-6.258 7.481-6.258a10.45 10.45 0 015.077 1.066l-.802 2.396a8.57 8.57 0 00-4.408-1.065c-3.207 0-4.409 1.864-4.409 3.462s1.469 3.196 4.676 4.394c3.206 1.198 5.878 3.329 5.878 6.79 0 3.463-2.672 6.658-8.149 6.658a12.058 12.058 0 01-5.879-1.464l.935-2.397z" fill="#363636"/><path d="M153.641 5.06h-3.073v23.116h3.073V5.06z" fill="#363636"/><path fill-rule="evenodd" clip-rule="evenodd" d="M160.722 16.777c0 4.927 2.672 9.454 7.481 9.454 4.81 0 7.482-4.394 7.482-9.587s-2.405-9.454-7.348-9.454-7.482 4.527-7.482 9.587h-.133zm18.036-.4c0 7.857-4.81 12.117-10.822 12.117s-10.421-4.793-10.421-11.717S162.058 4.66 168.203 4.66c6.146 0 10.555 4.927 10.555 11.718zM182.632 28.229V5.061h3.34l7.348 11.717a64.984 64.984 0 014.142 7.457h.133a103.03 103.03 0 01-.401-9.454V5.06H200v23.168h-3.073l-7.348-11.717a67.167 67.167 0 01-4.275-7.723h-.134c.134 2.93.268 5.725.268 9.587v9.853h-2.806zM64.663 35.685h.935v6.79h3.74v-6.79h.936v6.79h.668v3.063h-.802v-2.13h-5.477v-7.723zm10.821 5.859h.936c-.112.52-.394.988-.802 1.331a2.544 2.544 0 01-3.34-.266 3.056 3.056 0 01-.668-2.13 3.188 3.188 0 01.668-2.131 2.136 2.136 0 011.737-.799 2.144 2.144 0 011.736.799c.473.607.71 1.363.668 2.13v.267h-3.874c.029.49.216.957.534 1.331a1.334 1.334 0 001.07.533l.8-.267c.267-.251.453-.575.535-.931v.133zm-2.939-1.465h2.94a1.991 1.991 0 00-.268-1.065 1.334 1.334 0 00-1.069-.533 1.341 1.341 0 00-1.069.4c-.28.334-.423.762-.4 1.198h-.134zm4.943-2.264h.936v2.264h2.404v-2.264h.936v5.593h-.936v-2.53h-2.404v2.397h-.936v-5.46zm5.077 0h4.142v.8h-1.603v4.793h-.936v-4.794h-1.603v-.799zm5.077 7.59v-7.59h.802v.8l.668-.666.801-.267c.434 0 .856.14 1.203.4.368.267.647.638.801 1.065.18.467.271.964.267 1.465.008.5-.083.998-.267 1.464a2.264 2.264 0 01-.801 1.065l-1.203.4h-.801l-.535-.533v2.663l-.935-.266zm.802-4.794a2.523 2.523 0 00.4 1.598 1.202 1.202 0 00.936.533 1.206 1.206 0 00.935-.533c.3-.477.44-1.036.4-1.598a2.523 2.523 0 00-.4-1.597 1.202 1.202 0 00-.935-.533 1.205 1.205 0 00-.936.533c-.3.477-.44 1.036-.4 1.597zm7.348-.931a4.252 4.252 0 01.935-2.93 3.207 3.207 0 012.405-1.065 3.212 3.212 0 012.939 1.997c.275.63.412 1.31.401 1.997a4.785 4.785 0 01-.401 2.13 3.069 3.069 0 01-1.203 1.332 3.345 3.345 0 01-1.736.533 3.214 3.214 0 01-1.87-.533 3.332 3.332 0 01-1.203-1.464 4.515 4.515 0 01-.401-1.864l.134-.134zm.935 0a3.188 3.188 0 00.668 2.13 2.27 2.27 0 001.737.805 2.275 2.275 0 001.736-.805 3.314 3.314 0 00.668-2.264 4.111 4.111 0 00-.267-1.597 2.403 2.403 0 00-.801-1.066 2.28 2.28 0 00-1.336-.4 2.41 2.41 0 00-1.737.8 3.454 3.454 0 00-.668 2.396zm10.688-4.128h.801a1.453 1.453 0 01-.267.799l-.401.266h-1.068l-1.47.266a1.333 1.333 0 00-.534.666 4.24 4.24 0 00-.134 1.332l.802-.8.935-.266a2.144 2.144 0 011.737.8c.463.56.701 1.271.668 1.996a3.327 3.327 0 01-.401 1.598 2.806 2.806 0 01-.802.932c-.351.252-.77.39-1.202.4a2.143 2.143 0 01-1.47-.4 2.928 2.928 0 01-.801-1.198 7.576 7.576 0 01-.268-2.397 4.521 4.521 0 01.668-2.929 2.818 2.818 0 012.138-.799h1.202l-.133-.266zm0 5.06a2.394 2.394 0 00-.401-1.465 1.202 1.202 0 00-1.069-.533 1.338 1.338 0 00-1.069.533 2.654 2.654 0 00-.4 1.598 2.26 2.26 0 00.4 1.464 1.338 1.338 0 001.069.533 1.208 1.208 0 001.069-.533c.3-.477.44-1.036.401-1.598zm1.202-2.797h2.271v2.13h1.069a2.544 2.544 0 011.737.533 1.596 1.596 0 01.535 1.199 1.597 1.597 0 01-.535 1.198 2.277 2.277 0 01-1.47.4h-2.137v-4.66h-1.47v-.8zm2.271 4.794h.936l1.202-.267a.8.8 0 00.401-.665.797.797 0 00-.267-.666l-1.069-.266h-1.203v1.864zm7.883-1.065h.935c-.111.52-.393.988-.801 1.331a2.547 2.547 0 01-3.34-.266 3.05 3.05 0 01-.668-2.13 3.182 3.182 0 01.668-2.131 2.134 2.134 0 011.736-.799 2.142 2.142 0 011.737.799c.472.607.71 1.363.668 2.13v.267h-3.741c.029.49.216.957.535 1.331a1.334 1.334 0 001.069.533l.801-.267c.266-.251.452-.575.535-.931l-.134.133zm-2.939-1.465h3.073a1.99 1.99 0 00-.268-1.065 1.325 1.325 0 00-1.068-.533 1.344 1.344 0 00-1.069.4 1.722 1.722 0 00-.401 1.198h-.267zm4.943-2.264h1.336l1.336 4.394 1.47-4.394h1.202v5.593h-.935V38.88l-1.47 4.394h-.801l-1.47-4.66v4.66h-.802v-5.46h.134zm6.814 0h.935v2.264h2.405v-2.264h.935v5.593h-.935v-2.53h-2.272v2.397h-.935v-5.46h-.133zm10.42 0h.936v5.593h-.936v-5.593zm-4.943 0h.935v2.13h1.069a2.68 2.68 0 011.737.4 1.461 1.461 0 01.534 1.199 1.595 1.595 0 01-.534 1.198 2.14 2.14 0 01-1.603.533h-1.871v-5.46h-.267zm.935 4.794h.936l1.202-.267a.8.8 0 00.401-.665.923.923 0 00-.267-.666 1.743 1.743 0 00-1.203-.266h-1.069v1.864zm5.612.799l1.87-2.93-1.737-2.663h1.069l.802 1.332.4.666.401-.666.802-1.332h1.069l-1.737 2.663 1.87 2.93h-1.069l-1.068-1.731-.268-.4-1.336 2.13h-1.068zm10.287 0v-6.791h-2.405v-.932h5.611v.932h-2.405v6.79h-.801zm7.214-1.731h.936c-.112.52-.394.988-.802 1.331a2.544 2.544 0 01-3.34-.266 3.055 3.055 0 01-.668-2.13 3.188 3.188 0 01.668-2.13 2.131 2.131 0 011.737-.8 2.144 2.144 0 011.737.8c.472.606.709 1.362.668 2.13v.266h-3.875c.029.49.216.957.534 1.331a1.338 1.338 0 001.069.533l.802-.266c.266-.252.452-.576.534-.932v.133zm-2.939-1.465h2.939a1.989 1.989 0 00-.267-1.065 1.335 1.335 0 00-1.069-.533 1.339 1.339 0 00-1.069.4c-.28.335-.423.763-.4 1.198h-.134zm4.142 3.329l1.87-2.93-1.737-2.662h1.069l.802 1.331.401.666.4-.666.802-1.331h1.069l-1.737 2.663 1.87 2.929h-1.068l-1.069-1.731-.267-.4-1.336 2.13h-1.069zm5.611-5.592h.935v2.263h2.405v-2.397h.935v5.593h-.935v-2.53h-2.405v2.397h-.935v-5.46.134zm5.21 2.796a2.93 2.93 0 01.802-2.264 2.275 2.275 0 013.34.133c.463.56.701 1.272.668 1.998a3.85 3.85 0 01-.267 1.73 2.27 2.27 0 01-.935.933l-1.203.399a2.278 2.278 0 01-1.737-.799 3.06 3.06 0 01-.668-2.13zm.936 0c-.06.563.082 1.129.4 1.598a1.338 1.338 0 002.138 0c.309-.474.45-1.036.401-1.598a2.39 2.39 0 00-.401-1.598 1.335 1.335 0 00-1.666-.392 1.338 1.338 0 00-.472.392 2.394 2.394 0 00-.4 1.598zm5.21-2.796h4.142v5.459h-.936v-4.794h-2.271v2.797c.034.443.034.888 0 1.331a.93.93 0 01-.267.533l-.802.266h-.668v-.932h.936a5.073 5.073 0 000-.8v-3.994l-.134.134zm5.21 2.796a2.93 2.93 0 01.802-2.264 2.275 2.275 0 013.34.133c.463.56.701 1.272.668 1.998a3.85 3.85 0 01-.267 1.73 2.27 2.27 0 01-.935.933l-1.203.399a2.278 2.278 0 01-1.737-.799 3.06 3.06 0 01-.668-2.13zm.936 0c-.06.563.082 1.129.4 1.598a1.338 1.338 0 002.138 0c.309-.474.45-1.036.401-1.598a2.39 2.39 0 00-.401-1.598 1.335 1.335 0 00-1.666-.392 1.338 1.338 0 00-.472.392 2.394 2.394 0 00-.4 1.598zm4.943-2.796h2.939v.665h-2.138v4.794h-.935v-5.593l.134.134zm3.607 0h.935v4.26l2.405-4.26h.935v5.592h-.935v-4.394l-2.271 4.26h-.935v-5.592l-.134.134zm5.611 0h.935v4.26l2.405-4.26h.936v5.592h-.802v-4.394l-2.405 4.128h-.935v-5.46l-.134.134zm3.073-1.998h.534a1.59 1.59 0 01-.4 1.065 1.609 1.609 0 01-2.004 0 1.591 1.591 0 01-.401-1.065h.534a.936.936 0 00.267.533h1.203a.94.94 0 00.267-.666v.133z" fill="#363636"/></svg><svg fill="none" viewBox="0 0 118 53" id="logo2" xmlns="http://www.w3.org/2000/svg"><g clip-path="url(#apclip0)" fill="#363636"><path d="M83.59 4.684v1.941h16.394c1.093 0 2.715 0 3.808 1.104s1.093 2.744 1.093 3.848V28.14c0 1.104 0 2.743-1.093 3.847-1.093 1.105-2.715 1.105-3.808 1.105h-7.915c-1.358 0-3.147 0-3.81-1.506-.695-1.506.266-2.911 1.094-4.015l10.664-14.355H83.623l-6.59 8.867c-1.093 1.473-2.053 2.744-2.053 4.417 0 1.64.894 2.844 2.053 4.417l1.623 2.208c1.622 2.208 3.278 4.417 5.464 5.52 2.186 1.105 4.77 1.105 8.346 1.105h7.087c4.107 0 10.234 0 14.34-4.149C118 31.452 118 25.396 118 23.188v-6.625c0-2.209 0-8.265-4.107-12.414C109.787 0 103.66 0 99.553 0H88.227c-1.093 0-2.451 0-3.544 1.104S83.59 3.58 83.59 4.684z"/><path d="M63.918 13.25h16.393L60.64 39.75H44.246l19.672-26.5zM0 17.934c0-1.104 0-2.476 1.093-3.58s2.45-1.104 3.544-1.104h27.455c3.543 0 6.16 0 8.345 1.104 2.186 1.104 3.809 3.313 5.465 5.521l1.623 2.208c1.159 1.573 2.053 2.744 2.053 4.417 0 1.64-.96 2.944-2.053 4.417l-6.558 8.833H24.574l10.664-14.354c.828-1.104 1.788-2.476 1.093-4.015-.696-1.506-2.451-1.506-3.809-1.506h-12.85V53H6.557V19.875H0v-1.94z"/></g><defs><clipPath id="apclip0"><path fill="#fff" d="M0 0h118v53H0z"/></clipPath></defs></svg><svg fill="none" viewBox="0 0 186 20" id="logo6" xmlns="http://www.w3.org/2000/svg"><path d="M182.003 4.292c.218.202.465.366.742.482a2.38 2.38 0 001.82 0c.277-.116.525-.28.742-.482.218-.203.386-.453.505-.723.119-.28.188-.58.178-.878 0-.309-.059-.608-.178-.887a2.274 2.274 0 00-.495-.714 2.495 2.495 0 00-.742-.482 2.293 2.293 0 00-.92-.173c-.316 0-.623.057-.91.173-.277.116-.524.28-.742.482a2.187 2.187 0 00-.505.723c-.118.28-.188.58-.178.878.01.598.248 1.176.683 1.6zm-.109-2.344c.099-.221.238-.424.406-.597a1.71 1.71 0 01.613-.396 1.952 1.952 0 012.117.405 1.866 1.866 0 01.554 1.33c0 1.042-.87 1.881-1.929 1.881-.257 0-.504-.048-.742-.144a1.986 1.986 0 01-.613-.405 1.866 1.866 0 01-.554-1.33c0-.261.049-.512.148-.744z" fill="#363636"/><path d="M183.665 3.992c.139 0 .277-.02.416-.067.118-.039.227-.097.326-.174a.769.769 0 00.218-.25.852.852 0 00.109-.3h-.416a.6.6 0 01-.208.309.736.736 0 01-.455.125.675.675 0 01-.524-.212c-.139-.145-.198-.347-.198-.627v-.212c0-.28.069-.492.198-.627a.806.806 0 01.96-.096.617.617 0 01.207.241h.426a.932.932 0 00-.109-.27.967.967 0 00-.218-.231 1.298 1.298 0 00-1.207-.145.986.986 0 00-.356.231.885.885 0 00-.228.376 1.293 1.293 0 00-.079.512v.212c0 .385.099.684.307.897.228.212.524.327.831.308zM4.274.415l10.458 19.17h4.313L8.588.416H4.274zM19.045 19.586h4.304L33.806.415h-4.313l-10.448 19.17zM181.518 19.586H186L173.712.415h-4.492l7.876 12.276h-15.741L169.22.415h-4.481l-12.288 19.17h4.482l2.394-3.731h19.797l2.394 3.732zM38.08.415h-4.273v19.17h4.273V.416zM4.274.415H0v19.17h4.274V.416zM84.205.415H79.93v19.17h22.805v-3.162h-18.53V.415zM111.244.415h-4.274v19.17h4.274V.416zM136.947.415h-4.274v19.17h4.274V.416zM148.256.415h-4.274v19.17h4.274V.416zM111.244.415l16.502 19.17h4.927L116.171.416h-4.927zM59.005 0c-9.408 0-15.8 4.002-15.8 10s6.402 10 15.8 10c9.4 0 15.8-4.002 15.8-10s-6.39-10-15.8-10zm0 16.837c-6.163 0-11.526-2.035-11.526-6.837s5.373-6.837 11.526-6.837c6.154 0 11.536 2.035 11.536 6.837s-5.372 6.837-11.535 6.837z" fill="#363636"/></svg><svg fill="none" viewBox="0 0 42 88" id="logo7" xmlns="http://www.w3.org/2000/svg"><path fill-rule="evenodd" clip-rule="evenodd" d="M13.911 66.613l7.223-13.585 6.85 13.585H13.91zm14.072-5.65V27.302l5.604-12.744v38.47l-5.604 7.935zm-13.947 0V27.302l7.098-16.951v37.748l-7.098 12.864zM5.816 6.864H8.307l5.729 13.224 5.728-13.224h2.864l5.355 13.224 6.102-13.224h2.241V53.75l-5.603 8.415v7.454H11.172v-7.454L5.816 53.75V6.865zm2.661 66.968h2.708c.994 0 1.737.159 2.23.475.493.317.835.663 1.027 1.04.105.208.175.41.21.607.035.196.052.366.052.51v.132c-.035.625-.312 1.196-.83 1.712-.52.517-1.302.775-2.349.775h-1.19v3.16H8.476v-8.41zm1.857 3.93h.851c.515 0 .903-.134 1.164-.403a1.31 1.31 0 00.393-.943c0-.32-.116-.61-.347-.871-.231-.26-.634-.39-1.21-.39h-.85v2.607zm6.257-3.93h7.142v1.49h-2.642v6.922h-1.857v-6.921H16.59v-1.49zm9.422 0h1.858v3.594h.039l3.31-3.594h2.21l-3.82 3.81 4.056 4.602H31.31l-3.401-4.182h-.04v4.182h-1.857v-8.412z" fill="#363636"/><path fill-rule="evenodd" clip-rule="evenodd" d="M37.08.431c1.179.247 2.23.955 3.028 1.969.962 1.222 1.559 2.9 1.56 4.738V81.076c-.001 1.839-.598 3.517-1.56 4.739-1.003 1.273-2.403 2.064-3.957 2.064H5.992c-1.555 0-2.955-.79-3.957-2.064-.962-1.222-1.56-2.9-1.56-4.738V7.139c0-1.839.598-3.517 1.56-4.74C2.923 1.272 4.122.524 5.463.366l.658 1.518h-.129c-1.056 0-2.03.566-2.747 1.478-.758.963-1.229 2.3-1.229 3.777v73.938c0 1.477.471 2.813 1.23 3.776.716.911 1.69 1.478 2.746 1.478H36.152c1.056 0 2.03-.567 2.747-1.478.758-.963 1.23-2.3 1.23-3.777V7.137c0-1.477-.472-2.813-1.23-3.776-.66-.84-1.538-1.386-2.497-1.467L37.08.43z" fill="#363636"/></svg><svg fill="none" viewBox="0 0 137 64" id="logo9" xmlns="http://www.w3.org/2000/svg"><path d="M89.717 30.49h-1.203v-2.12h-6.542v-9.505h1.204v8.366h4.268v-8.366h1.203v8.366h1.07v3.258zM97.095 26.796c-.272-.444-.501-.826-.689-1.146l-.468-.799a2.715 2.715 0 00-.356-.475.943.943 0 00-.36-.238 1.439 1.439 0 00-.476-.068h-.883v4.3H92.66v-9.505h1.204v4.319h.787l3.304-4.319h1.538l-3.6 4.373c.264.048.505.185.683.387.252.29.476.604.67.936.25.414.56.936.93 1.564s.858 1.377 1.465 2.246h-1.527a44.26 44.26 0 01-1.018-1.575zM102.371 28.37v-9.505h5.244v1.142h-4.04v2.77h1.953a5.07 5.07 0 011.198.135c.346.08.672.233.956.45.275.218.494.502.635.826.169.409.249.85.234 1.292.016.473-.088.942-.301 1.363-.189.356-.459.661-.787.891-.34.23-.718.396-1.117.49a5.38 5.38 0 01-1.264.147h-2.711zm1.204-1.14h1.485c.732 0 1.282-.148 1.652-.446.181-.146.326-.334.422-.547a1.52 1.52 0 00.133-.681 1.897 1.897 0 00-.146-.78 1.215 1.215 0 00-.409-.504 1.722 1.722 0 00-.608-.266 3.307 3.307 0 00-.749-.082h-1.77l-.01 3.307zM120.778 28.37h-1.199l-.577-7.426-2.36 7.427h-1.257l-2.36-7.4-.59 7.4h-1.203l.802-9.506h1.471l2.527 8.186 2.477-8.176h1.463l.806 9.496zM72.48 5.813h-.64V58.33h.64V5.813zM82.936 46.179h-.964v-7.613h2.205c.388-.005.775.04 1.152.136.318.08.615.226.874.429.243.196.434.45.556.74.138.338.204.701.197 1.067 0 .789-.252 1.393-.755 1.81-.504.419-1.206.627-2.107.626h-1.156l-.002 2.805zm0-3.72h1.156c.602 0 1.056-.122 1.367-.37.311-.247.466-.622.466-1.131 0-.51-.155-.899-.466-1.13-.31-.232-.765-.348-1.367-.348h-1.156v2.979zM92.386 46.288a3.526 3.526 0 01-1.408-.271 2.998 2.998 0 01-1.072-.779 3.45 3.45 0 01-.68-1.234 5.279 5.279 0 01-.236-1.631 5.087 5.087 0 01.245-1.637c.148-.453.384-.871.693-1.23a2.983 2.983 0 011.066-.777c.43-.184.894-.277 1.36-.271a3.552 3.552 0 011.474.287c.411.182.778.455 1.072.799.298.364.522.786.659 1.24.153.513.229 1.047.224 1.583a5.146 5.146 0 01-.258 1.701c-.15.453-.39.87-.706 1.224a2.92 2.92 0 01-1.072.74 3.633 3.633 0 01-1.36.256zm.097-.914c.316.015.631-.046.92-.177.29-.13.545-.329.745-.578.403-.504.605-1.253.606-2.246a4.861 4.861 0 00-.165-1.35 2.54 2.54 0 00-.478-.934 1.839 1.839 0 00-.755-.545c-.32-.12-.66-.179-1.001-.174-.317-.002-.63.06-.923.186a2.009 2.009 0 00-.74.553c-.222.276-.389.594-.49.936-.13.43-.192.878-.184 1.328-.007.445.052.889.177 1.316.1.345.27.665.498.94.21.248.477.44.777.561.323.126.666.188 1.013.184zM103.412 45.973a2.92 2.92 0 01-.73.234c-.3.056-.605.083-.91.082a4.333 4.333 0 01-1.574-.268 3.202 3.202 0 01-1.18-.767 3.354 3.354 0 01-.74-1.198 4.574 4.574 0 01-.257-1.58 5.308 5.308 0 01.258-1.72c.152-.47.405-.9.74-1.262a3.08 3.08 0 011.161-.772c.486-.18 1-.268 1.517-.26.35-.008.7.023 1.044.092.228.048.451.115.669.2l-.181.858a3.693 3.693 0 00-.718-.186 4.923 4.923 0 00-.718-.053c-.895 0-1.573.253-2.041.76-.468.507-.702 1.256-.702 2.242-.007.43.06.859.196 1.266.12.353.311.675.563.947.248.261.552.462.889.587.378.138.778.206 1.18.2.238-.002.477-.023.712-.065.22-.035.435-.102.637-.2l.185.863zM110.15 44.146h-3.204l-.728 2.032h-.983l2.862-7.613h.963l2.807 7.613h-1.007l-.71-2.032zm-2.893-.893h2.582l-1.253-3.578h-.043l-1.286 3.578zM115.808 46.178h-.965V39.48h-2.217v-.915h5.399v.915h-2.217v6.698zM123.03 46.288a3.536 3.536 0 01-1.41-.271 3.008 3.008 0 01-1.072-.779 3.48 3.48 0 01-.68-1.234 5.269 5.269 0 01-.234-1.631 5.05 5.05 0 01.245-1.637 3.6 3.6 0 01.691-1.23 2.989 2.989 0 011.066-.777c.43-.184.894-.277 1.361-.271a3.554 3.554 0 011.473.287c.412.181.778.454 1.072.799.299.364.523.786.659 1.24.153.513.229 1.047.224 1.583a5.14 5.14 0 01-.256 1.701c-.151.453-.392.87-.708 1.224a2.902 2.902 0 01-1.072.74 3.622 3.622 0 01-1.359.256zm.095-.914a2.013 2.013 0 001.667-.755c.403-.504.604-1.253.604-2.246a4.839 4.839 0 00-.165-1.35 2.526 2.526 0 00-.476-.934 1.866 1.866 0 00-.755-.545 2.74 2.74 0 00-1.003-.174c-.316-.002-.63.06-.921.186a1.967 1.967 0 00-.739.553 2.74 2.74 0 00-.494.936c-.129.43-.19.878-.181 1.328a4.5 4.5 0 00.175 1.316c.101.345.271.665.5.94.211.248.477.44.777.561.32.125.661.187 1.005.184h.006zM136.325 46.178h-.963l-.461-5.947-1.897 5.947h-1.007l-1.887-5.927-.47 5.927h-.965l.643-7.613h1.18l2.026 6.55 1.982-6.55h1.18l.639 7.613zM36.509 36.489a6.456 6.456 0 01-3.223 1.96 6.382 6.382 0 01-3.753-.188 6.483 6.483 0 01-3.018-2.27 6.651 6.651 0 01-.358-7.291 6.51 6.51 0 012.78-2.565 6.388 6.388 0 013.716-.565 6.433 6.433 0 013.4 1.625 6.541 6.541 0 011.517 2.058 6.63 6.63 0 01-1.061 7.236zM33.397 9.561a22.043 22.043 0 011.5 1.648 25.955 25.955 0 013.817 6.27 19.68 19.68 0 004.655.326c.094 0 .18 0 .275-.012.095-.012.165-.018.252-.024 3.2-.293 7.358-1.54 11.157-5.404.13-.134.262-.276.394-.414a33.333 33.333 0 00-1.853-2.086C48.33 4.533 41.351 1.302 33.934.762a30.643 30.643 0 00-20.74 6.164c9.518-4.682 16.11-1.452 20.203 2.635zM11.478 41.48c.197-.746.413-1.46.657-2.137a25.99 25.99 0 013.442-6.493 20.367 20.367 0 00-2.05-4.255c-.05-.08-.094-.158-.15-.238-.054-.08-.097-.137-.145-.21-1.85-2.665-4.991-5.697-10.19-7.105-.178-.048-.363-.092-.548-.136-.313.873-.61 1.757-.854 2.672a31.874 31.874 0 002.07 21.835c3.25 6.79 8.798 12.167 15.631 15.147-8.762-6.024-9.3-13.44-7.863-19.08zM49.743 44.827c-.733.2-1.455.367-2.154.493-2.396.425-4.841.5-7.259.221a20.374 20.374 0 00-2.608 3.928c-.039.085-.084.163-.126.25-.04.085-.068.155-.104.233-1.35 2.96-2.36 7.237-.967 12.512.047.18.104.366.157.55.9-.16 1.803-.344 2.704-.586 7.18-1.962 13.426-6.482 17.594-12.733a31.81 31.81 0 005.11-21.312c-.763 10.707-6.813 14.888-12.347 16.444z" fill="#363636"/><path d="M13.195 6.926s-6.717 4.27-10.227 12.84c.92.164 10.29 2.08 13.78 12.65.854-.55 3.476-2.653 5.236-8.443 2.13-7 6.172-12.165 11.407-14.414.006.002-6.631-9.605-20.196-2.633zM34.481 57.325c0-3.548.968-8.246 4.85-12.67l.043-.068c-.633-.687-2.851-2.382-8.557-1.062-7.035 1.63-14.8 1.442-19.339-2.044 0 0-4.874 10.64 7.853 19.079 0 0 6.992 3.765 16.05 2.573a18.111 18.111 0 01-.9-5.808zM56.25 12.977c-1.002 1.234-5.758 6.294-13.695 6.3a19.73 19.73 0 01-4.07-.434l-.066-.015c-.264.976-.478 3.737 3.396 7.986 4.905 5.37 8.626 12.29 7.924 18.023 0 0 11.516-1.034 12.348-16.444.003-.01-.28-8.046-5.838-15.416z" fill="#363636"/></svg><svg fill="none" viewBox="0 0 24 24" id="message" xmlns="http://www.w3.org/2000/svg"><path d="M4 4a2 2 0 00-2 2v12a2 2 0 002 2h8.172l1.414-1.414.586-.586H4V9.002L12 14l8-4.998v3.17l2-2V6a2 2 0 00-2-2H4zm0 2h16v1.002L12 12 4 7.002V6zm18.207 7a.499.499 0 00-.354.146l-1 1 2 2 1-1a.5.5 0 000-.707l-1.293-1.293a.5.5 0 00-.353-.146zm-2.06 1.854L15 20v2h2l5.146-5.146-2-2z" fill="#fff"/></svg><svg fill="none" viewBox="0 0 31 50" id="mobile-btn" xmlns="http://www.w3.org/2000/svg"><path d="M20.45 21.263v-.594c0-1.307-.995-2.376-2.226-2.376-1.23 0-2.226 1.07-2.226 2.376v2.02M24.903 21.916v-.712c0-1.307-.996-2.376-2.226-2.376s-2.226 1.069-2.226 2.376v1.781M26.426 43.001c0-6.77 2.52-7.008 2.812-15.56.118-3.208-.058-4.159-.234-5.465-.176-1.188-.937-2.138-2.05-2.138-1.114 0-2.05.95-2.05 2.138v1.485M26.426 48.287H12.19c-.82 0-1.465-.653-1.465-1.485v-2.257c0-.831.645-1.485 1.465-1.485h14.236c.82 0 1.465.654 1.465 1.485v2.257c0 .773-.645 1.485-1.465 1.485zM12.19 43.001c0-2.494-2.226-5.76-3.574-7.72-3.398-4.99-3.34-6.415-4.921-9.266-1.406-2.495-2.285-4.455-.937-5.168.937-.475 2.812.12 4.57 2.435.585.773 1.405 2.258 2.226 3.267.644.772 1.874.357 1.874-.653V10.453c0-1.306.996-2.375 2.226-2.375s2.285 1.069 2.285 2.375V20.67M4.808 9.919v7.483" stroke="var(--fill)" stroke-width="2" stroke-miterlimit="10" stroke-linecap="round" stroke-linejoin="round"/><path d="M1.762 14.255l3.046 3.147 3.047-3.148" stroke="var(--fill)" stroke-width="2" stroke-miterlimit="10" stroke-linecap="round" stroke-linejoin="round"/><path d="M5 1v1M5 5v1" stroke="var(--fill)" stroke-width="2" stroke-miterlimit="10" stroke-linecap="round" stroke-linejoin="round" stroke-dasharray="0.28 0.28"/></svg><svg fill="none" viewBox="0 0 22 30" id="mobile-slider-btn" xmlns="http://www.w3.org/2000/svg"><path d="M14.804 10.194v-.42c0-.909-.693-1.643-1.56-1.643-.868 0-1.561.734-1.561 1.643v1.398M17.926 10.683v-.49c0-.908-.694-1.642-1.561-1.642s-1.56.734-1.56 1.643v1.258M19.001 25.295c0-4.685 1.769-4.894 1.977-10.837.07-2.237-.035-2.901-.174-3.81-.138-.804-.624-1.503-1.421-1.503-.798 0-1.423.664-1.423 1.503v1.049" stroke="#fff" stroke-width="1.5" stroke-miterlimit="10" stroke-linecap="round" stroke-linejoin="round"/><path d="M8.561 14.458V2.643c0-.909.694-1.643 1.56-1.643.868 0 1.596.734 1.596 1.643v7.131" stroke="#fff" stroke-width="1.5" stroke-miterlimit="10" stroke-linecap="round" stroke-linejoin="round"/><path d="M9.047 25.295c0-2.867-3.226-7.166-3.434-10.347-.277-4.09 2.948-3.496 2.948-3.496M19.001 29H9.047c-.555 0-1.04-.454-1.04-1.049v-1.573c0-.559.45-1.048 1.04-1.048H19c.555 0 1.04.454 1.04 1.048v1.573c0 .56-.485 1.049-1.04 1.049zM6.445 3.447H1M3.428 1.035L1 3.447 3.428 5.86" stroke="#fff" stroke-width="1.5" stroke-miterlimit="10" stroke-linecap="round" stroke-linejoin="round"/><path d="M17.579 3.447H13.59" stroke="#fff" stroke-width="1.5" stroke-miterlimit="10" stroke-linecap="round" stroke-linejoin="round" stroke-dasharray="0.3 0.3"/></svg><svg fill="none" viewBox="0 0 36 56" id="mouse" xmlns="http://www.w3.org/2000/svg"><rect x="1" y="1" width="34" height="54" rx="17" stroke="var(--fill)" stroke-width="2"/><rect x="13.5" y="8.5" width="9" height="18" rx="4.5" stroke="var(--fill)"/><rect x="16" y="12" width="4" height="7" rx="2" fill="var(--fill)"/></svg><svg fill="none" viewBox="0 0 16 27" id="mouse-arrow" xmlns="http://www.w3.org/2000/svg"><path d="M7.293 26.707a1 1 0 001.414 0l6.364-6.364a1 1 0 00-1.414-1.414L8 24.586l-5.657-5.657A1 1 0 00.93 20.343l6.364 6.364zM7 0v26h2V0H7z" fill="var(--fill)"/></svg><svg fill="none" viewBox="0 0 13 15" id="poligon" xmlns="http://www.w3.org/2000/svg"><path d="M13 7.5L.25 14.861V.14L13 7.5z" fill="#00F"/></svg><svg fill="none" viewBox="0 0 56 57" id="recapcha" xmlns="http://www.w3.org/2000/svg"><path d="M.622 43.446v-4.963h.757v.753c.193-.352.37-.584.532-.697a.945.945 0 01.542-.168c.284 0 .572.09.865.271l-.29.78a1.204 1.204 0 00-.617-.182.794.794 0 00-.495.169.886.886 0 00-.313.458c-.094.299-.14.626-.14.98v2.6H.622zm6.594-1.598l.869.108c-.137.507-.391.901-.762 1.182-.37.28-.844.42-1.42.42-.727 0-1.303-.222-1.73-.668-.423-.449-.635-1.076-.635-1.883 0-.835.215-1.483.645-1.944.43-.461.987-.692 1.673-.692.663 0 1.205.226 1.626.678.42.452.63 1.087.63 1.906 0 .05 0 .125-.004.225H4.407c.031.545.185.962.463 1.252.277.29.623.435 1.037.435.308 0 .572-.081.79-.243.218-.162.39-.42.519-.776zm-2.762-1.36h2.77c-.036-.417-.142-.73-.317-.94a1.289 1.289 0 00-1.042-.485c-.386 0-.712.129-.977.388-.261.258-.406.604-.434 1.037zm9.687.556l.907.23c-.19.744-.533 1.312-1.028 1.705-.492.39-1.095.584-1.809.584-.738 0-1.34-.15-1.804-.449-.46-.302-.813-.738-1.056-1.308a4.687 4.687 0 01-.36-1.837c0-.713.136-1.335.407-1.864a2.803 2.803 0 011.164-1.21 3.398 3.398 0 011.663-.417c.686 0 1.262.175 1.73.524.467.349.792.84.976 1.472l-.892.21c-.16-.498-.39-.861-.692-1.089-.302-.227-.682-.34-1.14-.34-.527 0-.968.125-1.323.378-.352.252-.6.592-.743 1.018a4.07 4.07 0 00-.215 1.314c0 .582.084 1.092.252 1.528.172.433.437.757.795.972.358.215.746.322 1.163.322.508 0 .938-.146 1.29-.439.352-.293.59-.727.715-1.304zm1.276 2.402l2.631-6.85h.977l2.804 6.85h-1.033l-.799-2.075h-2.865l-.752 2.075h-.963zm1.977-2.813h2.323l-.715-1.897c-.218-.577-.38-1.05-.486-1.421-.088.44-.21.875-.37 1.308l-.752 2.01zm5.16 2.813v-6.85h2.584c.454 0 .802.021 1.042.065.336.056.618.163.846.322.227.156.41.376.546.66.14.283.21.594.21.934 0 .582-.185 1.076-.555 1.481-.371.402-1.041.603-2.01.603H23.46v2.785h-.907zm.906-3.593h1.771c.586 0 1.002-.11 1.248-.328.246-.218.37-.525.37-.92 0-.287-.074-.531-.22-.734a1.002 1.002 0 00-.57-.407c-.153-.04-.435-.06-.847-.06H23.46v2.448zm7.22 3.593v-6.042h-2.257v-.809h5.43v.809h-2.266v6.042h-.907zm8.996-2.402l.907.23c-.19.744-.533 1.312-1.028 1.705-.492.39-1.095.584-1.809.584-.738 0-1.34-.15-1.804-.449-.46-.302-.813-.738-1.056-1.308a4.687 4.687 0 01-.36-1.837c0-.713.136-1.335.407-1.864a2.803 2.803 0 011.163-1.21 3.398 3.398 0 011.664-.417c.686 0 1.262.175 1.73.524.467.349.792.84.976 1.472l-.892.21c-.16-.498-.39-.861-.692-1.089-.302-.227-.682-.34-1.14-.34-.527 0-.968.125-1.323.378-.352.252-.6.592-.743 1.018a4.071 4.071 0 00-.215 1.314c0 .582.084 1.092.252 1.528.172.433.437.757.795.972.358.215.746.322 1.163.322.508 0 .938-.146 1.29-.439.352-.293.59-.727.715-1.304zm2.056 2.402v-6.85h.907v2.813H46.2v-2.814h.907v6.851H46.2v-3.229h-3.56v3.23h-.907zm6.137 0l2.63-6.85h.977l2.804 6.85h-1.032l-.8-2.075h-2.864l-.753 2.075h-.962zm1.976-2.813h2.323l-.715-1.897c-.218-.577-.38-1.05-.486-1.421-.087.44-.21.875-.37 1.308l-.752 2.01zM.628 54.978v-5.83h2.2c.387 0 .683.018.887.055.286.048.526.14.72.275a1.4 1.4 0 01.465.56c.12.242.179.507.179.796 0 .496-.158.916-.473 1.261-.316.342-.886.513-1.71.513H1.4v2.37H.628zM1.4 51.92h1.507c.499 0 .853-.093 1.062-.278.21-.186.315-.447.315-.784 0-.244-.063-.452-.187-.624a.853.853 0 00-.486-.346c-.13-.035-.37-.052-.72-.052H1.4v2.084zm4.562 3.058v-4.223h.644v.64c.165-.3.316-.497.454-.593a.804.804 0 01.461-.143c.241 0 .487.077.736.23l-.247.665a1.024 1.024 0 00-.525-.155.675.675 0 00-.421.143.754.754 0 00-.267.39c-.08.255-.12.533-.12.835v2.211h-.715zm2.724-5.007v-.823h.716v.823h-.716zm0 5.008v-4.224h.716v4.223h-.716zm2.983 0l-1.607-4.224h.756l.907 2.53c.098.272.188.556.27.85.064-.222.153-.49.267-.803l.939-2.577h.735l-1.598 4.223h-.669zm5.656-.521a2.656 2.656 0 01-.768.477c-.244.093-.506.139-.787.139-.464 0-.82-.113-1.07-.338a1.129 1.129 0 01-.374-.871c0-.207.046-.395.14-.565a1.19 1.19 0 01.37-.413c.153-.104.325-.182.516-.235.14-.037.353-.073.637-.108.578-.069 1.003-.15 1.276-.246l.004-.187c0-.292-.067-.497-.202-.617-.183-.161-.455-.242-.816-.242-.337 0-.586.06-.748.179-.159.117-.277.325-.354.624l-.7-.095c.064-.3.169-.541.315-.724.146-.186.356-.328.632-.426.276-.1.595-.15.959-.15.36 0 .653.042.878.127.226.084.392.192.498.322.106.127.18.289.222.485.024.122.036.342.036.66v.955c0 .665.015 1.087.044 1.264.032.175.093.344.183.505h-.748a1.516 1.516 0 01-.143-.52zm-.06-1.6c-.26.107-.65.197-1.169.271-.294.043-.502.09-.624.143a.618.618 0 00-.382.573c0 .19.071.35.215.477.145.127.357.191.636.191.276 0 .52-.06.736-.179.215-.122.372-.288.473-.497.077-.162.115-.4.115-.716v-.262zm4.594.573l.704.092c-.077.485-.274.866-.592 1.141-.316.273-.704.41-1.166.41-.578 0-1.043-.188-1.396-.565-.35-.379-.525-.921-.525-1.627 0-.456.076-.855.227-1.197.15-.342.38-.598.688-.767.31-.173.647-.259 1.01-.259.459 0 .834.117 1.126.35.291.23.478.56.56.987l-.696.107c-.066-.284-.184-.497-.354-.64a.903.903 0 00-.608-.215c-.36 0-.654.13-.879.39-.225.257-.338.665-.338 1.225 0 .567.109.98.326 1.236.217.258.501.386.851.386.281 0 .516-.086.704-.258.188-.172.308-.438.358-.796zm1.285 3.174l-.08-.672c.157.042.293.064.41.064.159 0 .286-.027.382-.08a.65.65 0 00.234-.223c.045-.071.118-.249.22-.533.012-.04.034-.098.063-.175l-1.603-4.231h.771l.88 2.446c.114.31.216.636.306.978.082-.329.18-.65.294-.962l.903-2.462h.716l-1.607 4.295c-.172.464-.306.784-.402.959-.127.236-.273.408-.437.517-.165.111-.36.167-.589.167-.138 0-.292-.03-.461-.088zm6.093-3.377v-.72h2.2v.72h-2.2zm6.682 1.75v-5.142h-1.921v-.688h4.621v.688H36.69v5.142h-.771zm5.389-1.36l.74.092c-.117.432-.333.767-.649 1.006-.315.239-.718.358-1.209.358-.617 0-1.108-.19-1.471-.569-.36-.382-.541-.916-.541-1.603 0-.71.183-1.262.549-1.654.366-.393.84-.589 1.424-.589.564 0 1.026.192 1.384.577.358.384.537.925.537 1.623l-.004.19h-3.15c.026.465.157.82.393 1.066.236.247.53.37.883.37.263 0 .487-.069.672-.206.186-.138.333-.358.442-.66zm-2.35-1.157h2.358c-.032-.355-.122-.622-.27-.8a1.097 1.097 0 00-.888-.413c-.328 0-.605.11-.83.33-.224.22-.347.514-.37.883zm3.985 2.517v-4.223h.644v.64c.164-.3.316-.497.453-.593a.804.804 0 01.462-.143c.241 0 .486.077.735.23l-.246.665a1.024 1.024 0 00-.525-.155.675.675 0 00-.422.143.754.754 0 00-.266.39 2.79 2.79 0 00-.12.835v2.211h-.715zm2.72 0v-4.223h.64v.592c.133-.207.31-.372.53-.497.22-.127.47-.19.751-.19.313 0 .569.064.768.194.201.13.343.312.425.545.334-.493.77-.74 1.305-.74.419 0 .74.117.966.35.226.23.338.587.338 1.07v2.9h-.712v-2.661c0-.287-.023-.492-.071-.617a.588.588 0 00-.25-.306.789.789 0 00-.43-.115c-.297 0-.544.1-.74.298-.196.196-.294.512-.294.947v2.453h-.716v-2.744c0-.318-.059-.557-.175-.716-.117-.159-.308-.238-.573-.238-.201 0-.388.053-.56.159a.906.906 0 00-.37.465c-.078.204-.116.499-.116.883v2.191h-.716zm6.499-1.26l.708-.112c.04.284.15.502.33.653.183.15.438.226.764.226.328 0 .572-.066.732-.199.159-.135.238-.293.238-.473a.435.435 0 00-.21-.382c-.099-.063-.343-.144-.732-.242-.525-.133-.89-.247-1.094-.342a1.09 1.09 0 01-.462-.402 1.085 1.085 0 01-.155-.569c0-.188.043-.362.127-.52.088-.163.206-.296.355-.403.11-.082.262-.15.453-.206.194-.059.4-.088.62-.088.332 0 .622.048.871.143.252.096.438.226.557.39.12.162.202.38.247.652l-.7.096a.762.762 0 00-.279-.51c-.15-.121-.365-.182-.644-.182-.329 0-.563.054-.704.163-.14.109-.21.236-.21.382 0 .093.029.176.087.25.058.077.15.14.274.191.072.027.283.088.633.183.506.135.859.247 1.058.334.201.085.359.21.473.374.114.164.17.369.17.613 0 .238-.07.464-.21.676-.138.21-.338.372-.6.489-.263.114-.56.171-.891.171-.55 0-.968-.114-1.257-.342-.287-.228-.47-.566-.55-1.014z" fill="#A5A5A5"/><g clip-path="url(#azclip0)"><g filter="url(#azfilter0_d)"><path fill-rule="evenodd" clip-rule="evenodd" d="M24.43 7.902c1.025-.466 2.233-.76 3.576-.628 3.852.381 5.765 2.913 6.108 3.413l-3.83 3.924 11.866.098-.155-12.097-2.766 2.834C38.844 4.924 35.033 0 27.796 0a15.08 15.08 0 00-7.636 2.041l4.27 5.861z" fill="#2B4CB9"/></g><g filter="url(#azfilter1_d)"><path fill-rule="evenodd" clip-rule="evenodd" d="M14.975.196l2.878 2.81c-.386.279-5.468 4.096-5.468 11.448 0 1.005.094 1.947.257 2.825l7.347-.217a6.733 6.733 0 01-.33-2.818c.387-3.914 2.994-5.826 3.435-6.123l3.88 3.786.098-11.866-12.097.155z" fill="#5A96F6"/></g><g filter="url(#azfilter2_d)"><path fill-rule="evenodd" clip-rule="evenodd" d="M15.343 24.436l-2.766 2.834-.155-12.097 11.866.098-3.83 3.924c.343.5 2.255 3.032 6.108 3.413 4.279.422 7.18-3.488 7.18-3.488l4.695 5.33s-4.022 5.432-11.665 5.432c-7.237 0-11.049-4.924-11.433-5.446z" fill="#BEBEBE"/></g></g><defs><filter id="azfilter0_d" x="19.16" y="-1" width="23.99" height="16.709" filterUnits="userSpaceOnUse" color-interpolation-filters="sRGB"><feFlood flood-opacity="0" result="BackgroundImageFix"/><feColorMatrix in="SourceAlpha" values="0 0 0 0 0 0 0 0 0 0 0 0 0 0 0 0 0 0 127 0"/><feOffset/><feGaussianBlur stdDeviation=".5"/><feColorMatrix values="0 0 0 0 0 0 0 0 0 0 0 0 0 0 0 0 0 0 0.5 0"/><feBlend in2="BackgroundImageFix" result="effect1_dropShadow"/><feBlend in="SourceGraphic" in2="effect1_dropShadow" result="shape"/></filter><filter id="azfilter1_d" x="11.385" y="-.959" width="16.687" height="19.238" filterUnits="userSpaceOnUse" color-interpolation-filters="sRGB"><feFlood flood-opacity="0" result="BackgroundImageFix"/><feColorMatrix in="SourceAlpha" values="0 0 0 0 0 0 0 0 0 0 0 0 0 0 0 0 0 0 127 0"/><feOffset/><feGaussianBlur stdDeviation=".5"/><feColorMatrix values="0 0 0 0 0 0 0 0 0 0 0 0 0 0 0 0 0 0 0.5 0"/><feBlend in2="BackgroundImageFix" result="effect1_dropShadow"/><feBlend in="SourceGraphic" in2="effect1_dropShadow" result="shape"/></filter><filter id="azfilter2_d" x="11.422" y="14.173" width="28.019" height="16.709" filterUnits="userSpaceOnUse" color-interpolation-filters="sRGB"><feFlood flood-opacity="0" result="BackgroundImageFix"/><feColorMatrix in="SourceAlpha" values="0 0 0 0 0 0 0 0 0 0 0 0 0 0 0 0 0 0 127 0"/><feOffset/><feGaussianBlur stdDeviation=".5"/><feColorMatrix values="0 0 0 0 0 0 0 0 0 0 0 0 0 0 0 0 0 0 0.382529 0"/><feBlend in2="BackgroundImageFix" result="effect1_dropShadow"/><feBlend in="SourceGraphic" in2="effect1_dropShadow" result="shape"/></filter><clipPath id="azclip0"><path fill="#fff" transform="translate(11.422)" d="M0 0h31v30H0z"/></clipPath></defs></svg><svg fill="none" viewBox="0 0 32 32" id="settings" xmlns="http://www.w3.org/2000/svg"><path d="M21.315 4l-2.67 2.67A2.652 2.652 0 0016.37 8h-5.935c-.532-1.575-1.976-2.667-3.768-2.667-2.267 0-4 1.734-4 4 0 1.964 1.303 3.524 3.125 3.907L8.75 20H6.667A2.675 2.675 0 004 22.667V28h22.667v-5.333C26.667 21.2 25.467 20 24 20H12.75l-3.37-7.706c.479-.437.84-.99 1.055-1.627h5.935a2.652 2.652 0 002.276 1.33l2.67 2.67H28V12h-5.58l-2.667-2.667 2.666-2.666H28V4h-6.685zM6.667 8C7.464 8 8 8.536 8 9.333c0 .798-.536 1.334-1.333 1.334-.798 0-1.334-.536-1.334-1.334C5.333 8.536 5.87 8 6.667 8zm0 14.667H24v2.666H6.667v-2.666z" fill="#fff"/></svg><svg fill="none" viewBox="0 0 32 32" id="signal" xmlns="http://www.w3.org/2000/svg"><path d="M18.667 2.667v2.666c4.412 0 8 3.588 8 8h2.666c0-5.881-4.785-10.666-10.666-10.666zM8.89 5.157L7.716 6.33A12.609 12.609 0 004 15.307c0 3.39 1.32 6.58 3.719 8.977A12.603 12.603 0 0016.693 28c3.39 0 6.579-1.32 8.976-3.719l1.203-1.203-1.458-.88a44.17 44.17 0 01-6.906-5.185c.24-.086.478-.229.71-.461a2.666 2.666 0 10-3.77-3.77 1.91 1.91 0 00-.453.692 54.026 54.026 0 01-5.211-6.917l-.893-1.4zM18.667 8v2.667a2.67 2.67 0 012.666 2.666H24A5.339 5.339 0 0018.667 8zM8.523 9.492c3.93 5.779 8.615 10.479 13.959 14.005a9.957 9.957 0 01-5.79 1.836 9.965 9.965 0 01-7.09-2.935C6.094 18.89 5.734 13.406 8.523 9.492z" fill="#fff"/></svg><svg fill="none" viewBox="0 0 40 40" id="stages1" xmlns="http://www.w3.org/2000/svg"><path d="M10 5c-2.742 0-5 2.258-5 5 0 2.155 1.404 3.992 3.333 4.688v6.979h3.334v-6.98C13.595 13.992 15 12.155 15 10c0-2.742-2.258-5-5-5zm20 0a5 5 0 00-4.707 3.333h-6.96v3.334h6.957A5 5 0 0030 15a5 5 0 100-10zM10 8.333c.94 0 1.667.727 1.667 1.667 0 .94-.727 1.667-1.667 1.667-.94 0-1.667-.727-1.667-1.667 0-.94.727-1.667 1.667-1.667zm18.333 10V25l-3.821 3.822c-.65.65-.65 1.706 0 2.356l4.31 4.31c.65.652 1.705.652 2.356 0l4.31-4.31a1.665 1.665 0 000-2.356L31.667 25v-6.667h-3.334zM6.667 25C5.747 25 5 25.747 5 26.667v6.666C5 34.253 5.747 35 6.667 35h6.666c.92 0 1.667-.747 1.667-1.667v-6.666c0-.92-.747-1.667-1.667-1.667H6.667z" fill="#fff"/></svg><svg fill="none" viewBox="0 0 40 40" id="stages10" xmlns="http://www.w3.org/2000/svg"><path d="M31.667 0a8.334 8.334 0 000 16.667 8.334 8.334 0 000-16.667zm3.418 4.417l2.33 2.334-6.582 6.582-4.915-4.915 2.33-2.334 2.585 2.581 4.252-4.248zM6.667 6.667A3.332 3.332 0 003.333 10v16.667A3.332 3.332 0 006.667 30H0v3.333h40V30h-6.667a3.332 3.332 0 003.334-3.333V18.86a11.538 11.538 0 01-3.33 1.005v6.8H6.667V10h13.467A11.68 11.68 0 0120 8.333c0-.566.055-1.121.134-1.666H6.667z" fill="#fff"/></svg><svg fill="none" viewBox="0 0 40 40" id="stages2" xmlns="http://www.w3.org/2000/svg"><path d="M20 3.333c-9.086 0-16.667 6.624-16.667 15 0 8.377 7.581 15 16.667 15 .577 0 1.109-.115 1.667-.169v5.326l2.568-1.647c3.604-2.313 11.407-8.317 12.337-16.934.06-.513.095-1.038.095-1.575 0-8.377-7.581-15-16.667-15zm0 3.334c7.484 0 13.333 5.316 13.333 11.666 0 .402-.024.802-.071 1.205v.006l-.004.007c-.576 5.334-4.846 9.524-8.258 12.256v-2.52l-1.995.404c-.976.197-1.98.31-3.005.31-7.484 0-13.333-5.318-13.333-11.668S12.516 6.668 20 6.668zm-8.333 10V20H15v-3.333h-3.333zm6.666 0V20h3.334v-3.333h-3.334zm6.667 0V20h3.333v-3.333H25z" fill="#fff"/></svg><svg fill="none" viewBox="0 0 40 40" id="stages3" xmlns="http://www.w3.org/2000/svg"><path d="M8.333 5A3.332 3.332 0 005 8.333v23.334A3.332 3.332 0 008.333 35H21.3a4.977 4.977 0 01-1.296-3.333H8.333V15h23.334v5c1.246 0 2.413.47 3.333 1.299V8.333A3.332 3.332 0 0031.667 5H8.333zm0 3.333h23.334v3.334H8.333V8.333zm3.334 10v3.334H15v-3.334h-3.333zm6.666 0v3.334h9.6l.4-.368v-2.966h-10zm13.308 5a1.667 1.667 0 00-1.153.489L29.31 25h-2.643A1.667 1.667 0 0025 26.667v2.643l-1.178 1.178a1.667 1.667 0 000 2.357L25 34.023v2.644a1.667 1.667 0 001.667 1.666h2.643l1.178 1.179a1.667 1.667 0 002.357 0l1.178-1.179h2.644a1.666 1.666 0 001.666-1.666v-2.644l1.179-1.178a1.667 1.667 0 000-2.357l-1.179-1.178v-2.643A1.667 1.667 0 0036.667 25h-2.644l-1.178-1.178a1.666 1.666 0 00-1.204-.489zM11.667 25v3.333H15V25h-3.333zm6.666 0v3.333H21.3c.05-.066.102-.132.17-.198l.198-.202v-1.266c0-.584.1-1.15.3-1.667h-3.634zm13.334 2.357l.488.488c.313.313.736.488 1.178.488H35V30c0 .442.176.866.488 1.178l.489.489-.489.488A1.667 1.667 0 0035 33.333V35h-1.667c-.442 0-.865.176-1.178.488l-.488.489-.489-.489A1.667 1.667 0 0030 35h-1.667v-1.667c0-.442-.175-.865-.488-1.178l-.488-.488.488-.489c.313-.312.488-.736.488-1.178v-1.667H30c.442 0 .866-.175 1.178-.488l.489-.488z" fill="#fff"/></svg><svg fill="none" viewBox="0 0 40 40" id="stages4" xmlns="http://www.w3.org/2000/svg"><path d="M16.11 3.333l-.817 4.206a13.251 13.251 0 00-3.74 2.152l-4.04-1.393-3.893 6.738 3.235 2.813A13.342 13.342 0 006.667 20c0 .681.066 1.388.188 2.152v.003L3.62 24.968l3.893 6.735 4.036-1.39c1.106.908 2.37 1.63 3.744 2.148l.817 4.206h7.78l.817-4.206a13.234 13.234 0 003.74-2.152l4.04 1.394 3.89-6.735-3.233-2.816c.125-.764.19-1.472.19-2.152 0-.68-.066-1.386-.19-2.148v-.003l3.236-2.816-3.893-6.735-4.037 1.39a13.254 13.254 0 00-3.743-2.149l-.817-4.205h-7.78zm2.747 3.334h2.285L21.79 10l1.739.658a9.903 9.903 0 012.806 1.608l1.438 1.178 3.204-1.1 1.142 1.976-2.558 2.226.293 1.833v.003c.101.625.146 1.15.146 1.618 0 .469-.045.993-.146 1.618l-.297 1.833 2.559 2.226-1.143 1.98-3.2-1.104-1.442 1.181a9.881 9.881 0 01-2.802 1.609h-.004L21.787 30l-.648 3.334h-2.282L18.21 30l-1.739-.657a9.901 9.901 0 01-2.806-1.608l-1.438-1.179-3.204 1.1-1.142-1.976 2.562-2.23-.297-1.825v-.004a10.27 10.27 0 01-.146-1.62c0-.47.044-.994.146-1.619l.297-1.832-2.562-2.227 1.142-1.98 3.204 1.104 1.438-1.181a9.903 9.903 0 012.806-1.608L18.21 10l.647-3.333zM20 13.334c-3.66 0-6.667 3.005-6.667 6.666 0 3.661 3.006 6.667 6.667 6.667 3.66 0 6.667-3.006 6.667-6.667 0-3.66-3.006-6.666-6.667-6.666zm0 3.333A3.319 3.319 0 0123.333 20 3.319 3.319 0 0120 23.334 3.319 3.319 0 0116.667 20 3.319 3.319 0 0120 16.667z" fill="#fff"/></svg><svg fill="none" viewBox="0 0 40 40" id="stages5" xmlns="http://www.w3.org/2000/svg"><path d="M20 6.667a3.334 3.334 0 00-2.884 1.666H3.333v3.333h3.334L0 25a8.334 8.334 0 0016.667 0L10 11.666h7.12A3.334 3.334 0 0020 13.333a3.333 3.333 0 002.884-1.667H30L23.333 25A8.334 8.334 0 0040 25l-6.667-13.334h3.334V8.333H22.88A3.334 3.334 0 0020 6.666zM8.333 15.035L13.313 25h-9.96l4.98-9.964zm23.334 0L36.647 25h-9.96l4.98-9.964z" fill="#fff"/></svg><svg fill="none" viewBox="0 0 40 40" id="stages6" xmlns="http://www.w3.org/2000/svg"><path d="M6.667 3.333a3.333 3.333 0 102.884 5h23.782v10h-6.666v-4.108a1.664 1.664 0 00-2.614-1.367l-8.334 5.772c-.45.311-.719.823-.719 1.37 0 .547.27 1.059.72 1.37l8.333 5.772a1.661 1.661 0 002.614-1.367v-4.108h10V5H9.547a3.333 3.333 0 00-2.88-1.667zM23.333 17.41v5.182l-3.74-2.59 3.74-2.592zm-20 .925v3.333h3.334v-3.334H3.333zm6.667 0v3.333h3.333v-3.334H10zM3.333 25v3.334h3.334V25H3.333zm30 5a3.333 3.333 0 100 6.667 3.333 3.333 0 000-6.667zm-30 1.667V35h3.334v-3.333H3.333zm6.667 0V35h3.333v-3.333H10zm6.667 0V35H20v-3.333h-3.333zm6.666 0V35h3.334v-3.333h-3.334z" fill="#fff"/></svg><svg fill="none" viewBox="0 0 40 40" id="stages7" xmlns="http://www.w3.org/2000/svg"><path d="M11.667 1.667V5H15V1.667h-3.333zm6.666 0V5h3.334V1.667h-3.334zm6.667 0V5h3.333V1.667H25zM11.667 8.332c-1.822 0-3.334 1.512-3.334 3.333v16.667c0 1.822 1.512 3.334 3.334 3.334h16.666c1.822 0 3.334-1.512 3.334-3.334V11.667c0-1.822-1.512-3.334-3.334-3.334H11.667zm-10 3.333V15H5v-3.334H1.667zm10 0h16.666v16.667H11.667V11.667zm23.333 0V15h3.333v-3.334H35zM15 15v10h10V15H15zM1.667 18.333v3.334H5v-3.334H1.667zm16.666 0h3.334v3.334h-3.334v-3.334zm16.667 0v3.334h3.333v-3.334H35zM1.667 25v3.333H5V25H1.667zM35 25v3.333h3.333V25H35zM11.667 35v3.333H15V35h-3.333zm6.666 0v3.333h3.334V35h-3.334zM25 35v3.333h3.333V35H25z" fill="#fff"/></svg><svg fill="none" viewBox="0 0 40 40" id="stages8" xmlns="http://www.w3.org/2000/svg"><path d="M8.333 5C6.512 5 5 6.512 5 8.333v23.334C5 33.488 6.512 35 8.333 35h23.334C33.488 35 35 33.488 35 31.667V8.333C35 6.512 33.488 5 31.667 5H8.333zm0 3.333h23.334v3.334H8.333V8.333zm0 6.667h23.334v16.667H8.333V15zm2.256 3.333S10 20 10 23.333c0 3.334.59 5 .59 5h2.743s-.589-1.666-.589-5c0-3.333.59-5 .59-5h-2.745zm5.244 0l2.751 5-2.75 5h2.831L20 25.908l1.335 2.425h2.832l-2.751-5 2.75-5h-2.831L20 20.76l-1.335-2.426h-2.832zm10.834 0s.589 1.667.589 5c0 3.334-.59 5-.59 5h2.745s.589-1.666.589-5c0-3.333-.59-5-.59-5h-2.743z" fill="#fff"/></svg><svg fill="none" viewBox="0 0 40 40" id="stages9" xmlns="http://www.w3.org/2000/svg"><path d="M18.333 3.333v8.334h-10C6.512 11.667 5 13.178 5 15v11.667c0 2.741 2.258 5 5 5h20c2.742 0 5-2.259 5-5V15c0-1.822-1.512-3.333-3.333-3.333h-10V3.333h-3.334zM0 15v13.334h3.333V15H0zm8.333 0h23.334v11.667A1.64 1.64 0 0130 28.333H10a1.64 1.64 0 01-1.667-1.666V15zm28.334 0v13.334H40V15h-3.333zm-20 1.667V20h6.666v-3.333h-6.666z" fill="#fff"/></svg><svg fill="none" viewBox="0 0 57 24" id="sumbit-arrow" xmlns="http://www.w3.org/2000/svg"><path d="M56.06 13.06a1.5 1.5 0 000-2.12l-9.545-9.547a1.5 1.5 0 10-2.122 2.122L52.88 12l-8.486 8.485a1.5 1.5 0 102.122 2.122l9.546-9.546zM0 13.5h55v-3H0v3z" fill="#fff"/></svg></svg>