<?xml version="1.0" encoding="utf-8"?><svg viewBox="0 0 253 56" xmlns="http://www.w3.org/2000/svg" xmlns:xlink="http://www.w3.org/1999/xlink"><style>:root>svg{display:none}:root>svg:target{display:block}</style><svg fill="none" viewBox="0 0 32 32" id="cyber" xmlns="http://www.w3.org/2000/svg"><path d="M17.333.719l-1.817.705-12.85 4.998v8.245c0 2.022.74 5.007 2.714 8.057 1.974 3.05 5.225 6.098 10.172 7.864l1.781.639v-8.56h4v1.692a2.666 2.666 0 102.667.003v-3.029A1.333 1.333 0 0022.667 20h-5.334v-2.667h8.357a2.666 2.666 0 10.98-3.641c-.405.234-.741.57-.975.975h-8.362V12h5.334A1.333 1.333 0 0024 10.667V7.638a2.667 2.667 0 001.333-2.305 2.667 2.667 0 00-4.287-2.114 2.667 2.667 0 00.287 4.422v1.692h-4V.72zm-2.666 3.896v5.828c-.024.144-.024.29 0 .435v10.231c-.024.144-.024.291 0 .435v5.547c-3.23-1.574-5.632-3.628-7.047-5.815-1.693-2.617-2.287-5.298-2.287-6.61V8.246l9.334-3.63z" fill="#fff"/></svg><svg fill="none" viewBox="0 0 32 32" id="electronics" xmlns="http://www.w3.org/2000/svg"><path d="M9.333 1.333V4H12V1.333H9.333zm5.334 0V4h2.666V1.333h-2.666zm5.333 0V4h2.667V1.333H20zM9.333 6.667a2.687 2.687 0 00-2.666 2.666v13.334a2.687 2.687 0 002.666 2.666h13.334a2.687 2.687 0 002.666-2.666V9.333a2.687 2.687 0 00-2.666-2.666H9.333zm-8 2.666V12H4V9.333H1.333zm8 0h13.334v13.334H9.333V9.333zm18.667 0V12h2.667V9.333H28zM12 12v8h8v-8h-8zM1.333 14.667v2.666H4v-2.666H1.333zm13.334 0h2.666v2.666h-2.666v-2.666zm13.333 0v2.666h2.667v-2.666H28zM1.333 20v2.667H4V20H1.333zM28 20v2.667h2.667V20H28zM9.333 28v2.667H12V28H9.333zm5.334 0v2.667h2.666V28h-2.666zM20 28v2.667h2.667V28H20z" fill="#fff"/></svg><svg fill="none" viewBox="0 0 32 32" id="heart" xmlns="http://www.w3.org/2000/svg"><path d="M10 4a7.333 7.333 0 00-7.333 7.333c0 5.562 6.55 10.951 8.375 12.654A296.92 296.92 0 0016 28.467s2.856-2.52 4.958-4.48c1.826-1.703 8.375-7.092 8.375-12.654A7.333 7.333 0 0022 4c-3.86 0-6 2.786-6 2.786S13.86 4 10 4zm0 2.667c2.436 0 3.848 1.7 3.885 1.744L16 11.164l2.115-2.753c.013-.018 1.449-1.744 3.885-1.744a4.672 4.672 0 014.667 4.666c0 3.892-5.026 8.435-6.92 10.146-.236.213-.44.399-.606.555A233.673 233.673 0 0116 24.896c-.955-.856-2.14-1.929-3.14-2.862a60.994 60.994 0 00-.607-.555c-1.15-1.04-3.448-3.13-5.081-5.479h1.273l1.894-1.422 2.666 4L16.445 16h1.25A2.667 2.667 0 0020 17.333a2.666 2.666 0 10-2.307-4h-2.138l-1.893 1.422-2.667-4-3.44 2.578H5.729c-.245-.674-.396-1.346-.396-2A4.672 4.672 0 0110 6.667z" fill="#fff"/></svg><svg fill="none" viewBox="0 0 32 32" id="home" xmlns="http://www.w3.org/2000/svg"><path d="M16 2.8L1.333 16h4v12h9.334v-8h2.666v8h9.334V16h4L16 2.8zm0 3.588l8 7.2V25.334h-4v-8h-8v8H8V13.59l8-7.201z" fill="#fff"/></svg><svg fill="none" viewBox="0 0 253 43" id="logo" xmlns="http://www.w3.org/2000/svg"><path d="M67.621 14.184v9.457c0 2.543-1.558 4.757-4.113 4.757-2.707 0-4.125-2.378-4.125-4.746v-9.457H56.57v9.586c0 4.102 2.883 7.23 6.914 7.23 4.172 0 6.926-3.21 6.926-7.23v-9.586l-2.789-.011zm23.248.023v11.895L80.475 14.207h-1.489V31h2.801V19.105L92.182 31h1.488V14.207h-2.8zM102.68 31h2.801V14.195h-2.813L102.68 31zm23.541-16.816l-5.191 13.101-5.18-13.101h-3.035L119.6 31h2.871l6.773-16.816h-3.023zm10.217.011V31h11.472v-2.59h-8.671v-5.297h6.539v-2.59h-6.539V16.81h8.66v-2.602l-11.461-.012zm22.967 2.614h4.875c1.336 0 2.507.949 2.507 2.273 0 1.406-1.265 2.262-2.496 2.262h-4.886v-4.535zm11.039 14.203l-4.313-7.371c2.203-.703 3.387-2.38 3.387-4.547 0-2.918-2.215-4.864-4.922-4.864h-8.016v16.793h2.801v-7.125h3.739l4.16 7.125 3.164-.011zm18.502-16.828v9.457c0 2.543-1.559 4.757-4.113 4.757-2.708 0-4.125-2.378-4.125-4.746v-9.457h-2.813v9.586c0 4.102 2.883 7.23 6.914 7.23 4.172 0 6.926-3.21 6.926-7.23v-9.586l-2.789-.011zm27.432.011l-7.278 8.672-7.289-8.672h-1.5V31h2.695V19.129l6.094 7.16 6.094-7.148v11.87h2.531V14.208l-1.347-.012z" fill="var(--logo-text)"/><path d="M21.443 0a4.266 4.266 0 110 8.532 4.266 4.266 0 110-8.532z" fill="var(--logo-icon)"/><path d="M26.918 16.196a4.404 4.404 0 005.888-.256 4.3 4.3 0 000-6.128c-1.582-1.565-4.077-1.693-5.788-.342-2.153 1.55-3.722 1.707-5.532 1.735-1.426.028-4.32-.412-6.16-1.763-1.71-1.337-4.205-1.209-5.788.355a4.3 4.3 0 000 6.129 4.4 4.4 0 005.584.5l.028-.02c.072-.051.14-.098.205-.153 3.051-2.133 8.583-2.346 11.563-.057zM26.918 33.36a4.404 4.404 0 005.888-.257 4.3 4.3 0 000-6.128c-1.582-1.565-4.077-1.693-5.788-.342-2.153 1.55-3.722 1.707-5.532 1.735-1.426.029-4.32-.412-6.16-1.763-1.71-1.337-4.205-1.209-5.788.355a4.3 4.3 0 000 6.129 4.4 4.4 0 005.546.526l.066-.047c.073-.05.14-.097.205-.152 3.051-2.133 8.583-2.36 11.563-.057z" fill="var(--logo-icon)"/><path d="M35.928 18.116c1.711-1.351 4.206-1.223 5.789.341 1.71 1.692 1.71 4.436-.014 6.185a4.405 4.405 0 01-5.889.256c-2.98-2.303-8.511-2.09-11.548.029a3.069 3.069 0 01-.205.152l-.066.047a4.448 4.448 0 01-1.469.626 4.4 4.4 0 01-3.863-.882c-2.98-2.303-8.512-2.09-11.549.028a3.08 3.08 0 01-.204.153c-.022.015-.044.03-.066.047a4.4 4.4 0 01-5.547-.527 4.3 4.3 0 010-6.128c1.583-1.564 4.078-1.692 5.789-.356 1.84 1.351 4.733 1.792 6.16 1.764 1.81-.029 3.378-.185 5.53-1.735a4.393 4.393 0 011.64-.797 4.41 4.41 0 013.821.768c1.84 1.351 4.734 1.792 6.16 1.764 1.81-.029 3.379-.185 5.531-1.735zM25.72 38.734c0-2.36-1.91-4.266-4.277-4.266a4.275 4.275 0 00-4.277 4.266c0 2.36 1.91 4.266 4.277 4.266a4.266 4.266 0 004.277-4.266z" fill="var(--logo-icon)"/></svg><svg fill="none" viewBox="0 0 24 24" id="message" xmlns="http://www.w3.org/2000/svg"><path d="M4 4a2 2 0 00-2 2v12a2 2 0 002 2h8.172l1.414-1.414.586-.586H4V9.002L12 14l8-4.998v3.17l2-2V6a2 2 0 00-2-2H4zm0 2h16v1.002L12 12 4 7.002V6zm18.207 7a.499.499 0 00-.354.146l-1 1 2 2 1-1a.5.5 0 000-.707l-1.293-1.293a.5.5 0 00-.353-.146zm-2.06 1.854L15 20v2h2l5.146-5.146-2-2z" fill="#fff"/></svg><svg fill="none" viewBox="0 0 36 56" id="mouse" xmlns="http://www.w3.org/2000/svg"><rect x="1" y="1" width="34" height="54" rx="17" stroke="var(--fill)" stroke-width="2"/><rect x="13.5" y="8.5" width="9" height="18" rx="4.5" stroke="var(--fill)"/><rect x="16" y="12" width="4" height="7" rx="2" fill="var(--fill)"/></svg><svg fill="none" viewBox="0 0 16 27" id="mouse-arrow" xmlns="http://www.w3.org/2000/svg"><path d="M7.293 26.707a1 1 0 001.414 0l6.364-6.364a1 1 0 00-1.414-1.414L8 24.586l-5.657-5.657A1 1 0 00.93 20.343l6.364 6.364zM7 0v26h2V0H7z" fill="var(--fill)"/></svg><svg fill="none" viewBox="0 0 13 15" id="poligon" xmlns="http://www.w3.org/2000/svg"><path d="M13 7.5L.25 14.861V.14L13 7.5z" fill="#00F"/></svg><svg fill="none" viewBox="0 0 32 32" id="settings" xmlns="http://www.w3.org/2000/svg"><path d="M12.888 2.667l-.654 3.364a10.602 10.602 0 00-2.992 1.722L6.01 6.638l-3.114 5.39 2.588 2.25c-.1.612-.15 1.178-.15 1.722 0 .545.052 1.11.15 1.721v.003l-2.588 2.25 3.114 5.388 3.23-1.112a10.6 10.6 0 002.994 1.719l.654 3.364h6.224l.654-3.364c1.1-.415 2.107-.995 2.992-1.722l3.232 1.115 3.112-5.388-2.586-2.253c.1-.61.15-1.177.15-1.721 0-.543-.051-1.109-.15-1.719v-.002l2.588-2.253-3.114-5.388-3.23 1.112a10.603 10.603 0 00-2.994-1.719l-.654-3.364h-6.224zm2.198 2.666h1.828L17.432 8l1.39.526c.84.316 1.592.75 2.246 1.286l1.15.943 2.563-.88.914 1.58-2.047 1.782.235 1.466v.003c.081.5.117.919.117 1.294s-.036.794-.117 1.294l-.237 1.466 2.047 1.782-.914 1.583-2.56-.883-1.154.945a7.908 7.908 0 01-2.242 1.287h-.003L17.43 24l-.519 2.667h-1.825L14.568 24l-1.39-.526a7.92 7.92 0 01-2.246-1.287l-1.15-.942-2.563.88-.914-1.58 2.05-1.785-.238-1.46v-.003A8.21 8.21 0 018 16c0-.375.036-.794.117-1.294l.237-1.466-2.05-1.782.915-1.583 2.562.883 1.151-.946a7.92 7.92 0 012.245-1.286L14.567 8l.519-2.667zM16 10.667c-2.929 0-5.333 2.404-5.333 5.333 0 2.929 2.404 5.333 5.333 5.333 2.929 0 5.333-2.404 5.333-5.333 0-2.929-2.404-5.333-5.333-5.333zm0 2.666A2.655 2.655 0 0118.667 16 2.655 2.655 0 0116 18.667 2.655 2.655 0 0113.333 16 2.655 2.655 0 0116 13.333z" fill="#fff"/></svg><svg fill="none" viewBox="0 0 32 32" id="signal" xmlns="http://www.w3.org/2000/svg"><path d="M18.667 2.667v2.666c4.412 0 8 3.588 8 8h2.666c0-5.881-4.785-10.666-10.666-10.666zM8.89 5.157L7.716 6.33A12.609 12.609 0 004 15.307c0 3.39 1.32 6.58 3.719 8.977A12.603 12.603 0 0016.693 28c3.39 0 6.579-1.32 8.976-3.719l1.203-1.203-1.458-.88a44.17 44.17 0 01-6.906-5.185c.24-.086.478-.229.71-.461a2.666 2.666 0 10-3.77-3.77 1.91 1.91 0 00-.453.692 54.026 54.026 0 01-5.211-6.917l-.893-1.4zM18.667 8v2.667a2.67 2.67 0 012.666 2.666H24A5.339 5.339 0 0018.667 8zM8.523 9.492c3.93 5.779 8.615 10.479 13.959 14.005a9.957 9.957 0 01-5.79 1.836 9.965 9.965 0 01-7.09-2.935C6.094 18.89 5.734 13.406 8.523 9.492z" fill="#fff"/></svg></svg>