<svg width="253" height="43" fill="none" xmlns="http://www.w3.org/2000/svg"><path d="M67.621 14.184v9.457c0 2.543-1.558 4.757-4.113 4.757-2.707 0-4.125-2.378-4.125-4.746v-9.457H56.57v9.586c0 4.102 2.883 7.23 6.914 7.23 4.172 0 6.926-3.21 6.926-7.23v-9.586l-2.789-.011zm23.248.023v11.895L80.475 14.207h-1.489V31h2.801V19.105L92.182 31h1.488V14.207h-2.8zM102.68 31h2.801V14.195h-2.813L102.68 31zm23.541-16.816l-5.191 13.101-5.18-13.101h-3.035L119.6 31h2.871l6.773-16.816h-3.023zm10.217.011V31h11.472v-2.59h-8.671v-5.297h6.539v-2.59h-6.539V16.81h8.66v-2.602l-11.461-.012zm22.967 2.614h4.875c1.336 0 2.507.949 2.507 2.273 0 1.406-1.265 2.262-2.496 2.262h-4.886v-4.535zm11.039 14.203l-4.313-7.371c2.203-.703 3.387-2.38 3.387-4.547 0-2.918-2.215-4.864-4.922-4.864h-8.016v16.793h2.801v-7.125h3.739l4.16 7.125 3.164-.011zm18.502-16.828v9.457c0 2.543-1.559 4.757-4.113 4.757-2.708 0-4.125-2.378-4.125-4.746v-9.457h-2.813v9.586c0 4.102 2.883 7.23 6.914 7.23 4.172 0 6.926-3.21 6.926-7.23v-9.586l-2.789-.011zm27.432.011l-7.278 8.672-7.289-8.672h-1.5V31h2.695V19.129l6.094 7.16 6.094-7.148v11.87h2.531V14.208l-1.347-.012z" fill="var(--logo-text)"/><path d="M21.443 0a4.266 4.266 0 110 8.532 4.266 4.266 0 110-8.532z" fill="var(--logo-icon)"/><path d="M26.918 16.196a4.404 4.404 0 005.888-.256 4.3 4.3 0 000-6.128c-1.582-1.565-4.077-1.693-5.788-.342-2.153 1.55-3.722 1.707-5.532 1.735-1.426.028-4.32-.412-6.16-1.763-1.71-1.337-4.205-1.209-5.788.355a4.3 4.3 0 000 6.129 4.4 4.4 0 005.584.5l.028-.02c.072-.051.14-.098.205-.153 3.051-2.133 8.583-2.346 11.563-.057zm0 17.164a4.404 4.404 0 005.888-.257 4.3 4.3 0 000-6.128c-1.582-1.565-4.077-1.693-5.788-.342-2.153 1.55-3.722 1.707-5.532 1.735-1.426.029-4.32-.412-6.16-1.763-1.71-1.337-4.205-1.209-5.788.355a4.3 4.3 0 000 6.129 4.4 4.4 0 005.546.526l.066-.047c.073-.05.14-.097.205-.152 3.051-2.133 8.583-2.36 11.563-.057z" fill="var(--logo-icon)"/><path d="M35.928 18.116c1.711-1.351 4.206-1.223 5.789.341 1.71 1.692 1.71 4.436-.014 6.185a4.405 4.405 0 01-5.889.256c-2.98-2.303-8.511-2.09-11.548.029a3.069 3.069 0 01-.205.152l-.066.047a4.448 4.448 0 01-1.469.626 4.4 4.4 0 01-3.863-.882c-2.98-2.303-8.512-2.09-11.549.028a3.08 3.08 0 01-.204.153c-.022.015-.044.03-.066.047a4.4 4.4 0 01-5.547-.527 4.3 4.3 0 010-6.128c1.583-1.564 4.078-1.692 5.789-.356 1.84 1.351 4.733 1.792 6.16 1.764 1.81-.029 3.378-.185 5.53-1.735a4.393 4.393 0 011.64-.797 4.41 4.41 0 013.821.768c1.84 1.351 4.734 1.792 6.16 1.764 1.81-.029 3.379-.185 5.531-1.735zM25.72 38.734c0-2.36-1.91-4.266-4.277-4.266a4.275 4.275 0 00-4.277 4.266c0 2.36 1.91 4.266 4.277 4.266a4.266 4.266 0 004.277-4.266z" fill="var(--logo-icon)"/></svg>