<svg width="32" height="32" viewBox="0 0 32 32" fill="none" xmlns="http://www.w3.org/2000/svg">
<path d="M7.99998 2.66663C6.54097 2.66663 5.33331 3.87429 5.33331 5.33329V26.6666C5.33331 28.1256 6.54097 29.3333 7.99998 29.3333H24C25.459 29.3333 26.6666 28.1256 26.6666 26.6666V10.6666L18.6666 2.66663H7.99998ZM7.99998 5.33329H17.3333V12H24V26.6666H7.99998V5.33329ZM10.6666 14.6666V17.3333H13.3333V14.6666H10.6666ZM16 14.6666V17.3333H21.3333V14.6666H16ZM10.6666 20V22.6666H13.3333V20H10.6666ZM16 20V22.6666H21.3333V20H16Z" fill="white"/>
</svg>
