<svg width="32" height="32" viewBox="0 0 32 32" fill="none" xmlns="http://www.w3.org/2000/svg">
<path d="M6.66667 1.33333C5.2 1.33333 4 2.53333 4 3.99999V22.6667H6.66667V3.99999H22.6667V1.33333H6.66667ZM12 6.66666C10.5333 6.66666 9.33333 7.86666 9.33333 9.33333V28C9.33333 29.4667 10.5333 30.6667 12 30.6667H26.6667C28.1333 30.6667 29.3333 29.4667 29.3333 28V9.33333C29.3333 7.85999 28.14 6.66666 26.6667 6.66666H12ZM12 9.33333H26.6667V28H12V9.33333ZM14.6667 12V14.6667H24V12H14.6667ZM14.6667 17.3333V20H24V17.3333H14.6667ZM14.6667 22.6667V25.3333H24V22.6667H14.6667Z" fill="white"/>
</svg>
