<svg width="32" height="32" viewBox="0 0 32 32" fill="none" xmlns="http://www.w3.org/2000/svg">
<path d="M16 2.66666C8.652 2.66666 2.66667 8.65199 2.66667 16C2.66667 23.348 8.652 29.3333 16 29.3333C23.348 29.3333 29.3333 23.348 29.3333 16C29.3333 8.65199 23.348 2.66666 16 2.66666ZM16 5.33333C16.3311 5.33333 16.6939 5.46885 17.1563 5.90885C17.6186 6.34886 18.1206 7.08651 18.5521 8.05729C18.8805 8.79629 19.1492 9.69823 19.3802 10.6667H12.6198C12.8508 9.69823 13.1195 8.79629 13.4479 8.05729C13.8794 7.08651 14.3814 6.34886 14.8438 5.90885C15.3061 5.46885 15.669 5.33333 16 5.33333ZM11.2682 6.44531C11.1814 6.61985 11.0918 6.79087 11.0104 6.97396C10.5281 8.0591 10.1538 9.31494 9.8724 10.6667H6.76303C7.81161 8.84956 9.37984 7.37915 11.2682 6.44531ZM20.7318 6.44531C22.6202 7.37915 24.1884 8.84956 25.237 10.6667H22.1276C21.8462 9.31494 21.4719 8.0591 20.9896 6.97396C20.9082 6.79087 20.8186 6.61985 20.7318 6.44531ZM5.6823 13.3333H9.46355C9.3817 14.1958 9.33334 15.0848 9.33334 16C9.33334 16.9152 9.3817 17.8042 9.46355 18.6667H5.6823C5.46341 17.813 5.33334 16.9235 5.33334 16C5.33334 15.0765 5.46341 14.1869 5.6823 13.3333ZM12.1563 13.3333H19.8438C19.9366 14.1901 20 15.0755 20 16C20 16.9245 19.9366 17.8099 19.8438 18.6667H12.1563C12.0634 17.8099 12 16.9245 12 16C12 15.0755 12.0634 14.1901 12.1563 13.3333ZM22.5365 13.3333H26.3177C26.5366 14.1869 26.6667 15.0765 26.6667 16C26.6667 16.9235 26.5366 17.813 26.3177 18.6667H22.5365C22.6183 17.8042 22.6667 16.9152 22.6667 16C22.6667 15.0848 22.6183 14.1958 22.5365 13.3333ZM6.76303 21.3333H9.8724C10.1538 22.6851 10.5281 23.9409 11.0104 25.026C11.0918 25.2091 11.1814 25.3801 11.2682 25.5547C9.37984 24.6208 7.81161 23.1504 6.76303 21.3333ZM12.6198 21.3333H19.3802C19.1492 22.3018 18.8805 23.2037 18.5521 23.9427C18.1206 24.9135 17.6186 25.6511 17.1563 26.0911C16.6939 26.5311 16.3311 26.6667 16 26.6667C15.669 26.6667 15.3061 26.5311 14.8438 26.0911C14.3814 25.6511 13.8794 24.9135 13.4479 23.9427C13.1195 23.2037 12.8508 22.3018 12.6198 21.3333ZM22.1276 21.3333H25.237C24.1884 23.1504 22.6202 24.6208 20.7318 25.5547C20.8186 25.3801 20.9082 25.2091 20.9896 25.026C21.4719 23.9409 21.8462 22.6851 22.1276 21.3333Z" fill="white"/>
</svg>
