<svg width="32" height="32" viewBox="0 0 32 32" fill="none" xmlns="http://www.w3.org/2000/svg">
<path d="M20 2.66667V8V10.6667V13.3333H17.3333L16 9.33333L10.6667 13.3333L9.33333 9.33333L4 13.3333V28H28V2.66667H20ZM22.6667 5.33333H25.3333V8H22.6667V5.33333ZM22.6667 10.6667H25.3333V25.3333H22.6667V24H20V25.3333H17.3333V24H14.6667V25.3333H12V24H9.33333V25.3333H6.66667V14.6667L7.97396 13.6875L8.13802 14.1771L9.30729 17.6875L12.2656 15.4661L14.6406 13.6875L14.8047 14.1771L15.4115 16H17.3333H20H22.6667V13.3333V10.6667ZM9.33333 18.6667V21.3333H12V18.6667H9.33333ZM14.6667 18.6667V21.3333H17.3333V18.6667H14.6667ZM20 18.6667V21.3333H22.6667V18.6667H20Z" fill="white"/>
</svg>
