<svg width="32" height="32" viewBox="0 0 32 32" fill="none" xmlns="http://www.w3.org/2000/svg">
<path d="M13.3333 4C12.9797 4.00004 12.6406 4.14052 12.3906 4.39056C12.1405 4.6406 12 4.97972 12 5.33333V10.6667C12 11.0203 12.1405 11.3594 12.3906 11.6094C12.6406 11.8595 12.9797 12 13.3333 12H14.6667V14.6667H8C7.64639 14.6667 7.30727 14.8072 7.05723 15.0572C6.80719 15.3073 6.6667 15.6464 6.66667 16V20H5.33333C4.97972 20 4.6406 20.1405 4.39056 20.3906C4.14052 20.6406 4.00004 20.9797 4 21.3333V26.6667C4.00004 27.0203 4.14052 27.3594 4.39056 27.6094C4.6406 27.8595 4.97972 28 5.33333 28H10.6667C11.0203 28 11.3594 27.8595 11.6094 27.6094C11.8595 27.3594 12 27.0203 12 26.6667V21.3333C12 20.9797 11.8595 20.6406 11.6094 20.3906C11.3594 20.1405 11.0203 20 10.6667 20H9.33333V17.3333H15.776C15.92 17.3571 16.0669 17.3571 16.2109 17.3333H22.6667V20H21.3333C20.9797 20 20.6406 20.1405 20.3906 20.3906C20.1405 20.6406 20 20.9797 20 21.3333V26.6667C20 27.0203 20.1405 27.3594 20.3906 27.6094C20.6406 27.8595 20.9797 28 21.3333 28H26.6667C27.0203 28 27.3594 27.8595 27.6094 27.6094C27.8595 27.3594 28 27.0203 28 26.6667V21.3333C28 20.9797 27.8595 20.6406 27.6094 20.3906C27.3594 20.1405 27.0203 20 26.6667 20H25.3333V16C25.3333 15.6464 25.1928 15.3073 24.9428 15.0572C24.6927 14.8072 24.3536 14.6667 24 14.6667H17.3333V12H18.6667C19.0203 12 19.3594 11.8595 19.6094 11.6094C19.8595 11.3594 20 11.0203 20 10.6667V5.33333C20 4.97972 19.8595 4.6406 19.6094 4.39056C19.3594 4.14052 19.0203 4.00004 18.6667 4H13.3333ZM14.6667 6.66667H17.3333V9.33333H16.2057C16.1309 9.32082 16.0551 9.31472 15.9792 9.3151C15.9146 9.3165 15.8502 9.3226 15.7865 9.33333H14.6667V6.66667ZM6.66667 22.6667H9.33333V25.3333H6.66667V22.6667ZM22.6667 22.6667H25.3333V25.3333H22.6667V22.6667Z" fill="white"/>
</svg>
