<svg width="32" height="32" viewBox="0 0 32 32" fill="none" xmlns="http://www.w3.org/2000/svg">
<path d="M17.3336 0.71875L15.5159 1.42448L2.66692 6.42188V14.6667C2.66692 16.6889 3.40697 19.674 5.38046 22.724C7.35395 25.7739 10.6054 28.8218 15.5523 30.5885L17.3336 31.2266V22.6667H21.3336V24.3594C20.9281 24.5935 20.5914 24.9302 20.3574 25.3357C20.1233 25.7412 20.0002 26.2011 20.0003 26.6693C20.0003 27.1375 20.1237 27.5974 20.3579 28.0028C20.5921 28.4082 20.9289 28.7448 21.3345 28.9787C21.7401 29.2126 22.2 29.3357 22.6682 29.3354C23.1364 29.3352 23.5963 29.2117 24.0016 28.9774C24.4069 28.7431 24.7434 28.4061 24.9772 28.0005C25.2111 27.5949 25.334 27.1349 25.3336 26.6667C25.3328 26.1994 25.2091 25.7405 24.9751 25.336C24.7411 24.9315 24.4049 24.5956 24.0002 24.362V21.3333C24.0002 20.9797 23.8597 20.6406 23.6097 20.3906C23.3596 20.1405 23.0205 20 22.6669 20H17.3336V17.3333H25.6904C25.9838 17.842 26.4368 18.2395 26.9793 18.4643C27.5217 18.6891 28.1232 18.7286 28.6904 18.5767C29.2575 18.4247 29.7587 18.0898 30.1161 17.6239C30.4735 17.158 30.6671 16.5872 30.6669 16C30.6669 15.2928 30.386 14.6145 29.8859 14.1144C29.3858 13.6143 28.7075 13.3333 28.0002 13.3333C27.533 13.3342 27.0741 13.4578 26.6696 13.6918C26.2651 13.9258 25.9292 14.262 25.6956 14.6667H17.3336V12H22.6669C23.0205 12 23.3596 11.8595 23.6097 11.6094C23.8597 11.3594 24.0002 11.0203 24.0002 10.6667V7.63802C24.4049 7.40437 24.7411 7.06848 24.9751 6.66399C25.2091 6.25951 25.3328 5.80063 25.3336 5.33333C25.3336 4.62609 25.0526 3.94781 24.5525 3.44772C24.0524 2.94762 23.3742 2.66667 22.6669 2.66667C22.0806 2.66747 21.5108 2.8615 21.0459 3.21874C20.5809 3.57599 20.2466 4.07652 20.0948 4.64287C19.943 5.20923 19.9821 5.80984 20.206 6.35175C20.43 6.89365 20.8263 7.34665 21.3336 7.64063V9.33333H17.3336V0.71875ZM14.6669 4.61458V10.4427C14.6431 10.5867 14.6431 10.7336 14.6669 10.8776V21.1094C14.6431 21.2534 14.6431 21.4003 14.6669 21.5443V27.0911C11.4367 25.5168 9.03527 23.4632 7.62004 21.276C5.92686 18.6593 5.33358 15.9778 5.33358 14.6667V8.24479L14.6669 4.61458Z" fill="white"/>
</svg>
