<svg width="32" height="32" viewBox="0 0 32 32" fill="none" xmlns="http://www.w3.org/2000/svg">
<path d="M25.3333 3.99999H19.7547C19.204 2.44933 17.7387 1.33333 16 1.33333C14.2613 1.33333 12.796 2.44933 12.2453 3.99999H6.66667C5.19333 3.99999 4 5.19333 4 6.66666V25.3333C4 26.8067 5.19333 28 6.66667 28H25.3333C26.8067 28 28 26.8067 28 25.3333V6.66666C28 5.19333 26.8067 3.99999 25.3333 3.99999ZM16 3.99999C16.736 3.99999 17.3333 4.59733 17.3333 5.33333C17.3333 6.06933 16.736 6.66666 16 6.66666C15.264 6.66666 14.6667 6.06933 14.6667 5.33333C14.6667 4.59733 15.264 3.99999 16 3.99999ZM14.6667 21.8853L9.63733 16.856L11.5227 14.9707L14.6667 18.1147L21.056 11.7253L22.9413 13.6107L14.6667 21.8853ZM25.3333 25.3333H6.66667V6.66666H25.3333V25.3333Z" fill="white"/>
</svg>
