<svg width="32" height="32" viewBox="0 0 32 32" fill="none" xmlns="http://www.w3.org/2000/svg">
<path d="M9.33357 1.33334V4.00001H12.0002V1.33334H9.33357ZM14.6669 1.33334V4.00001H17.3336V1.33334H14.6669ZM20.0002 1.33334V4.00001H22.6669V1.33334H20.0002ZM9.33357 6.66668C7.87615 6.66668 6.66691 7.87593 6.66691 9.33334V22.6667C6.66691 24.1241 7.87615 25.3333 9.33357 25.3333H22.6669C24.1243 25.3333 25.3336 24.1241 25.3336 22.6667V9.33334C25.3336 7.87593 24.1243 6.66668 22.6669 6.66668H9.33357ZM1.33357 9.33334V12H4.00024V9.33334H1.33357ZM9.33357 9.33334H22.6669V22.6667H9.33357V9.33334ZM28.0002 9.33334V12H30.6669V9.33334H28.0002ZM12.0002 12V13.3333V20H20.0002V12H12.0002ZM1.33357 14.6667V17.3333H4.00024V14.6667H1.33357ZM14.6669 14.6667H17.3336V17.3333H14.6669V14.6667ZM28.0002 14.6667V17.3333H30.6669V14.6667H28.0002ZM1.33357 20V22.6667H4.00024V20H1.33357ZM28.0002 20V22.6667H30.6669V20H28.0002ZM9.33357 28V30.6667H12.0002V28H9.33357ZM14.6669 28V30.6667H17.3336V28H14.6669ZM20.0002 28V30.6667H22.6669V28H20.0002Z" fill="white"/>
</svg>
