<svg width="32" height="32" viewBox="0 0 32 32" fill="none" xmlns="http://www.w3.org/2000/svg">
<path d="M17.3334 0.71875L15.5156 1.42448L2.66669 6.42188V14.6667C2.66669 16.6889 3.40674 19.674 5.38023 22.724C7.35372 25.7739 10.6051 28.8218 15.5521 30.5885L17.3334 31.2266V22.6667H21.3334V24.3594C20.9279 24.5935 20.5912 24.9302 20.3572 25.3357C20.1231 25.7412 19.9999 26.2011 20 26.6693C20.0001 27.1375 20.1235 27.5974 20.3577 28.0028C20.5919 28.4082 20.9287 28.7448 21.3343 28.9787C21.7398 29.2126 22.1998 29.3357 22.668 29.3354C23.1362 29.3352 23.5961 29.2117 24.0014 28.9774C24.4067 28.7431 24.7432 28.4061 24.977 28.0005C25.2108 27.5949 25.3337 27.1349 25.3334 26.6667C25.3325 26.1994 25.2089 25.7405 24.9749 25.336C24.7409 24.9315 24.4047 24.5956 24 24.362V21.3333C24 20.9797 23.8595 20.6406 23.6095 20.3906C23.3594 20.1405 23.0203 20 22.6667 20H17.3334V17.3333H25.6901C25.9835 17.842 26.4366 18.2395 26.979 18.4643C27.5215 18.6891 28.123 18.7286 28.6901 18.5767C29.2573 18.4247 29.7585 18.0898 30.1159 17.6239C30.4733 17.158 30.6669 16.5872 30.6667 16C30.6667 15.2928 30.3857 14.6145 29.8856 14.1144C29.3855 13.6143 28.7073 13.3333 28 13.3333C27.5327 13.3342 27.0738 13.4578 26.6694 13.6918C26.2649 13.9258 25.929 14.262 25.6953 14.6667H17.3334V12H22.6667C23.0203 12 23.3594 11.8595 23.6095 11.6094C23.8595 11.3594 24 11.0203 24 10.6667V7.63802C24.4047 7.40437 24.7409 7.06848 24.9749 6.66399C25.2089 6.25951 25.3325 5.80063 25.3334 5.33333C25.3334 4.62609 25.0524 3.94781 24.5523 3.44772C24.0522 2.94762 23.3739 2.66667 22.6667 2.66667C22.0803 2.66747 21.5106 2.8615 21.0456 3.21874C20.5807 3.57599 20.2464 4.07652 20.0946 4.64287C19.9428 5.20923 19.9819 5.80984 20.2058 6.35175C20.4297 6.89365 20.826 7.34665 21.3334 7.64062V9.33333H17.3334V0.71875ZM14.6667 4.61458V10.4427C14.6429 10.5867 14.6429 10.7336 14.6667 10.8776V21.1094C14.6429 21.2534 14.6429 21.4003 14.6667 21.5443V27.0911C11.4365 25.5168 9.03504 23.4632 7.61981 21.276C5.92663 18.6593 5.33335 15.9778 5.33335 14.6667V8.24479L14.6667 4.61458Z" fill="white"/>
</svg>
