<svg width="24" height="24" viewBox="0 0 24 24" fill="none" xmlns="http://www.w3.org/2000/svg">
<path d="M3.66667 0C3.43375 0.000124528 3.20493 0.0612554 3.00298 0.177307C2.80103 0.293358 2.63301 0.460281 2.51562 0.661458L0.182292 4.66146C0.0631072 4.86532 0.000199469 5.09718 0 5.33333V21.3333C0 22.7908 1.20925 24 2.66667 24H21.3333C22.7908 24 24 22.7908 24 21.3333V5.33333C23.9998 5.09718 23.9369 4.86532 23.8177 4.66146L21.4844 0.661458C21.367 0.460281 21.199 0.293358 20.997 0.177307C20.7951 0.0612554 20.5663 0.000124574 20.3333 0H3.66667ZM4.43229 2.66667H19.5677L21.1224 5.33333H2.8776L4.43229 2.66667ZM2.66667 8H21.3333V21.3333H2.66667V8ZM10.6667 10.6667V14.6667H6.66667L12 20L17.3333 14.6667H13.3333V10.6667H10.6667Z" fill="white"/>
</svg>
