<svg width="32" height="32" viewBox="0 0 32 32" fill="none" xmlns="http://www.w3.org/2000/svg">
<path d="M9.33331 1.33337V4.00004H12V1.33337H9.33331ZM14.6666 1.33337V4.00004H17.3333V1.33337H14.6666ZM20 1.33337V4.00004H22.6666V1.33337H20ZM9.33331 6.66671C7.8759 6.66671 6.66665 7.87596 6.66665 9.33337V22.6667C6.66665 24.1241 7.8759 25.3334 9.33331 25.3334H22.6666C24.1241 25.3334 25.3333 24.1241 25.3333 22.6667V9.33337C25.3333 7.87596 24.1241 6.66671 22.6666 6.66671H9.33331ZM1.33331 9.33337V12H3.99998V9.33337H1.33331ZM9.33331 9.33337H22.6666V22.6667H9.33331V9.33337ZM28 9.33337V12H30.6666V9.33337H28ZM12 12V13.3334V20H20V12H12ZM1.33331 14.6667V17.3334H3.99998V14.6667H1.33331ZM14.6666 14.6667H17.3333V17.3334H14.6666V14.6667ZM28 14.6667V17.3334H30.6666V14.6667H28ZM1.33331 20V22.6667H3.99998V20H1.33331ZM28 20V22.6667H30.6666V20H28ZM9.33331 28V30.6667H12V28H9.33331ZM14.6666 28V30.6667H17.3333V28H14.6666ZM20 28V30.6667H22.6666V28H20Z" fill="white"/>
</svg>
