<svg width="32" height="32" viewBox="0 0 32 32" fill="none" xmlns="http://www.w3.org/2000/svg">
<path d="M10 4C5.94935 4 2.66669 7.28267 2.66669 11.3333C2.66669 16.8947 9.21635 22.2843 11.0417 23.987C13.1444 25.947 16 28.4661 16 28.4661C16 28.4661 18.8557 25.947 20.9584 23.987C22.7837 22.2843 29.3334 16.8947 29.3334 11.3333C29.3334 7.28267 26.0507 4 22 4C18.14 4 16 6.78646 16 6.78646C16 6.78646 13.86 4 10 4ZM10 6.66667C12.436 6.66667 13.8481 8.36746 13.8854 8.41146L16 11.1641L18.1146 8.41146C18.1279 8.39279 19.564 6.66667 22 6.66667C24.5734 6.66667 26.6667 8.76 26.6667 11.3333C26.6667 15.2253 21.6408 19.7685 19.7474 21.4792C19.5114 21.6925 19.3073 21.8779 19.1406 22.0339C18.1393 22.9672 16.9547 24.0398 16 24.8958C15.0454 24.0398 13.8594 22.9672 12.8594 22.0339C12.6914 21.8779 12.4873 21.6912 12.2526 21.4792C11.1023 20.4398 8.80501 18.3494 7.1719 16H8.44533L10.3386 14.5781L13.0052 18.5781L16.4453 16H17.6953C17.929 16.4047 18.2649 16.7409 18.6694 16.9749C19.0738 17.2089 19.5327 17.3325 20 17.3333C20.7073 17.3333 21.3855 17.0524 21.8856 16.5523C22.3857 16.0522 22.6667 15.3739 22.6667 14.6667C22.6667 13.9594 22.3857 13.2811 21.8856 12.781C21.3855 12.281 20.7073 12 20 12C19.5323 12.0004 19.0729 12.1238 18.6679 12.3578C18.2629 12.5918 17.9266 12.9283 17.6927 13.3333H15.5547L13.6615 14.7552L10.9948 10.7552L7.55471 13.3333H5.72919C5.48429 12.6593 5.33335 11.9871 5.33335 11.3333C5.33335 8.76 7.42669 6.66667 10 6.66667Z" fill="white"/>
</svg>
