<svg width="32" height="32" viewBox="0 0 32 32" fill="none" xmlns="http://www.w3.org/2000/svg">
<g clip-path="url(#clip0)">
<path d="M16.0002 2.79944L1.33356 16H5.33356V28H14.995L12.3726 25.3333H8.00022V13.5859L16.0002 6.38798L26.719 16H30.6669L16.0002 2.79944ZM22.6669 18.6666C19.0269 18.6666 15.7336 20.1191 13.3336 22.4791V22.5078L15.2007 24.401C17.1207 22.5077 19.7602 21.3333 22.6669 21.3333C25.5736 21.3333 28.213 22.5077 30.133 24.401L32.0002 22.5078L32.0132 22.4921C29.6132 20.1321 26.3069 18.6666 22.6669 18.6666ZM22.6669 24C20.4802 24 18.5079 24.8673 17.0679 26.3073L18.9325 28.2005C19.9058 27.2538 21.2136 26.6666 22.6669 26.6666C24.1202 26.6666 25.4279 27.2538 26.4013 28.2005L28.2658 26.3073C26.8258 24.8673 24.8536 24 22.6669 24ZM22.6669 29.3333C21.9336 29.3333 21.2797 29.6267 20.7997 30.1067L22.6669 32L24.5341 30.1067C24.0541 29.6267 23.4002 29.3333 22.6669 29.3333Z" fill="white"/>
</g>
<defs>
<clipPath id="clip0">
<rect width="32" height="32" fill="white" transform="translate(0.000244141)"/>
</clipPath>
</defs>
</svg>
