<svg width="40" height="40" viewBox="0 0 40 40" fill="none" xmlns="http://www.w3.org/2000/svg">
<path d="M26.6439 5L23.3073 8.33659C22.0869 8.34621 21.0351 9.0145 20.4622 10H13.0436C12.3787 8.03173 10.574 6.66667 8.33331 6.66667C5.49998 6.66667 3.33331 8.83333 3.33331 11.6667C3.33331 14.1215 4.96223 16.0711 7.23956 16.5495L10.9375 25H8.33331C6.49998 25 4.99998 26.5 4.99998 28.3333V35H33.3333V28.3333C33.3333 26.5 31.8333 25 30 25H15.9375L11.7252 15.3678C12.3237 14.8216 12.7749 14.1289 13.0436 13.3333H20.4622C21.0351 14.3188 22.0869 14.9871 23.3073 14.9967L26.6439 18.3333H35V15H28.0241L24.6907 11.6667L28.0241 8.33333H35V5H26.6439ZM8.33331 10C9.32998 10 9.99998 10.67 9.99998 11.6667C9.99998 12.6633 9.32998 13.3333 8.33331 13.3333C7.33665 13.3333 6.66665 12.6633 6.66665 11.6667C6.66665 10.67 7.33665 10 8.33331 10ZM8.33331 28.3333H30V31.6667H8.33331V28.3333Z" fill="#0000FF"/>
</svg>
