<svg width="40" height="40" viewBox="0 0 40 40" fill="none" xmlns="http://www.w3.org/2000/svg">
<path d="M12.5 5C7.43666 5 3.33333 9.10333 3.33333 14.1667C3.33333 21.1183 11.5204 27.8554 13.8021 29.9837C16.4304 32.4337 20 35.5827 20 35.5827C20 35.5827 23.5696 32.4337 26.1979 29.9837C28.4796 27.8554 36.6667 21.1183 36.6667 14.1667C36.6667 9.10333 32.5633 5 27.5 5C22.675 5 20 8.48307 20 8.48307C20 8.48307 17.325 5 12.5 5ZM12.5 8.33333C15.545 8.33333 17.3101 10.4593 17.3568 10.5143L20 13.9551L22.6432 10.5143C22.6599 10.491 24.455 8.33333 27.5 8.33333C30.7167 8.33333 33.3333 10.95 33.3333 14.1667C33.3333 19.0317 27.0509 24.7106 24.6842 26.849C24.3892 27.1156 24.1341 27.3473 23.9258 27.5423C22.6741 28.709 21.1933 30.0498 20 31.1198C18.8067 30.0498 17.3242 28.709 16.0742 27.5423C15.8642 27.3473 15.6091 27.114 15.3158 26.849C13.8779 25.5498 11.0062 22.9368 8.96484 20H10.5566L12.9232 18.2227L16.2565 23.2227L20.5566 20H22.1191C22.4112 20.5059 22.8311 20.9261 23.3367 21.2186C23.8423 21.5111 24.4159 21.6656 25 21.6667C25.8841 21.6667 26.7319 21.3155 27.357 20.6904C27.9821 20.0652 28.3333 19.2174 28.3333 18.3333C28.3333 17.4493 27.9821 16.6014 27.357 15.9763C26.7319 15.3512 25.8841 15 25 15C24.4153 15.0005 23.8411 15.1547 23.3348 15.4472C22.8286 15.7398 22.4082 16.1603 22.1159 16.6667H19.4434L17.0768 18.444L13.7435 13.444L9.44335 16.6667H7.16145C6.85533 15.8242 6.66666 14.9838 6.66666 14.1667C6.66666 10.95 9.28333 8.33333 12.5 8.33333Z" fill="#0000FF"/>
</svg>
