<svg width="40" height="40" viewBox="0 0 40 40" fill="none" xmlns="http://www.w3.org/2000/svg">
<path d="M21.6667 0.898438L19.3945 1.7806L3.33333 8.02734V18.3333C3.33333 20.8611 4.25839 24.5925 6.72526 28.4049C9.19212 32.2174 13.2564 36.0272 19.4401 38.2357L21.6667 39.0332V28.3333H26.6667V30.4492C26.1598 30.7418 25.739 31.1627 25.4464 31.6696C25.1538 32.1764 24.9999 32.7514 25 33.3366C25.0001 33.9219 25.1543 34.4968 25.4471 35.0035C25.7398 35.5102 26.1609 35.931 26.6678 36.2234C27.1747 36.5158 27.7497 36.6696 28.335 36.6693C28.9202 36.669 29.4951 36.5146 30.0017 36.2217C30.5084 35.9288 30.929 35.5077 31.2212 35.0006C31.5135 34.4936 31.6671 33.9186 31.6667 33.3333C31.6656 32.7492 31.5111 32.1756 31.2186 31.67C30.9261 31.1644 30.5059 30.7445 30 30.4525V26.6667C30 26.2247 29.8243 25.8008 29.5118 25.4882C29.1992 25.1757 28.7753 25 28.3333 25H21.6667V21.6667H32.1126C32.4794 22.3024 33.0457 22.7994 33.7238 23.0804C34.4018 23.3614 35.1537 23.4108 35.8626 23.2208C36.5716 23.0309 37.1981 22.6123 37.6448 22.0299C38.0915 21.4475 38.3336 20.734 38.3333 20C38.3333 19.1159 37.9821 18.2681 37.357 17.643C36.7319 17.0179 35.884 16.6667 35 16.6667C34.4159 16.6677 33.8423 16.8222 33.3367 17.1147C32.8311 17.4072 32.4112 17.8275 32.1191 18.3333H21.6667V15H28.3333C28.7753 15 29.1992 14.8243 29.5118 14.5118C29.8243 14.1992 30 13.7753 30 13.3333V9.54753C30.5059 9.25546 30.9261 8.8356 31.2186 8.32999C31.5111 7.82439 31.6656 7.25079 31.6667 6.66667C31.6667 5.78261 31.3155 4.93476 30.6903 4.30964C30.0652 3.68452 29.2174 3.33333 28.3333 3.33333C27.6004 3.33433 26.8882 3.57688 26.307 4.02343C25.7258 4.46998 25.308 5.09565 25.1182 5.80359C24.9284 6.51154 24.9773 7.2623 25.2572 7.93968C25.5371 8.61707 26.0325 9.18331 26.6667 9.55078V11.6667H21.6667V0.898438ZM18.3333 5.76823V13.0534C18.3036 13.2334 18.3036 13.417 18.3333 13.597V26.3867C18.3036 26.5667 18.3036 26.7504 18.3333 26.9303V33.8639C14.2956 31.8959 11.2938 29.329 9.52473 26.5951C7.40826 23.3241 6.66666 19.9722 6.66666 18.3333V10.306L18.3333 5.76823Z" fill="#0000FF"/>
</svg>
