<svg width="40" height="40" viewBox="0 0 40 40" fill="none" xmlns="http://www.w3.org/2000/svg">
<g clip-path="url(#clip0)">
<path d="M20 3.49951L1.66669 20.0002H6.66669V35.0002H18.7435L15.4655 31.6668H10V16.9826L20 7.98519L33.3985 20.0002H38.3334L20 3.49951ZM28.3334 23.3335C23.7834 23.3335 19.6667 25.1491 16.6667 28.0991V28.1349L19.0007 30.5015C21.4007 28.1348 24.7 26.6668 28.3334 26.6668C31.9667 26.6668 35.266 28.1348 37.666 30.5015L40 28.1349L40.0163 28.1154C37.0163 25.1654 32.8834 23.3335 28.3334 23.3335ZM28.3334 30.0002C25.6 30.0002 23.1347 31.0843 21.3347 32.8843L23.6654 35.2508C24.8821 34.0675 26.5167 33.3335 28.3334 33.3335C30.15 33.3335 31.7847 34.0675 33.0013 35.2508L35.3321 32.8843C33.5321 31.0843 31.0667 30.0002 28.3334 30.0002ZM28.3334 36.6668C27.4167 36.6668 26.5994 37.0336 25.9994 37.6336L28.3334 40.0002L30.6673 37.6336C30.0673 37.0336 29.25 36.6668 28.3334 36.6668Z" fill="#0000FF"/>
</g>
<defs>
<clipPath id="clip0">
<rect width="40" height="40" fill="white"/>
</clipPath>
</defs>
</svg>
