<svg width="40" height="40" viewBox="0 0 40 40" fill="none" xmlns="http://www.w3.org/2000/svg">
<path d="M11.6667 1.6665V4.99984H15V1.6665H11.6667ZM18.3333 1.6665V4.99984H21.6667V1.6665H18.3333ZM25 1.6665V4.99984H28.3333V1.6665H25ZM11.6667 8.33317C9.8449 8.33317 8.33334 9.84473 8.33334 11.6665V28.3332C8.33334 30.1549 9.8449 31.6665 11.6667 31.6665H28.3333C30.1551 31.6665 31.6667 30.1549 31.6667 28.3332V11.6665C31.6667 9.84473 30.1551 8.33317 28.3333 8.33317H11.6667ZM1.66667 11.6665V14.9998H5V11.6665H1.66667ZM11.6667 11.6665H28.3333V28.3332H11.6667V11.6665ZM35 11.6665V14.9998H38.3333V11.6665H35ZM15 14.9998V16.6665V24.9998H25V14.9998H15ZM1.66667 18.3332V21.6665H5V18.3332H1.66667ZM18.3333 18.3332H21.6667V21.6665H18.3333V18.3332ZM35 18.3332V21.6665H38.3333V18.3332H35ZM1.66667 24.9998V28.3332H5V24.9998H1.66667ZM35 24.9998V28.3332H38.3333V24.9998H35ZM11.6667 34.9998V38.3332H15V34.9998H11.6667ZM18.3333 34.9998V38.3332H21.6667V34.9998H18.3333ZM25 34.9998V38.3332H28.3333V34.9998H25Z" fill="#0000FF"/>
</svg>
