<svg width="40" height="40" viewBox="0 0 40 40" fill="none" xmlns="http://www.w3.org/2000/svg">
<path d="M23.3333 3.3335V6.66683C28.8483 6.66683 33.3333 11.1518 33.3333 16.6668H36.6667C36.6667 9.31516 30.685 3.3335 23.3333 3.3335ZM11.1133 6.44548L9.64518 7.91357C6.64852 10.9086 5 14.8959 5 19.1343C5 23.3726 6.6501 27.3583 9.64844 30.355C12.6434 33.3517 16.6276 35.0002 20.8659 35.0002C25.1042 35.0002 29.0899 33.3501 32.0866 30.3517L33.5905 28.8478L31.7676 27.7476C28.7142 25.9034 25.838 23.7295 23.1348 21.2664C23.4345 21.159 23.7329 20.9808 24.0234 20.6903C25.3251 19.3886 25.3251 17.2784 24.0234 15.9767C22.7218 14.6751 20.6116 14.6751 19.3099 15.9767C19.0267 16.26 18.8523 16.5506 18.7435 16.8426C16.4044 14.2182 14.2298 11.3337 12.2298 8.19678L11.1133 6.44548ZM23.3333 10.0002V13.3335C25.1717 13.3335 26.6667 14.8285 26.6667 16.6668H30C30 12.9902 27.01 10.0002 23.3333 10.0002ZM10.6543 11.8654C15.566 19.0887 21.4222 24.9636 28.1022 29.3719C26.0005 30.8636 23.4942 31.6668 20.8659 31.6668C17.5176 31.6668 14.3703 30.3649 12.002 27.9982C7.61695 23.6115 7.16763 16.7571 10.6543 11.8654Z" fill="#0000FF"/>
</svg>
