<svg width="137" height="64" viewBox="0 0 137 64" fill="none" xmlns="http://www.w3.org/2000/svg">
<path d="M89.7173 30.4893H88.5136V28.3709H81.9722V18.8652H83.1759V27.2309H87.4437V18.8652H88.6474V27.2309H89.7173V30.4893Z" fill="#363636"/>
<path d="M97.0946 26.7956C96.8232 26.3524 96.5937 25.9704 96.4062 25.6496C96.2187 25.3288 96.0627 25.0626 95.9381 24.851C95.837 24.6798 95.7176 24.5205 95.5821 24.3758C95.4817 24.2696 95.3586 24.1883 95.2222 24.1382C95.0684 24.089 94.9075 24.0661 94.7463 24.0703H93.8632V28.3709H92.6595V18.8652H93.8632V23.1838H94.6499L97.9541 18.8652H99.4921L95.8929 23.2377C96.1564 23.2864 96.3965 23.4227 96.5754 23.6251C96.8271 23.9149 97.051 24.2285 97.2441 24.5615C97.4945 24.9754 97.8046 25.4965 98.1743 26.1248C98.5441 26.753 99.0325 27.5017 99.6396 28.3709H98.1134C97.7069 27.7666 97.3673 27.2415 97.0946 26.7956Z" fill="#363636"/>
<path d="M102.371 28.3709V18.8652H107.615V20.0073H103.575V22.7765H105.528C105.931 22.7739 106.333 22.8195 106.726 22.9123C107.072 22.992 107.398 23.1451 107.682 23.3615C107.957 23.5795 108.176 23.8635 108.317 24.1881C108.486 24.5965 108.566 25.0372 108.551 25.4799C108.567 25.9531 108.463 26.4225 108.25 26.8435C108.061 27.1991 107.791 27.5042 107.463 27.734C107.123 27.9644 106.745 28.1301 106.346 28.2232C105.932 28.3223 105.507 28.3719 105.082 28.3709H102.371ZM103.575 27.2309H105.06C105.792 27.2309 106.342 27.0818 106.712 26.7836C106.893 26.6376 107.038 26.4503 107.134 26.237C107.23 26.0236 107.276 25.7903 107.267 25.5557C107.274 25.2879 107.224 25.0216 107.121 24.7751C107.032 24.5727 106.891 24.3988 106.712 24.2719C106.528 24.1447 106.322 24.0546 106.104 24.0064C105.858 23.9506 105.607 23.9232 105.355 23.9245H103.585L103.575 27.2309Z" fill="#363636"/>
<path d="M120.778 28.3709H119.579L119.002 20.9437L116.642 28.3709H115.385L113.025 20.9716L112.435 28.3709H111.232L112.034 18.8652H113.505L116.032 27.0512L118.509 18.8752H119.972L120.778 28.3709Z" fill="#363636"/>
<path d="M72.4807 5.81348H71.8395V58.3292H72.4807V5.81348Z" fill="#363636"/>
<path d="M82.9359 46.1787H81.9722V38.5657H84.1769C84.5652 38.5612 84.9525 38.6068 85.3295 38.7015C85.6468 38.7813 85.9442 38.9275 86.2027 39.1308C86.4456 39.3272 86.6369 39.5817 86.7593 39.8715C86.8965 40.2093 86.9634 40.5723 86.956 40.9377C86.956 41.727 86.7042 42.3306 86.2007 42.7485C85.6972 43.1665 84.9951 43.3748 84.0943 43.3735H82.9379L82.9359 46.1787ZM82.9359 42.459H84.0924C84.6942 42.459 85.1485 42.3373 85.4593 42.0897C85.77 41.8421 85.9254 41.4668 85.9254 40.9576C85.9254 40.4485 85.77 40.0592 85.4593 39.8276C85.1485 39.596 84.6942 39.4802 84.0924 39.4802H82.9359V42.459Z" fill="#363636"/>
<path d="M92.3862 46.2883C91.9035 46.2953 91.4245 46.2029 90.978 46.0168C90.5682 45.8412 90.202 45.5752 89.9061 45.2381C89.5975 44.8792 89.3657 44.459 89.2256 44.0042C89.0621 43.4767 88.9824 42.926 88.9896 42.373C88.9816 41.8172 89.0647 41.264 89.2354 40.7358C89.3833 40.2832 89.6186 39.865 89.9277 39.506C90.2218 39.1699 90.586 38.9046 90.9937 38.7293C91.4241 38.5445 91.8875 38.452 92.3547 38.4578C92.8602 38.4475 93.3621 38.5455 93.8278 38.7453C94.2394 38.9268 94.6057 39.1997 94.8997 39.5439C95.1985 39.9085 95.4225 40.3301 95.5586 40.7838C95.7124 41.2968 95.788 41.8308 95.7828 42.367C95.7929 42.9448 95.7058 43.5201 95.5251 44.0681C95.3752 44.521 95.1348 44.9377 94.8191 45.292C94.521 45.6173 94.1546 45.8705 93.7472 46.0327C93.3135 46.2045 92.8517 46.2912 92.3862 46.2883ZM92.4826 45.3739C92.799 45.3888 93.1144 45.3283 93.4037 45.1972C93.693 45.0662 93.948 44.8682 94.1484 44.6192C94.5509 44.1147 94.7529 43.366 94.7542 42.373C94.7626 41.9175 94.707 41.463 94.589 41.0234C94.4961 40.6813 94.3332 40.3629 94.111 40.089C93.9093 39.8448 93.6493 39.6572 93.3558 39.5439C93.0355 39.4238 92.6961 39.365 92.3547 39.3702C92.038 39.3677 91.7241 39.4309 91.4323 39.5559C91.147 39.6797 90.8939 39.869 90.6928 40.1089C90.4701 40.3854 90.303 40.7035 90.2011 41.0453C90.0715 41.4753 90.0098 41.9234 90.0182 42.373C90.0107 42.8182 90.0704 43.2619 90.1952 43.6888C90.2955 44.0337 90.4649 44.3538 90.6928 44.6292C90.9039 44.8765 91.1703 45.0689 91.4697 45.1902C91.7928 45.3158 92.1365 45.3781 92.4826 45.3739Z" fill="#363636"/>
<path d="M103.412 45.9731C103.18 46.0828 102.934 46.1613 102.682 46.2067C102.382 46.263 102.077 46.2904 101.772 46.2886C101.235 46.2977 100.702 46.207 100.198 46.0211C99.7539 45.8569 99.3509 45.5951 99.0181 45.2544C98.6904 44.9131 98.4382 44.5046 98.2786 44.0564C98.1004 43.5492 98.0132 43.0136 98.0209 42.4751C98.0118 41.8916 98.0989 41.3105 98.2786 40.7561C98.4314 40.2858 98.6838 39.8551 99.0181 39.4943C99.3425 39.1503 99.7401 38.886 100.18 38.7216C100.666 38.5424 101.18 38.4544 101.697 38.462C102.047 38.4545 102.397 38.4853 102.741 38.5539C102.969 38.6024 103.192 38.6692 103.41 38.7535L103.229 39.6121C102.996 39.5262 102.756 39.464 102.511 39.4264C102.273 39.3909 102.033 39.3729 101.793 39.3725C100.898 39.3725 100.22 39.626 99.7517 40.1332C99.2836 40.6403 99.0496 41.389 99.0496 42.3753C99.0428 42.8056 99.1093 43.2339 99.2462 43.6411C99.3652 43.9936 99.557 44.3163 99.8087 44.5875C100.057 44.8491 100.361 45.0498 100.698 45.1745C101.076 45.3132 101.476 45.3809 101.878 45.3742C102.116 45.3734 102.355 45.3521 102.59 45.3103C102.81 45.2747 103.025 45.2075 103.227 45.1106L103.412 45.9731Z" fill="#363636"/>
<path d="M110.15 44.1458H106.946L106.218 46.1783H105.235L108.097 38.5654H109.06L111.867 46.1783H110.86L110.15 44.1458ZM107.257 43.2534H109.839L108.586 39.6755H108.543L107.257 43.2534Z" fill="#363636"/>
<path d="M115.808 46.1783H114.843V39.4799H112.626V38.5654H118.025V39.4799H115.808V46.1783Z" fill="#363636"/>
<path d="M123.03 46.2883C122.547 46.2953 122.067 46.2029 121.62 46.0168C121.21 45.8407 120.844 45.5748 120.548 45.2381C120.24 44.8787 120.009 44.4586 119.868 44.0042C119.705 43.4766 119.626 42.9259 119.634 42.373C119.625 41.8172 119.708 41.2638 119.879 40.7358C120.027 40.2833 120.261 39.8652 120.57 39.506C120.864 39.1703 121.228 38.905 121.636 38.7293C122.066 38.5449 122.53 38.4524 122.997 38.4578C123.502 38.4475 124.004 38.5455 124.47 38.7453C124.882 38.9263 125.248 39.1993 125.542 39.5439C125.841 39.908 126.065 40.3297 126.201 40.7838C126.354 41.2968 126.43 41.8308 126.425 42.367C126.436 42.9447 126.349 43.52 126.169 44.0681C126.018 44.5211 125.777 44.9378 125.461 45.292C125.163 45.6178 124.797 45.871 124.389 46.0327C123.956 46.2045 123.495 46.2912 123.03 46.2883ZM123.125 45.3739C123.441 45.3886 123.757 45.328 124.047 45.197C124.336 45.066 124.591 44.8681 124.792 44.6192C125.195 44.1147 125.396 43.366 125.396 42.373C125.405 41.9175 125.349 41.463 125.231 41.0234C125.139 40.6814 124.977 40.363 124.755 40.089C124.552 39.8456 124.293 39.6582 124 39.5439C123.679 39.4238 123.339 39.3649 122.997 39.3702C122.681 39.3677 122.367 39.4309 122.076 39.5559C121.79 39.6784 121.537 39.8679 121.337 40.1089C121.113 40.3852 120.946 40.7034 120.843 41.0453C120.714 41.4754 120.653 41.9235 120.662 42.373C120.655 42.818 120.714 43.2616 120.837 43.6888C120.938 44.0338 121.108 44.3539 121.337 44.6291C121.548 44.8769 121.814 45.0693 122.114 45.1902C122.434 45.3151 122.775 45.3774 123.119 45.3739H123.125Z" fill="#363636"/>
<path d="M136.325 46.1783H135.362L134.901 40.2306L133.004 46.1783H131.997L130.11 40.2505L129.64 46.1783H128.675L129.318 38.5654H130.498L132.524 45.1142L134.506 38.5654H135.686L136.325 46.1783Z" fill="#363636"/>
<path d="M36.5088 36.4886C35.6489 37.451 34.5273 38.1331 33.2856 38.4486C32.044 38.7642 30.7382 38.6991 29.533 38.2615C28.3278 37.824 27.2774 37.0336 26.5145 35.9903C25.7516 34.947 25.3104 33.6976 25.2467 32.3999C25.183 31.1022 25.4996 29.8144 26.1566 28.6992C26.8135 27.5841 27.7813 26.6916 28.9376 26.1346C30.094 25.5776 31.387 25.381 32.6534 25.5697C33.9197 25.7583 35.1026 26.3238 36.0525 27.1946C36.6874 27.772 37.2033 28.4715 37.5703 29.2525C37.9372 30.0336 38.148 30.8807 38.1905 31.745C38.2329 32.6093 38.1061 33.4735 37.8175 34.2877C37.5288 35.102 37.084 35.85 36.5088 36.4886Z" fill="#363636"/>
<path d="M33.3974 9.56139C33.924 10.0844 34.4242 10.6342 34.8961 11.2086C36.4568 13.1034 37.7423 15.2152 38.7136 17.4798C40.2475 17.7725 41.8099 17.8818 43.3689 17.8052C43.4633 17.8052 43.5498 17.8052 43.6442 17.7932C43.7386 17.7813 43.8094 17.7753 43.8959 17.7693C47.0958 17.4758 51.2536 16.2299 55.0533 12.3646C55.1831 12.2308 55.3149 12.089 55.4467 11.9513C54.8567 11.2385 54.2509 10.5357 53.594 9.86487C48.3295 4.53278 41.3509 1.30171 33.9333 0.762101C26.5158 0.222488 19.1546 2.41036 13.1949 6.92592C22.7121 2.24397 29.3046 5.47441 33.3974 9.56139Z" fill="#363636"/>
<path d="M11.478 41.4809C11.6747 40.7342 11.891 40.0194 12.1349 39.3426C12.9708 37.0225 14.1299 34.836 15.5767 32.8497C15.06 31.355 14.3722 29.9269 13.5274 28.595C13.4762 28.5152 13.433 28.4373 13.3779 28.3574C13.3228 28.2776 13.2796 28.2197 13.2324 28.1478C11.3816 25.4824 8.24074 22.4496 3.04261 21.042C2.86364 20.9941 2.67876 20.9502 2.49389 20.9062C2.18117 21.7788 1.88419 22.6632 1.64032 23.5777C-0.274576 30.8724 0.460101 38.6231 3.7101 45.4134C6.96009 52.2037 12.5084 57.58 19.3411 60.5601C10.5792 54.5364 10.0403 47.1192 11.478 41.4809Z" fill="#363636"/>
<path d="M49.7431 44.8266C49.0095 45.0262 48.2877 45.1939 47.5895 45.3197C45.1925 45.7445 42.748 45.8192 40.3302 45.5413C39.3133 46.7429 38.4381 48.0609 37.7223 49.4686C37.683 49.5544 37.6378 49.6323 37.5965 49.7181C37.5552 49.804 37.5276 49.8739 37.4922 49.9517C36.1411 52.9127 35.1321 57.1893 36.5246 62.4642C36.5718 62.6439 36.6288 62.8296 36.6819 63.0133C37.5827 62.8536 38.4854 62.6699 39.3862 62.4283C46.5665 60.466 52.8116 55.9464 56.9803 49.6954C61.1489 43.4444 62.9628 35.8794 62.0904 28.3828C61.3273 39.0904 55.2775 43.2712 49.7431 44.8266Z" fill="#363636"/>
<path d="M13.1949 6.92595C13.1949 6.92595 6.47843 11.1966 2.96777 19.7659C3.88821 19.9296 13.2578 21.8463 16.7488 32.4162C17.6024 31.8651 20.2241 29.7627 21.9843 23.9727C24.1143 16.9727 28.156 11.8076 33.3915 9.55943C33.3974 9.56142 26.7596 -0.0460687 13.1949 6.92595Z" fill="#363636"/>
<path d="M34.4811 57.3252C34.4811 53.7773 35.4487 49.0794 39.3311 44.655L39.3744 44.5871C38.7411 43.9003 36.5226 42.2052 30.817 43.525C23.782 45.1542 16.0172 44.9665 11.478 41.4805C11.478 41.4805 6.60435 52.1202 19.3312 60.5597C19.3312 60.5597 26.323 64.3252 35.3819 63.1332C34.7677 61.261 34.4633 59.2985 34.4811 57.3252Z" fill="#363636"/>
<path d="M56.2491 12.9775C55.2481 14.2114 50.4924 19.2707 42.5546 19.2767C41.1872 19.2738 39.8237 19.1286 38.4854 18.8435L38.4185 18.8275C38.155 19.8038 37.9406 22.5651 41.8151 26.8138C46.7202 32.1845 50.4413 39.1046 49.7392 44.8368C49.7392 44.8368 61.2545 43.8026 62.0865 28.393C62.0904 28.3831 61.8072 20.3469 56.2491 12.9775Z" fill="#363636"/>
</svg>
