<svg width="178" height="56" viewBox="0 0 178 56" fill="none" xmlns="http://www.w3.org/2000/svg">
<g clip-path="url(#clip0)">
<path d="M70.8367 32.5294C70.8367 26.8471 74.8822 21.4941 82.4777 21.4941C90.4861 21.4941 94.1187 27.2588 94.1187 32.5294C94.1187 38.2118 90.0733 43.5647 82.4777 43.5647C74.6345 43.5647 70.8367 37.8 70.8367 32.5294ZM74.3868 32.0353C74.3868 37.3059 77.6892 41.0941 82.4777 41.0941C86.4406 41.0941 90.7338 38.5412 90.7338 33.0235C90.7338 27.7529 87.4313 23.9647 82.6428 23.9647C78.6799 23.8823 74.3868 26.4353 74.3868 32.0353ZM95.4397 42.2471L94.6141 38.1294C96.2653 40.0235 98.7421 41.0941 101.301 41.0118C105.099 41.0118 107.493 39.4471 107.493 36.7294C107.493 34.0941 105.429 32.6118 102.292 32.6118C101.301 32.5294 100.228 32.6941 99.32 33.1059V29.9765C100.063 30.1412 100.806 30.2235 101.549 30.2235C105.76 30.2235 106.503 28.2471 106.503 26.8471C106.503 24.8706 105.099 23.8 102.54 23.8C100.311 23.8 98.0816 24.4588 96.1827 25.6118L96.5955 21.8235C100.063 21.6588 99.4026 21.3294 102.457 21.3294C103.943 21.3294 109.97 21.3294 109.97 26.4353C109.97 29.8118 106.998 30.8 105.842 31.0471V31.1294C108.567 31.0471 110.878 33.1882 110.961 35.9059V36.3176C110.961 41.5059 106.255 43.4 101.467 43.4C99.32 43.6471 97.256 43.1529 95.4397 42.2471ZM169.661 39.4471L164.295 32.1176L169.001 25.7765C169.827 24.7059 170.239 24.0471 170.239 23.3882C170.157 22.7294 169.744 22.1529 169.166 21.9059H175.028L167.597 31.4588L171.065 36.0706C173.872 39.7765 175.358 41.5882 178 43.1529L174.78 43.3176H174.532C172.303 43.3176 171.147 41.5059 169.661 39.4471ZM58.6178 43.0706C59.6085 42.4118 60.1039 41.2588 60.0213 40.0235V24.9529C60.1039 23.8 59.6085 22.6471 58.6178 21.9059H70.5065C70.8367 21.9059 71.2495 21.9059 71.5798 21.8235V25.5294C70.7542 24.4588 69.5983 24.2941 67.2041 24.2941C65.8005 24.2941 63.9842 24.3765 62.9935 24.3765V40.0235C62.8284 41.2588 63.4889 42.4118 64.5621 43.0706H58.6178ZM159.176 43.0706C160.167 42.4118 160.662 41.2588 160.58 40.0235V24.8706C160.745 23.7176 160.167 22.4823 159.176 21.8235H165.038C164.047 22.4823 163.552 23.6353 163.634 24.8706V40.0235C163.469 41.1765 164.047 42.4118 165.038 43.0706H159.176ZM151.498 43.0706C152.324 42.8235 152.819 41.9176 152.571 41.0941C152.571 40.9294 152.489 40.8471 152.406 40.7647L150.095 35.0823H141.921L140.022 39.8588C139.609 40.9294 139.362 42.1647 140.765 43.1529H135.069C136.637 42.1647 137.215 40.7647 137.876 39.2823L143.903 23.9647C144.315 23.2235 143.985 22.3176 143.325 21.9882C143.325 21.9882 143.242 21.9882 143.242 21.9059H148.196L155.544 40.0235C155.956 41.3412 156.865 42.4941 158.103 43.1529L151.498 43.0706ZM142.747 33.0235H149.352L146.049 24.6235L142.747 33.0235ZM128.051 43.0706C129.042 42.4118 129.62 41.2588 129.455 40.0235V32.6118H117.731V40.0235C117.566 41.1765 118.144 42.4118 119.134 43.0706H113.273C114.263 42.4118 114.841 41.2588 114.676 40.0235V24.8706C114.841 23.7176 114.263 22.4823 113.273 21.8235H119.134C118.144 22.4823 117.566 23.6353 117.731 24.8706V30.2235H129.455V24.8706C129.62 23.7176 129.042 22.4823 128.051 21.8235H133.913C132.922 22.4823 132.344 23.6353 132.509 24.8706V40.0235C132.344 41.1765 132.922 42.4118 133.913 43.0706H128.051ZM145.884 16.9647V15.8118H141.921V11.6118H142.416V15.4H143.737V11.6118H144.233V15.4H145.554V11.6118H146.049V15.4H146.462V16.8823H145.884V16.9647ZM73.974 16.9647V15.8118H71.3321V11.6118H71.8274V15.4H73.4787V11.6118H73.974V15.4H74.3868V16.8823H73.974V16.9647ZM171.973 15.4C171.643 14.9059 171.478 14.3294 171.478 13.7529C171.478 13.1765 171.643 12.6 171.973 12.1059C172.551 11.4471 173.542 11.3647 174.202 11.9412C174.285 12.0235 174.367 12.0235 174.367 12.1059C174.698 12.6 174.863 13.1765 174.863 13.7529C174.863 14.3294 174.698 14.9059 174.367 15.4C173.789 16.0588 172.799 16.1412 172.138 15.5647C172.056 15.4823 172.056 15.4 171.973 15.4ZM172.303 12.4353C172.138 12.8471 172.056 13.2588 172.056 13.7529C172.056 14.1647 172.138 14.6588 172.303 15.0706C172.634 15.5647 173.211 15.7294 173.707 15.4C173.872 15.3176 173.955 15.1529 174.037 15.0706C174.202 14.6588 174.285 14.2471 174.285 13.7529C174.285 13.3412 174.202 12.8471 174.037 12.4353C173.707 11.9412 173.129 11.7765 172.634 12.1059L172.303 12.4353ZM155.213 15.4C154.883 14.9059 154.718 14.4118 154.718 13.8353C154.718 13.2588 154.883 12.6823 155.296 12.1882C155.626 11.8588 156.039 11.6118 156.534 11.6118C156.947 11.6118 157.277 11.6941 157.608 11.9412L157.36 12.2706C157.112 12.1059 156.865 12.0235 156.534 12.0235C156.039 12.0235 155.626 12.3529 155.461 12.7647C155.296 13.0941 155.296 13.5059 155.296 13.9176C155.296 14.2471 155.296 14.4941 155.461 14.8235C155.626 15.3176 156.121 15.6471 156.617 15.6471C156.947 15.6471 157.195 15.5647 157.442 15.4L157.69 15.7294C157.36 15.9765 156.947 16.0588 156.534 16.0588C155.956 15.8941 155.461 15.7294 155.213 15.4ZM129.785 15.4C129.455 14.9059 129.289 14.3294 129.289 13.7529C129.289 13.1765 129.455 12.6 129.785 12.1059C130.363 11.4471 131.353 11.3647 132.014 11.9412C132.096 12.0235 132.179 12.0235 132.179 12.1059C132.509 12.6 132.674 13.1765 132.674 13.7529C132.674 14.3294 132.509 14.9059 132.179 15.4C131.601 16.0588 130.61 16.1412 129.95 15.5647C129.867 15.4823 129.867 15.4 129.785 15.4ZM130.115 12.4353C129.95 12.8471 129.867 13.2588 129.867 13.7529C129.867 14.1647 129.95 14.6588 130.115 15.0706C130.445 15.5647 131.023 15.7294 131.519 15.4C131.684 15.3176 131.766 15.1529 131.849 15.0706C132.014 14.6588 132.096 14.2471 132.096 13.7529C132.096 13.3412 132.014 12.8471 131.849 12.4353C131.601 11.9412 130.941 11.7765 130.445 12.1059L130.115 12.4353ZM114.181 15.4C113.851 14.9059 113.686 14.3294 113.686 13.7529C113.686 13.1765 113.851 12.6 114.181 12.1059C114.759 11.4471 115.75 11.3647 116.41 11.9412C116.493 12.0235 116.575 12.0235 116.575 12.1059C116.905 12.6 117.07 13.1765 117.07 13.7529C117.07 14.3294 116.905 14.9059 116.575 15.4C115.997 16.0588 115.006 16.1412 114.346 15.5647C114.346 15.4823 114.263 15.4 114.181 15.4ZM114.511 12.4353C114.346 12.8471 114.263 13.2588 114.263 13.7529C114.263 14.1647 114.346 14.6588 114.511 15.0706C114.841 15.5647 115.419 15.7294 115.915 15.4C116.08 15.3176 116.162 15.1529 116.245 15.0706C116.41 14.6588 116.493 14.2471 116.493 13.7529C116.493 13.3412 116.41 12.8471 116.245 12.4353C115.915 11.9412 115.337 11.7765 114.841 12.1059L114.511 12.4353ZM84.2115 15.4C83.8812 14.9059 83.7161 14.3294 83.7161 13.7529C83.7161 13.1765 83.8812 12.6 84.2115 12.1059C84.7894 11.4471 85.7801 11.3647 86.4406 11.9412C86.5232 12.0235 86.6057 12.0235 86.6057 12.1059C86.936 12.6 87.1011 13.1765 87.1011 13.7529C87.1011 14.3294 86.936 14.9059 86.6057 15.4C86.0278 16.0588 85.0371 16.1412 84.3766 15.5647C84.3766 15.4823 84.294 15.4 84.2115 15.4ZM84.5417 12.4353C84.3766 12.8471 84.294 13.2588 84.294 13.7529C84.294 14.1647 84.3766 14.6588 84.5417 15.0706C84.872 15.5647 85.4499 15.7294 85.9453 15.4C86.1104 15.3176 86.1929 15.1529 86.2755 15.0706C86.4406 14.6588 86.5232 14.2471 86.5232 13.7529C86.5232 13.3412 86.4406 12.8471 86.2755 12.4353C85.9453 11.9412 85.3673 11.7765 84.872 12.1059L84.5417 12.4353ZM67.8645 15.8941C67.6994 15.8941 67.4517 15.8118 67.3692 15.6471C67.2866 15.4823 67.2041 15.3176 67.2041 15.1529L67.0389 14.4941C67.0389 14.3294 66.9564 14.1647 66.8738 14.0823C66.7913 14 66.6261 13.9176 66.461 13.9176H65.9657V15.9765H65.4703V11.7765H65.9657V13.5059H66.5436C66.7087 13.5059 66.8738 13.5059 66.9564 13.3412C67.0389 13.2588 67.1215 13.0941 67.1215 12.9294L67.2041 12.3529C67.2041 12.1882 67.2866 12.0235 67.3692 11.9412C67.5343 11.8588 67.6169 11.7765 67.8645 11.7765H68.1122L68.1948 12.1059L68.0297 12.1882C67.9471 12.1882 67.8645 12.2706 67.8645 12.2706C67.782 12.1882 67.6994 12.2706 67.6994 12.3529L67.5343 12.9294C67.5343 13.0941 67.4517 13.2588 67.3692 13.3412L67.1215 13.5882C67.2041 13.5882 67.2866 13.6706 67.3692 13.7529C67.4517 13.9176 67.5343 14 67.6169 14.1647L67.8645 14.9882C67.8645 15.1529 67.9471 15.2353 68.0297 15.3176C68.1122 15.3176 68.1948 15.4 68.2773 15.4H68.3599L68.2773 15.7294L67.8645 15.8941ZM165.698 15.8118V11.6118H166.689C167.102 11.6118 167.515 11.6941 167.845 11.8588C168.093 12.0235 168.258 12.3529 168.258 12.6823C168.258 12.9294 168.175 13.1765 168.01 13.3412C167.845 13.4235 167.68 13.5882 167.515 13.5882C167.68 13.5882 167.928 13.6706 168.093 13.8353C168.34 14.0823 168.506 14.3294 168.506 14.6588C168.506 14.9882 168.423 15.2353 168.175 15.4823C167.762 15.7294 167.35 15.8941 166.854 15.8118H165.698ZM166.194 15.4H167.102C167.35 15.4 167.515 15.3176 167.762 15.2353C167.928 15.0706 168.01 14.9059 168.01 14.6588C168.01 14.4118 167.928 14.1647 167.762 14C167.515 13.8353 167.267 13.8353 167.019 13.8353H166.276L166.194 15.4ZM166.194 13.4235H166.937C167.185 13.4235 167.35 13.4235 167.515 13.2588C167.845 12.9294 167.762 12.5176 167.515 12.1882C167.35 12.0235 167.102 12.0235 166.854 12.0235H166.276L166.194 13.4235ZM161.158 15.8118V12.0235H160.002V11.6118H162.809V12.0235H161.653V15.8118H161.158ZM149.517 15.8118V11.6118H151.828L151.746 12.0235H150.012V13.4235H151.498V13.8353H150.012V15.4H151.911V15.8118H149.517ZM135.977 15.8118V11.6118H138.371L138.288 12.0235H136.472V13.3412H137.133C137.545 13.3412 137.876 13.4235 138.206 13.5882C138.536 13.8353 138.701 14.2471 138.701 14.5765C138.701 14.9059 138.619 15.2353 138.371 15.4C137.958 15.7294 137.545 15.8118 137.05 15.7294L135.977 15.8118ZM136.472 15.4H137.38C137.628 15.4 137.793 15.3176 138.041 15.2353C138.206 15.0706 138.288 14.8235 138.288 14.6588C138.288 14.4118 138.206 14.1647 138.041 14C137.793 13.8353 137.545 13.8353 137.298 13.8353H136.555V15.4H136.472ZM120.373 15.8118V11.6118H122.685L122.602 12.0235H120.868V13.4235H122.354V13.8353H120.951V15.4H122.85V15.8118H120.373ZM109.97 15.8118V13.7529H108.237V15.8118H107.741V11.6118H108.237V13.3412H109.97V11.6118H110.466V15.8118H109.97ZM102.045 15.8118V11.6118H103.2C103.531 11.6118 103.861 11.6118 104.109 11.7765C104.439 12.0235 104.686 12.3529 104.686 12.7647C104.686 13.1765 104.604 13.5059 104.274 13.7529C104.026 14 103.613 14.0823 103.283 14.0823H102.54V15.7294L102.045 15.8118ZM102.54 13.7529H103.283C103.531 13.7529 103.778 13.6706 103.943 13.5059C104.109 13.3412 104.191 13.0941 104.191 12.9294C104.191 12.6823 104.109 12.4353 103.943 12.2706C103.696 12.1059 103.448 12.0235 103.118 12.0235H102.622L102.54 13.7529ZM96.5955 15.8118V11.6118H98.9072L98.8247 12.0235H97.0909V13.4235H98.577V13.8353H97.0909V15.4H98.9898V15.8118H96.5955ZM92.6326 15.8118V13.7529H90.8989V15.8118H90.4035V11.6118H90.8989V13.3412H92.6326V11.6118H93.128V15.8118H92.6326ZM80.0009 15.8118V12.9294V12.1059C80.0009 12.2706 79.9184 12.4353 79.8358 12.5176L78.102 15.8118H77.6067V11.6118H78.102V14.5765C78.102 14.6588 78.102 14.9882 78.0195 15.2353C78.102 15.0706 78.1846 14.8235 78.2671 14.6588L79.9184 11.6118H80.4963V15.8118H80.0009ZM61.9202 15.8118L61.5074 14.4941H59.9388L59.526 15.8118H59.0306L60.4341 11.6118H61.0946L62.4981 15.8118H61.9202ZM60.1039 14.1647H61.4248L60.7644 12.1059L60.1039 14.1647Z" fill="#363636"/>
<path d="M47.224 37.8824C47.1415 39.5294 46.7287 42.2471 45.16 44.5529C44.1693 46.0353 42.8483 47.1882 41.1971 48.0941C39.8762 48.8353 38.5552 49.3294 37.0691 49.8235C35.5005 50.3176 33.8493 50.7294 32.2806 51.1412C30.9597 51.4706 29.5561 51.8824 28.2352 52.3765C27.2444 52.7882 26.3363 53.2 25.4281 53.8588C24.6851 54.4353 24.0246 55.0941 23.5292 55.9176H23.4467C23.4467 55.8353 23.3641 55.7529 23.3641 55.7529C22.7862 54.7647 21.878 54.0235 20.8873 53.4471C19.814 52.7882 18.7407 52.3765 17.5849 51.9647C16.0988 51.4706 14.6127 51.1412 13.1266 50.7294C11.558 50.3176 9.98935 49.9059 8.50326 49.3294C7.09974 48.7529 5.77877 48.0941 4.54037 47.2706C2.72404 45.9529 1.48564 44.2235 0.742595 42.1647C0.412354 41.1765 0.0821128 40.1059 -0.000447519 39.0353C-0.000447519 38.5412 -0.0830078 38.2941 -0.0830078 37.4706C-0.000447519 24.3765 -0.000447519 0 -0.000447519 0H47.224V37.8824ZM23.6944 53.4471C23.7769 53.3647 23.8595 53.3647 23.8595 53.2824C24.1897 52.8706 24.6025 52.4588 25.0153 52.1294C25.9235 51.3882 26.9968 50.8118 28.1526 50.4C29.5561 49.8235 30.9597 49.4118 32.4457 49.0824C33.9318 48.6706 35.5005 48.3412 36.9866 47.8471C38.3901 47.3529 39.7936 46.8588 41.1146 46.1176C43.096 44.9647 44.5821 43.4824 45.5728 41.5882C46.3159 40.0235 46.7287 38.2941 46.8112 36.5647C46.8938 35.5765 46.8938 34.5882 46.8938 33.6V0.494118H0.494914V34.5059C0.494914 35.4118 0.577475 36.3176 0.660035 37.2235C0.742595 38.2118 0.990276 39.2 1.32052 40.1882C1.981 42.3294 3.30196 44.0588 5.11829 45.4588C6.27413 46.2824 7.51254 46.8588 8.8335 47.3529C10.237 47.9294 11.6406 48.2588 13.1266 48.6706C14.5302 49.0824 15.9337 49.4118 17.4198 49.8235C18.6582 50.1529 19.814 50.5647 20.8873 51.2235C21.9606 51.7176 22.8688 52.4588 23.6944 53.4471C23.6944 53.4471 23.6118 53.4471 23.6944 53.4471Z" fill="#363636"/>
<path d="M41.115 30.7181C40.372 35.5769 37.8952 38.9534 37.8952 38.9534H38.8859C38.8859 38.9534 35.3358 42.9886 33.0241 42.7416C32.6939 42.7416 37.8952 38.4592 39.5464 29.6475C40.2894 25.5298 39.3813 21.0828 39.3813 21.0828C40.372 21.8239 41.7755 26.271 41.115 30.7181ZM35.9137 18.6945C35.9137 18.6945 36.3265 21.5769 36.1614 25.1181C35.9137 31.6239 34.18 35.4122 31.2904 38.7886C30.5473 39.6945 24.1076 45.4592 24.1076 45.4592C29.5566 45.5416 34.5928 39.6945 34.5928 39.6945H33.2718C33.2718 39.6122 36.4917 36.4004 37.7301 30.1416C38.7208 24.871 36.8219 20.0945 36.8219 20.0945L35.9137 18.6945ZM29.474 39.6945H27.2449C27.2449 39.6945 33.9323 35.0828 33.9323 25.2828C33.9323 20.0122 33.1067 16.0592 33.1067 16.0592L31.3729 13.1769V15.1534C31.3729 17.1298 30.5473 19.7651 29.3089 21.0004C27.988 22.2357 26.2542 23.0592 24.2727 23.0592C27.1624 24.0475 30.2996 22.5651 31.8683 20.0122C32.2811 23.3886 32.5288 27.2592 31.2904 30.5533C30.2996 33.1886 28.731 35.4122 27.0798 37.2239V34.5886L25.2635 33.3533C25.2635 33.3533 25.2635 35.9886 25.1809 35.9063C25.1809 35.9063 24.2727 35.4122 23.9425 35.0004C23.0343 34.1769 22.2913 32.9416 22.2913 32.9416C22.2913 32.9416 22.3739 35.9063 22.2087 35.8239C20.3098 34.671 19.9796 32.6945 19.9796 32.6945V34.7534C19.9796 34.7534 19.2366 34.3416 18.6586 33.7651C18.0807 33.1886 17.6679 32.2004 17.6679 32.2004L12.8794 33.1063L12.3015 35.0004L13.2097 34.1769L16.6772 33.5181C16.6772 33.5181 17.09 34.1769 17.7505 34.9181C18.411 35.6592 19.5668 36.4004 19.5668 36.4004V35.8239C20.8052 37.2239 21.0529 37.5533 21.6308 37.8828C22.8692 38.7063 23.7774 39.1181 23.7774 39.1181C23.7774 39.1181 23.7774 36.7298 23.8599 36.7298C23.8599 36.7298 24.5204 37.8004 25.6763 38.4592C23.282 40.6828 21.0529 42.0004 20.5575 42.3298C20.475 42.4122 17.4202 44.2239 17.5854 44.2239C23.1995 45.9534 29.474 39.6945 29.474 39.6945ZM40.8674 36.4828C41.7755 33.0239 44.1698 28.2475 41.3627 20.2592C42.5186 21.5769 43.2616 23.6357 43.5919 25.5298C43.5919 24.9534 43.5919 24.3769 43.5093 23.8004C42.7663 16.5534 38.7208 11.1181 34.5102 8.40041C31.8683 6.671 29.7217 6.17688 29.2264 7.08276C28.731 7.82394 29.3089 10.2945 29.3915 11.0357C29.474 12.6004 29.8043 15.7298 28.3182 16.9651C26.4193 18.5298 21.1355 14.3298 21.1355 14.3298C21.1355 14.3298 21.8785 14.5769 22.7041 13.0945C22.7867 13.0122 22.7867 12.8475 22.8692 12.7651C23.3646 11.1181 23.4471 9.55335 22.4564 6.34159C22.7867 6.17688 23.4471 5.92982 23.9425 5.76512C20.8878 5.84747 18.1633 5.76512 18.0807 5.76512C18.0807 7.24747 16.4295 7.08276 16.4295 6.34159C14.8609 6.34159 13.9527 6.17688 14.1178 8.40041C14.1178 8.40041 15.1911 8.2357 15.5214 8.15335C18.2458 7.98865 18.6586 10.4592 18.4935 12.1886C18.2458 13.8357 17.4202 13.5063 16.5121 16.3886C15.6865 20.0122 17.1726 21.9063 18.9889 24.7063C17.4202 23.8828 17.2551 23.8004 16.1818 22.6475C16.7598 25.3651 18.4935 28.4945 18.9063 29.2357C21.7134 28.4945 22.3739 27.7534 22.3739 27.5063V29.4004C21.9611 30.0592 20.0622 30.3886 16.9249 31.0475C12.5492 31.7886 12.6317 31.871 11.9713 31.4592C11.4759 31.1298 11.3108 30.5534 11.1457 30.3063C11.0631 30.3063 8.91653 30.5534 8.42117 30.6357C8.17349 30.7181 7.84325 31.0475 7.92581 31.5416C8.00837 32.1181 8.33861 32.2828 8.99909 32.2828V32.4475C8.99909 32.4475 8.17349 32.5298 8.25605 33.3533C8.33861 34.1769 9.24677 34.1769 9.24677 34.1769V34.2592C9.24677 34.2592 8.50373 34.5063 8.66885 35.3298C8.83397 36.1534 9.65957 35.9886 9.90725 35.9886L11.8887 35.7416L12.4666 40.3534L10.4852 40.6004L10.0724 36.6475C9.90725 36.6475 9.57701 36.7298 9.32933 36.7298C8.99909 36.7298 7.84325 36.7298 7.59556 35.6592C7.43044 34.8357 7.92581 34.5063 7.92581 34.5063C7.84325 34.4239 7.18276 34.3416 7.1002 33.6828C6.93508 32.9416 7.513 32.6122 7.59556 32.5298C7.59556 32.5298 7.01764 32.3651 6.93508 31.6239C6.76996 30.8828 7.18276 30.471 7.34788 30.3886C7.513 30.2239 7.67812 30.1416 7.92581 30.0592H8.00837L4.29315 30.471C4.29315 30.471 5.69668 26.9298 9.74213 26.6828C13.9527 26.3534 15.769 29.3181 15.769 29.3181L12.2189 29.6475C12.3015 29.8945 12.5492 30.2239 12.7969 30.3886C13.4573 30.7181 16.0167 30.0592 17.0074 29.8945H17.09C16.6772 28.9886 14.9434 25.2004 14.3655 21.6592C13.0445 21.7416 10.6503 21.7416 10.4026 21.4122C9.90725 20.5886 10.1549 20.5063 9.90725 19.6828C9.65957 18.8592 8.33861 18.5298 7.76068 19.271C7.01764 20.1769 7.26532 21.4122 8.91653 21.6592C8.83397 21.6592 8.91653 21.6592 8.91653 21.3298H9.41189C9.41189 21.9063 9.49445 22.2357 9.82469 22.4828C8.50373 22.6475 7.59556 22.1534 7.18276 21.4945C6.85252 21.5769 6.60484 21.4945 6.2746 21.4945C6.10948 21.6592 5.94436 21.9063 6.02692 22.2357C6.10948 22.8945 6.60484 23.0592 6.93508 23.0592C7.513 23.0592 7.84325 22.3181 7.84325 22.3181V23.6357H14.5306C14.5306 23.6357 13.3748 25.5298 11.3933 26.271C10.6503 26.6004 9.65957 26.7651 8.58629 26.7651C6.6874 26.6828 5.36644 26.0239 4.62339 25.2828C3.88035 24.5416 3.30243 23.7181 3.30243 23.7181H6.2746C5.94436 23.5534 5.53156 23.3063 5.28388 22.8122C4.95364 22.071 5.20132 21.5769 5.53156 21.3298C5.36644 21.2475 5.20132 21.1651 5.11876 21.0004C4.95363 20.8357 4.78851 20.5886 4.70595 20.3416C4.54083 19.8475 4.54083 19.3534 4.70595 18.9416C4.87107 18.4475 5.449 17.871 6.10948 17.7886C6.76996 17.7063 7.26532 17.871 7.76068 18.1181V13.9181H9.74213L9.82469 17.871C10.2375 17.871 10.6503 18.0357 10.898 18.5298C11.1457 19.0239 11.1457 19.7651 11.1457 19.7651C11.1457 19.7651 11.0631 20.4239 11.8061 20.5886H14.1178C14.0353 19.7651 14.0353 19.0239 14.1178 18.2828C14.3655 16.8004 14.8609 15.7298 15.2737 14.9886C15.4388 14.8239 15.5214 14.5769 15.6865 14.4945L16.5121 13.5063C17.2551 12.6004 17.5854 11.9416 17.5028 10.7886C17.3377 9.05923 13.8701 8.89453 13.4573 9.96512C13.1271 9.471 13.1271 8.89453 13.1271 8.31806C13.1271 7.74159 13.3748 7.41218 13.4573 7.08276C13.5399 5.84747 14.8609 5.76512 15.8516 5.68276C15.8516 3.21218 22.6215 4.20041 25.0158 5.92982C24.7681 6.01218 23.7774 6.58865 23.7774 6.58865C24.4379 7.90629 25.0158 12.6828 25.0983 15.4004C27.2449 16.471 27.0798 13.5886 26.667 9.88276C26.5019 8.071 26.9972 6.91806 27.7403 6.09453C28.4833 5.271 29.5566 5.271 30.3822 5.35335C33.9323 5.60041 44.1698 11.3651 44.5826 23.7181C44.8303 28.9063 42.3534 35.7416 40.8674 36.4828ZM7.01764 18.4475C6.6874 18.2004 5.11876 18.2828 5.11876 19.3534C5.11876 20.0122 5.36644 20.2592 5.69668 20.4239C5.8618 20.5063 6.10948 20.5886 6.2746 20.5886C6.19204 19.8475 6.43972 19.0239 7.01764 18.4475Z" fill="#363636"/>
</g>
<defs>
<clipPath id="clip0">
<rect width="178" height="56" fill="white"/>
</clipPath>
</defs>
</svg>
