<svg width="118" height="53" viewBox="0 0 118 53" fill="none" xmlns="http://www.w3.org/2000/svg">
<g clip-path="url(#clip0)">
<path d="M83.5902 4.68434V6.625H99.9837C101.077 6.625 102.699 6.625 103.792 7.72917C104.885 8.83333 104.885 10.4729 104.885 11.577V28.1395C104.885 29.2437 104.885 30.8832 103.792 31.9874C102.699 33.0915 101.077 33.0915 99.9837 33.0915H92.0685C90.7107 33.0915 88.9223 33.0915 88.2599 31.5859C87.5644 30.0802 88.5248 28.6749 89.3528 27.5707L100.017 13.2165H83.6234L77.0329 22.0833C75.94 23.5556 74.9795 24.827 74.9795 26.5C74.9795 28.1395 75.8737 29.3441 77.0329 30.9167L78.6556 33.125C80.2784 35.3333 81.9343 37.5417 84.1201 38.6458C86.3059 39.75 88.8892 39.75 92.4659 39.75H99.5532C103.66 39.75 109.787 39.75 113.893 35.601C118 31.452 118 25.3958 118 23.1875V16.5625C118 14.3542 118 8.29798 113.893 4.14899C109.787 0 103.66 0 99.5532 0H88.2268C87.1339 0 85.776 0 84.6831 1.10417C83.5902 2.20833 83.5902 3.58018 83.5902 4.68434Z" fill="#363636"/>
<path d="M63.918 13.25H80.3115L60.6394 39.75H44.2459L63.918 13.25Z" fill="#363636"/>
<path d="M0 17.9343C0 16.8302 0 15.4583 1.0929 14.3542C2.1858 13.25 3.54364 13.25 4.63654 13.25H32.0915C35.6351 13.25 38.2515 13.25 40.4373 14.3542C42.6231 15.4583 44.2459 17.6667 45.9018 19.875L47.5246 22.0833C48.6837 23.6559 49.5779 24.827 49.5779 26.5C49.5779 28.1395 48.6175 29.4444 47.5246 30.9167L40.9672 39.75H24.5737L35.2377 25.3958C36.0657 24.2917 37.0261 22.9198 36.3306 21.3807C35.6351 19.875 33.8799 19.875 32.522 19.875H19.6722V53H6.5574V19.875H0V17.9343Z" fill="#363636"/>
</g>
<defs>
<clipPath id="clip0">
<rect width="118" height="53" fill="white"/>
</clipPath>
</defs>
</svg>
