<svg width="42" height="88" viewBox="0 0 42 88" fill="none" xmlns="http://www.w3.org/2000/svg">
<path fill-rule="evenodd" clip-rule="evenodd" d="M13.911 66.6132L21.1337 53.0284L27.9831 66.6132H13.911ZM27.9831 60.9628V27.3015L33.5868 14.5582V53.0284L27.9831 60.9628ZM14.0355 60.9628V27.3015L21.1337 10.3507V48.0993L14.0355 60.9628ZM5.81641 6.86426H5.87443H8.30729L14.0355 20.0884L19.7639 6.86426H22.628L27.9831 20.0884L34.085 6.86426H36.3263V53.7499L30.7226 62.1651V69.6186H11.1715V62.1651L5.81641 53.7499V7.22489V6.86426ZM8.47701 73.8325H11.1852C12.1789 73.8325 12.9225 73.9908 13.4152 74.3072C13.9079 74.6235 14.2503 74.97 14.442 75.3465C14.5466 75.555 14.6165 75.7573 14.6518 75.9535C14.6866 76.1498 14.7037 76.3201 14.7037 76.4643C14.7037 76.4881 14.7037 76.5101 14.7037 76.5301C14.7037 76.5502 14.7037 76.5721 14.7037 76.5962C14.669 77.2211 14.3923 77.7918 13.8732 78.3085C13.3545 78.8252 12.5716 79.0835 11.5252 79.0835H10.3345V82.2439H8.47701V73.8325ZM10.3345 77.7621H11.1852C11.6998 77.7621 12.0877 77.6278 12.3494 77.3595C12.6108 77.091 12.7415 76.7766 12.7415 76.4161C12.7415 76.0956 12.6262 75.8052 12.3949 75.545C12.1638 75.2845 11.7605 75.1544 11.1852 75.1544H10.3345V77.7621ZM16.5907 73.8325H23.7335V75.3228H21.0912V82.2439H19.2337V75.3228H16.5907V73.8325ZM26.0129 73.8325H27.8707V77.4256H27.9097L31.2193 73.8325H33.4306L29.6105 77.6415L33.6658 82.2439H31.311L27.9097 78.0623H27.8707V82.2439H26.0129V73.8325Z" fill="#363636"/>
<path fill-rule="evenodd" clip-rule="evenodd" d="M37.0796 0.431255C38.2588 0.677662 39.3092 1.3858 40.1075 2.39989C41.0696 3.62209 41.6669 5.29973 41.6673 7.13788V7.13945V81.0753V81.0761C41.6669 82.9146 41.0696 84.5927 40.1072 85.8148C39.1047 87.0883 37.7054 87.8791 36.1511 87.8793H36.1504H5.99269H5.99243C4.43816 87.8791 3.0384 87.0883 2.03568 85.8148C1.07352 84.5927 0.476191 82.915 0.4758 81.0767V81.0753V7.13945V7.13866C0.4758 5.30012 1.07352 3.62209 2.03594 2.39949C2.92313 1.2725 4.1217 0.523838 5.46265 0.366211L6.12061 1.88426H5.99269H5.99204C4.93599 1.88426 3.96249 2.45011 3.24507 3.36152C2.48697 4.32472 2.01599 5.6614 2.01599 7.13866V7.13945V81.0753V81.0767C2.01599 82.5537 2.48697 83.8896 3.24507 84.8528C3.96249 85.7642 4.93639 86.3305 5.99243 86.3305H5.99269H36.1504H36.1511C37.2071 86.3305 38.1807 85.7642 38.8982 84.8532C39.6562 83.89 40.1271 82.5533 40.1271 81.0761V81.0753V7.13945V7.13788C40.1271 5.66101 39.6562 4.32472 38.8982 3.36191C38.2376 2.5225 37.3598 1.97618 36.4007 1.89475L37.0796 0.431255Z" fill="#363636"/>
</svg>
