<svg width="200" height="49" viewBox="0 0 200 49" fill="none" xmlns="http://www.w3.org/2000/svg">
<path fill-rule="evenodd" clip-rule="evenodd" d="M0 24.5C0 29.3456 1.44174 34.0825 4.1429 38.1115C6.84406 42.1405 10.6833 45.2807 15.1752 47.135C19.6671 48.9894 24.6098 49.4746 29.3783 48.5292C34.1469 47.5839 38.527 45.2505 41.965 41.8241C45.4029 38.3977 47.7441 34.0322 48.6927 29.2797C49.6412 24.5272 49.1544 19.601 47.2938 15.1243C45.4332 10.6475 42.2824 6.82109 38.2398 4.12899C34.1972 1.4369 29.4445 0 24.5825 0V0C18.0628 0 11.8102 2.58124 7.20005 7.17588C2.58994 11.7705 0 18.0022 0 24.5H0Z" fill="#363636"/>
<path fill-rule="evenodd" clip-rule="evenodd" d="M63.0594 23.1676C64.6714 24.0023 66.4538 24.4578 68.2698 24.4991C70.9418 24.4991 72.4114 23.1676 72.4114 21.5698C72.4114 19.972 70.2738 18.3741 67.869 18.3741H65.5978V14.6459H67.6018C69.3386 14.6459 71.6098 13.9801 71.6098 12.116C71.6098 10.2519 70.541 9.71926 68.2698 9.71926C66.6242 9.76815 65.0169 10.2258 63.5938 11.0508L62.525 7.32252C64.6492 6.15047 67.0445 5.55366 69.4722 5.59154C74.2818 5.59154 76.8203 8.12143 76.8203 11.1839C76.821 12.3888 76.4119 13.5583 75.6597 14.5015C74.9074 15.4447 73.8566 16.1058 72.6786 16.3769C74.0013 16.567 75.2124 17.2213 76.0941 18.2221C76.9757 19.2229 77.4701 20.5044 77.4883 21.8361C77.4883 25.6975 74.0146 28.6269 68.4034 28.6269C66.0764 28.6715 63.7766 28.1215 61.7234 27.029L63.0594 23.1676Z" fill="#363636"/>
<path fill-rule="evenodd" clip-rule="evenodd" d="M87.2412 24.2339H89.1116C93.9213 24.2339 96.9941 21.704 96.9941 16.1116C96.9941 10.5192 94.1885 8.78823 89.6461 8.78823L87.2412 9.05453V24.2339ZM82.0308 5.45942C84.3739 5.1012 86.7412 4.92314 89.1116 4.92681C93.5205 4.92681 96.4597 5.72573 98.5973 7.4567C99.8942 8.48218 100.924 9.80445 101.598 11.3112C102.273 12.818 102.572 14.4647 102.472 16.1116C102.554 17.8536 102.249 19.5922 101.579 21.2034C100.91 22.8145 99.8914 24.2585 98.5973 25.4322C96.1925 27.4295 92.4517 28.3616 87.9093 28.3616C85.8986 28.362 83.8901 28.2285 81.8972 27.9621L82.0308 5.45942Z" fill="#363636"/>
<path fill-rule="evenodd" clip-rule="evenodd" d="M111.423 28.2284L103.808 5.05991H107.014L110.621 16.3778C111.556 19.4403 112.492 22.3697 113.16 25.0327H113.293C113.961 22.3697 114.896 19.4403 115.965 16.3778L119.84 4.92676H122.912L114.629 28.2284H111.423Z" fill="#363636"/>
<path d="M128.524 5.06055H125.451V28.1758H128.524V5.06055Z" fill="#363636"/>
<path fill-rule="evenodd" clip-rule="evenodd" d="M133.333 24.633C134.944 25.6057 136.794 26.1128 138.677 26.0976C141.75 26.0976 143.487 24.4998 143.487 22.1031C143.487 19.7063 142.285 18.7743 139.078 17.5759C135.872 16.3775 132.933 14.2471 132.933 11.0514C132.933 7.85579 135.872 4.79329 140.414 4.79329C142.17 4.71613 143.916 5.08256 145.491 5.85851L144.689 8.25525C143.343 7.51102 141.82 7.14299 140.281 7.19003C137.074 7.19003 135.872 9.05416 135.872 10.652C135.872 12.2498 137.341 13.8476 140.548 15.046C143.754 16.2444 146.426 18.3748 146.426 21.8368C146.426 25.2987 143.754 28.4944 138.277 28.4944C136.224 28.5143 134.2 28.0101 132.398 27.0297L133.333 24.633Z" fill="#363636"/>
<path d="M153.641 5.06055H150.568V28.1758H153.641V5.06055Z" fill="#363636"/>
<path fill-rule="evenodd" clip-rule="evenodd" d="M160.722 16.777C160.722 21.7036 163.394 26.2308 168.203 26.2308C173.013 26.2308 175.685 21.8368 175.685 16.6438C175.685 11.4509 173.28 7.19005 168.337 7.19005C163.394 7.19005 160.855 11.7172 160.855 16.777H160.722ZM178.758 16.3775C178.758 24.2335 173.948 28.4944 167.936 28.4944C161.924 28.4944 157.515 23.7009 157.515 16.777C157.515 9.85309 162.058 4.66016 168.203 4.66016C174.349 4.66016 178.758 9.58679 178.758 16.3775Z" fill="#363636"/>
<path fill-rule="evenodd" clip-rule="evenodd" d="M182.632 28.229V5.06055H185.972L193.32 16.7779C194.863 19.1704 196.246 21.6613 197.462 24.2345H197.595C197.328 21.172 197.194 18.3758 197.194 14.7807V5.06055H200V28.229H196.927L189.579 16.5116C187.986 14.0336 186.558 11.4537 185.304 8.78881H185.17C185.304 11.7182 185.438 14.5143 185.438 18.3758V28.229H182.632Z" fill="#363636"/>
<path fill-rule="evenodd" clip-rule="evenodd" d="M64.6627 35.6849H65.5979V42.4757H69.3387V35.6849H70.2739V42.4757H70.9419V45.5382H70.1403V43.4077H64.6627V35.6849ZM75.4843 41.5436H76.4195C76.308 42.0638 76.026 42.5322 75.6179 42.8751C75.1237 43.2426 74.5122 43.4182 73.8976 43.3692C73.2829 43.3202 72.7072 43.0499 72.2779 42.6088C71.7943 42.0077 71.5558 41.247 71.6099 40.4784C71.5684 39.7113 71.8056 38.955 72.2779 38.348C72.4853 38.0895 72.7502 37.8827 73.0517 37.7441C73.3531 37.6054 73.6829 37.5386 74.0147 37.549C74.3466 37.5386 74.6763 37.6054 74.9778 37.7441C75.2793 37.8827 75.5442 38.0895 75.7515 38.348C76.2239 38.955 76.461 39.7113 76.4195 40.4784V40.7447H72.5451C72.5737 41.2345 72.7613 41.7018 73.0795 42.0762C73.204 42.2416 73.3653 42.3758 73.5509 42.4682C73.7364 42.5607 73.9409 42.6088 74.1483 42.6088L74.9499 42.3425C75.2159 42.0908 75.4018 41.7666 75.4843 41.4105V41.5436ZM72.5451 40.0789H75.4843C75.4969 39.706 75.4043 39.3369 75.2171 39.0137C75.0927 38.8483 74.9313 38.7141 74.7458 38.6217C74.5603 38.5292 74.3557 38.4811 74.1483 38.4811C73.9516 38.4649 73.7538 38.4923 73.569 38.5613C73.3842 38.6304 73.217 38.7394 73.0795 38.8806C72.7992 39.2154 72.6561 39.6434 72.6787 40.0789H72.5451ZM77.4883 37.8153H78.4235V40.0789H80.8284V37.8153H81.7636V43.4077H80.8284V40.8778H78.4235V43.2746H77.4883V37.8153ZM82.5652 37.8153H86.7068V38.6143H85.1036V43.4077H84.1684V38.6143H82.5652V37.8153ZM87.642 45.405V37.8153H88.4436V38.6143L89.1116 37.9485L89.9132 37.6822C90.3468 37.6822 90.7687 37.8224 91.1156 38.0816C91.4839 38.3486 91.7632 38.7197 91.9172 39.1469C92.0976 39.6141 92.1882 40.1109 92.1844 40.6115C92.1915 41.1124 92.1008 41.6099 91.9172 42.0762C91.7632 42.5034 91.4839 42.8745 91.1156 43.1414L89.9132 43.5409H89.1116L88.5772 43.0083V45.6713L87.642 45.405ZM88.4436 40.6115C88.3946 41.1738 88.5357 41.7362 88.8444 42.2094C88.948 42.3645 89.0865 42.4934 89.2488 42.5859C89.4112 42.6783 89.5929 42.7318 89.7796 42.742C89.9663 42.7318 90.148 42.6783 90.3104 42.5859C90.4727 42.4934 90.6112 42.3645 90.7148 42.2094C91.0145 41.7323 91.1548 41.173 91.1156 40.6115C91.1646 40.0493 91.0235 39.4869 90.7148 39.0137C90.6112 38.8586 90.4727 38.7297 90.3104 38.6372C90.148 38.5447 89.9663 38.4913 89.7796 38.4811C89.5929 38.4913 89.4112 38.5447 89.2488 38.6372C89.0865 38.7297 88.948 38.8586 88.8444 39.0137C88.5447 39.4907 88.4044 40.0501 88.4436 40.6115ZM95.7916 39.6795C95.7268 38.6211 96.0602 37.5766 96.7268 36.7501C97.0293 36.4131 97.4 36.1439 97.8145 35.9603C98.2291 35.7767 98.678 35.6828 99.1316 35.6849C99.75 35.6918 100.353 35.8768 100.868 36.2175C101.408 36.5736 101.828 37.0842 102.071 37.6822C102.346 38.3116 102.483 38.9928 102.472 39.6795C102.503 40.4108 102.366 41.1396 102.071 41.8099C101.812 42.3633 101.393 42.827 100.868 43.1414C100.35 43.4755 99.7488 43.6599 99.1316 43.674C98.4679 43.6938 97.8143 43.5077 97.2612 43.1414C96.7267 42.7794 96.309 42.2706 96.0588 41.6768C95.794 41.0908 95.6573 40.4553 95.658 39.8126L95.7916 39.6795ZM96.7268 39.6795C96.6853 40.4466 96.9225 41.2029 97.3948 41.8099C97.608 42.0621 97.8739 42.2648 98.1739 42.4038C98.4739 42.5428 98.8008 42.6149 99.1316 42.6149C99.4625 42.6149 99.7894 42.5428 100.089 42.4038C100.389 42.2648 100.655 42.0621 100.868 41.8099C101.361 41.162 101.599 40.3568 101.536 39.5463C101.554 39.0014 101.463 38.4583 101.269 37.9485C101.108 37.5251 100.83 37.1558 100.468 36.8833C100.075 36.6138 99.608 36.474 99.1316 36.4838C98.8027 36.4915 98.4788 36.5663 98.1801 36.7038C97.8814 36.8412 97.6141 37.0382 97.3948 37.2827C96.8819 37.9716 96.6439 38.8257 96.7268 39.6795ZM107.415 35.5518H108.216C108.208 35.8384 108.115 36.1162 107.949 36.3507L107.548 36.617H106.48L105.01 36.8833C104.764 37.0408 104.576 37.2747 104.476 37.549C104.361 37.9831 104.316 38.4325 104.342 38.8806L105.144 38.0816L106.079 37.8153C106.411 37.8049 106.74 37.8717 107.042 38.0104C107.343 38.149 107.608 38.3558 107.816 38.6143C108.279 39.1745 108.517 39.8863 108.484 40.6115C108.486 41.1692 108.349 41.7186 108.083 42.2094C107.888 42.5754 107.614 42.8938 107.281 43.1414C106.93 43.3927 106.511 43.5319 106.079 43.5409C105.556 43.5921 105.033 43.4499 104.609 43.1414C104.246 42.8147 103.971 42.4028 103.808 41.9431C103.591 41.1634 103.501 40.3543 103.54 39.5463C103.422 38.5226 103.658 37.4892 104.208 36.617C104.489 36.3419 104.824 36.1287 105.192 35.991C105.56 35.8534 105.953 35.7945 106.346 35.8181H107.548L107.415 35.5518ZM107.415 40.6115C107.444 40.0929 107.303 39.5789 107.014 39.1469C106.898 38.9729 106.738 38.8323 106.551 38.7389C106.363 38.6454 106.155 38.6025 105.945 38.6143C105.738 38.6143 105.533 38.6624 105.348 38.7548C105.162 38.8473 105.001 38.9815 104.876 39.1469C104.577 39.6239 104.436 40.1833 104.476 40.7447C104.436 41.2643 104.578 41.7817 104.876 42.2094C105.001 42.3747 105.162 42.509 105.348 42.6014C105.533 42.6938 105.738 42.742 105.945 42.742C106.155 42.7537 106.363 42.7108 106.551 42.6174C106.738 42.5239 106.898 42.3833 107.014 42.2094C107.314 41.7323 107.454 41.173 107.415 40.6115ZM108.617 37.8153H110.888V39.9458H111.957C112.582 39.9036 113.201 40.0933 113.694 40.4784C113.863 40.6291 113.998 40.8138 114.09 41.0204C114.182 41.227 114.23 41.4507 114.229 41.6768C114.23 41.9028 114.182 42.1265 114.09 42.3331C113.998 42.5397 113.863 42.7244 113.694 42.8751C113.265 43.1729 112.746 43.314 112.224 43.2746H110.087V38.6143H108.617V37.8153ZM110.888 42.6088H111.824L113.026 42.3425C113.144 42.2747 113.243 42.1779 113.313 42.0614C113.383 41.9449 113.422 41.8125 113.427 41.6768C113.437 41.5527 113.419 41.4279 113.372 41.3123C113.326 41.1967 113.253 41.0935 113.16 41.011L112.091 40.7447H110.888V42.6088ZM118.771 41.5436H119.706C119.595 42.0638 119.313 42.5322 118.905 42.8751C118.41 43.2426 117.799 43.4182 117.184 43.3692C116.57 43.3202 115.994 43.0499 115.565 42.6088C115.081 42.0077 114.842 41.247 114.897 40.4784C114.855 39.7113 115.092 38.955 115.565 38.348C115.772 38.0895 116.037 37.8827 116.338 37.7441C116.64 37.6054 116.969 37.5386 117.301 37.549C117.633 37.5386 117.963 37.6054 118.264 37.7441C118.566 37.8827 118.831 38.0895 119.038 38.348C119.51 38.955 119.748 39.7113 119.706 40.4784V40.7447H115.965C115.994 41.2345 116.181 41.7018 116.5 42.0762C116.624 42.2416 116.786 42.3758 116.971 42.4682C117.157 42.5607 117.361 42.6088 117.569 42.6088L118.37 42.3425C118.636 42.0908 118.822 41.7666 118.905 41.4105L118.771 41.5436ZM115.832 40.0789H118.905C118.917 39.706 118.825 39.3369 118.637 39.0137C118.513 38.8483 118.352 38.7141 118.166 38.6217C117.98 38.5292 117.776 38.4811 117.569 38.4811C117.372 38.4649 117.174 38.4923 116.989 38.5613C116.804 38.6304 116.637 38.7394 116.5 38.8806C116.219 39.2154 116.076 39.6434 116.099 40.0789H115.832ZM120.775 37.8153H122.111L123.447 42.2094L124.917 37.8153H126.119V43.4077H125.184V38.8806L123.714 43.2746H122.913L121.443 38.6143V43.2746H120.641V37.8153H120.775ZM127.589 37.8153H128.524V40.0789H130.929V37.8153H131.864V43.4077H130.929V40.8778H128.657V43.2746H127.722V37.8153H127.589ZM138.009 37.8153H138.945V43.4077H138.009V37.8153ZM133.066 37.8153H134.001V39.9458H135.07C135.678 39.8769 136.291 40.0179 136.807 40.3452C136.983 40.4899 137.124 40.6735 137.216 40.8815C137.309 41.0895 137.352 41.3162 137.341 41.5436C137.342 41.7697 137.295 41.9934 137.203 42.1999C137.111 42.4065 136.976 42.5913 136.807 42.742C136.59 42.9347 136.336 43.0813 136.06 43.1729C135.785 43.2645 135.493 43.2991 135.204 43.2746H133.333V37.8153H133.066ZM134.001 42.6088H134.937L136.139 42.3425C136.257 42.2747 136.356 42.1779 136.426 42.0614C136.496 41.9449 136.535 41.8125 136.54 41.6768C136.542 41.5537 136.519 41.4315 136.473 41.3172C136.427 41.203 136.359 41.0989 136.273 41.011C135.918 40.7788 135.49 40.6841 135.07 40.7447H134.001V42.6088ZM139.613 43.4077L141.483 40.4784L139.746 37.8153H140.815L141.617 39.1469L142.017 39.8126L142.418 39.1469L143.22 37.8153H144.289L142.552 40.4784L144.422 43.4077H143.353L142.285 41.6768L142.017 41.2773L140.681 43.4077H139.613ZM149.9 43.4077V36.617H147.495V35.6849H153.106V36.617H150.701V43.4077H149.9ZM157.114 41.6768H158.05C157.938 42.197 157.656 42.6654 157.248 43.0083C156.754 43.3758 156.142 43.5514 155.528 43.5024C154.913 43.4534 154.337 43.1831 153.908 42.742C153.424 42.1409 153.186 41.3801 153.24 40.6115C153.198 39.8445 153.436 39.0881 153.908 38.4811C154.115 38.2227 154.38 38.0159 154.682 37.8772C154.983 37.7385 155.313 37.6718 155.645 37.6822C155.977 37.6718 156.306 37.7385 156.608 37.8772C156.909 38.0159 157.174 38.2227 157.382 38.4811C157.854 39.0881 158.091 39.8445 158.05 40.6115V40.8778H154.175C154.204 41.3677 154.391 41.835 154.709 42.2094C154.834 42.3747 154.995 42.509 155.181 42.6014C155.366 42.6938 155.571 42.742 155.778 42.742L156.58 42.4757C156.846 42.2239 157.032 41.8998 157.114 41.5436V41.6768ZM154.175 40.2121H157.114C157.127 39.8391 157.034 39.4701 156.847 39.1469C156.723 38.9815 156.561 38.8473 156.376 38.7548C156.19 38.6624 155.986 38.6143 155.778 38.6143C155.582 38.598 155.384 38.6254 155.199 38.6945C155.014 38.7636 154.847 38.8726 154.709 39.0137C154.429 39.3486 154.286 39.7766 154.309 40.2121H154.175ZM158.317 43.5409L160.187 40.6115L158.45 37.9485H159.519L160.321 39.28L160.722 39.9458L161.122 39.28L161.924 37.9485H162.993L161.256 40.6115L163.126 43.5409H162.058L160.989 41.8099L160.722 41.4105L159.386 43.5409H158.317ZM163.928 37.9485H164.863V40.2121H167.268V37.8153H168.203V43.4077H167.268V40.8778H164.863V43.2746H163.928V37.8153V37.9485ZM169.138 40.7447C169.104 40.3324 169.158 39.9175 169.296 39.5273C169.434 39.1372 169.654 38.7806 169.94 38.4811C170.365 38.0563 170.941 37.8168 171.543 37.8153C171.874 37.8146 172.2 37.8857 172.5 38.0237C172.8 38.1617 173.066 38.3632 173.28 38.6143C173.743 39.1745 173.981 39.8863 173.948 40.6115C173.993 41.2013 173.902 41.7935 173.681 42.3425C173.469 42.7388 173.143 43.0632 172.746 43.2746L171.543 43.674C171.213 43.6748 170.886 43.6037 170.586 43.4657C170.286 43.3277 170.02 43.1262 169.806 42.8751C169.323 42.274 169.084 41.5133 169.138 40.7447ZM170.074 40.7447C170.014 41.3078 170.156 41.8738 170.474 42.3425C170.599 42.5079 170.76 42.6421 170.946 42.7346C171.131 42.827 171.336 42.8751 171.543 42.8751C171.751 42.8751 171.955 42.827 172.141 42.7346C172.326 42.6421 172.488 42.5079 172.612 42.3425C172.921 41.8694 173.062 41.3069 173.013 40.7447C173.073 40.1816 172.931 39.6156 172.612 39.1469C172.488 38.9815 172.326 38.8473 172.141 38.7548C171.955 38.6624 171.751 38.6143 171.543 38.6143C171.336 38.6143 171.131 38.6624 170.946 38.7548C170.76 38.8473 170.599 38.9815 170.474 39.1469C170.156 39.6156 170.014 40.1816 170.074 40.7447ZM175.284 37.9485H179.426V43.4077H178.49V38.6143H176.219V41.4105C176.253 41.8536 176.253 42.2988 176.219 42.742C176.191 42.9438 176.097 43.1309 175.952 43.2746L175.15 43.5409H174.482V42.6088H175.418C175.439 42.343 175.439 42.0758 175.418 41.8099V37.8153L175.284 37.9485ZM180.494 40.7447C180.46 40.3324 180.514 39.9175 180.652 39.5273C180.79 39.1372 181.01 38.7806 181.296 38.4811C181.721 38.0563 182.297 37.8168 182.899 37.8153C183.23 37.8146 183.556 37.8857 183.856 38.0237C184.156 38.1617 184.422 38.3632 184.636 38.6143C185.099 39.1745 185.337 39.8863 185.304 40.6115C185.349 41.2013 185.258 41.7935 185.037 42.3425C184.825 42.7388 184.499 43.0632 184.102 43.2746L182.899 43.674C182.569 43.6748 182.242 43.6037 181.942 43.4657C181.642 43.3277 181.376 43.1262 181.162 42.8751C180.679 42.274 180.44 41.5133 180.494 40.7447ZM181.43 40.7447C181.37 41.3078 181.512 41.8738 181.83 42.3425C181.955 42.5079 182.116 42.6421 182.302 42.7346C182.487 42.827 182.692 42.8751 182.899 42.8751C183.107 42.8751 183.311 42.827 183.497 42.7346C183.682 42.6421 183.844 42.5079 183.968 42.3425C184.277 41.8694 184.418 41.3069 184.369 40.7447C184.429 40.1816 184.287 39.6156 183.968 39.1469C183.844 38.9815 183.682 38.8473 183.497 38.7548C183.311 38.6624 183.107 38.6143 182.899 38.6143C182.692 38.6143 182.487 38.6624 182.302 38.7548C182.116 38.8473 181.955 38.9815 181.83 39.1469C181.512 39.6156 181.37 40.1816 181.43 40.7447ZM186.373 37.9485H189.312V38.6143H187.174V43.4077H186.239V37.8153L186.373 37.9485ZM189.98 37.9485H190.915V42.2094L193.32 37.9485H194.255V43.5409H193.32V39.1469L191.049 43.4077H190.114V37.8153L189.98 37.9485ZM195.591 37.9485H196.526V42.2094L198.931 37.9485H199.867V43.5409H199.065V39.1469L196.66 43.2746H195.725V37.8153L195.591 37.9485ZM198.664 35.9512H199.198C199.201 36.3433 199.058 36.7224 198.798 37.0164C198.513 37.2433 198.16 37.367 197.796 37.367C197.431 37.367 197.078 37.2433 196.794 37.0164C196.533 36.7224 196.391 36.3433 196.393 35.9512H196.927C196.956 36.1531 197.049 36.3402 197.194 36.4838H198.397C198.483 36.3959 198.551 36.2918 198.597 36.1776C198.643 36.0633 198.666 35.9411 198.664 35.8181V35.9512Z" fill="#363636"/>
</svg>
