<svg width="186" height="20" viewBox="0 0 186 20" fill="none" xmlns="http://www.w3.org/2000/svg">
<path d="M182.003 4.29179C182.221 4.49429 182.468 4.65823 182.745 4.77395C183.329 5.01503 183.982 5.01503 184.565 4.77395C184.842 4.65823 185.09 4.49429 185.307 4.29179C185.525 4.08928 185.693 3.83856 185.812 3.56855C185.931 3.28889 186 2.98995 185.99 2.69101C185.99 2.38243 185.931 2.08349 185.812 1.80384C185.693 1.53383 185.525 1.29275 185.317 1.09024C185.1 0.887735 184.852 0.723801 184.575 0.608083C184.288 0.492364 183.972 0.424862 183.655 0.434505C183.339 0.434505 183.032 0.492364 182.745 0.608083C182.468 0.723801 182.221 0.887735 182.003 1.09024C181.785 1.29275 181.617 1.54347 181.498 1.81348C181.38 2.09314 181.31 2.39207 181.32 2.69101C181.33 3.28889 181.568 3.86748 182.003 4.29179ZM181.894 1.94849C181.993 1.72669 182.132 1.52419 182.3 1.35061C182.478 1.17703 182.676 1.04203 182.913 0.955238C183.635 0.656299 184.476 0.81059 185.03 1.36025C185.209 1.53383 185.337 1.73634 185.436 1.95813C185.535 2.18957 185.584 2.44029 185.584 2.69101C185.584 3.73248 184.714 4.57144 183.655 4.57144C183.398 4.57144 183.151 4.52322 182.913 4.42679C182.686 4.33036 182.478 4.19535 182.3 4.02178C182.122 3.8482 181.993 3.64569 181.894 3.4239C181.795 3.19246 181.746 2.94174 181.746 2.69101C181.746 2.43065 181.795 2.17992 181.894 1.94849Z" fill="#363636"/>
<path d="M183.665 3.99209C183.804 3.99209 183.942 3.9728 184.081 3.92459C184.199 3.88602 184.308 3.82816 184.407 3.75101C184.496 3.68351 184.575 3.59672 184.625 3.50029C184.684 3.40386 184.714 3.30742 184.734 3.20135H184.318C184.288 3.31707 184.209 3.43279 184.11 3.50993C183.982 3.59672 183.823 3.64494 183.655 3.63529C183.457 3.64494 183.269 3.56779 183.131 3.42314C182.992 3.27849 182.933 3.07599 182.933 2.79633V2.58418C182.933 2.30453 183.002 2.09238 183.131 1.95738C183.388 1.7163 183.784 1.67772 184.091 1.86094C184.18 1.9188 184.249 2.00559 184.298 2.10202H184.724C184.704 2.00559 184.664 1.9188 184.615 1.83201C184.556 1.74523 184.486 1.66808 184.397 1.60058C184.298 1.53308 184.189 1.47522 184.071 1.43664C183.932 1.38843 183.794 1.36914 183.655 1.36914C183.497 1.36914 183.339 1.39807 183.19 1.45593C183.052 1.50415 182.933 1.59093 182.834 1.68737C182.725 1.79344 182.646 1.92845 182.606 2.06345C182.547 2.22739 182.517 2.40096 182.527 2.57454V2.78669C182.527 3.17242 182.626 3.47136 182.834 3.68351C183.062 3.89566 183.358 4.01138 183.665 3.99209Z" fill="#363636"/>
<path d="M4.27403 0.415039L14.7316 19.5857H19.0452L8.58765 0.415039H4.27403Z" fill="#363636"/>
<path d="M19.0452 19.5857H23.3489L33.8065 0.415039H29.4929L19.0452 19.5857Z" fill="#363636"/>
<path d="M181.518 19.5857H186L173.712 0.415039H169.22L177.096 12.6908H161.355L169.22 0.415039H164.739L152.451 19.5857H156.933L159.327 15.8538H179.124L181.518 19.5857Z" fill="#363636"/>
<path d="M38.0805 0.415039H33.8065V19.5857H38.0805V0.415039Z" fill="#363636"/>
<path d="M4.27404 0.415039H0V19.5857H4.27404V0.415039Z" fill="#363636"/>
<path d="M84.2046 0.415039H79.9305V19.5857H102.735V16.4228H84.2046V0.415039Z" fill="#363636"/>
<path d="M111.244 0.415039H106.97V19.5857H111.244V0.415039Z" fill="#363636"/>
<path d="M136.947 0.415039H132.673V19.5857H136.947V0.415039Z" fill="#363636"/>
<path d="M148.256 0.415039H143.982V19.5857H148.256V0.415039Z" fill="#363636"/>
<path d="M111.244 0.415039L127.746 19.5857H132.673L116.171 0.415039H111.244Z" fill="#363636"/>
<path d="M59.0055 0C49.5967 0 43.2054 4.00193 43.2054 10C43.2054 15.9981 49.6066 20 59.0055 20C68.4045 20 74.8056 15.9981 74.8056 10C74.8056 4.00193 68.4144 0 59.0055 0ZM59.0055 16.837C52.8418 16.837 47.4795 14.8023 47.4795 10C47.4795 5.19769 52.8517 3.16297 59.0055 3.16297C65.1594 3.16297 70.5415 5.19769 70.5415 10C70.5415 14.8023 65.1693 16.837 59.0055 16.837Z" fill="#363636"/>
</svg>
