<svg width="24" height="24" viewBox="0 0 24 24" fill="none" xmlns="http://www.w3.org/2000/svg">
<path d="M4 4C2.895 4 2 4.895 2 6V18C2 19.105 2.895 20 4 20H12.1719L13.5859 18.5859L14.1719 18H4V9.00195L12 14L20 9.00195V12.1719L22 10.1719V6C22 4.895 21.105 4 20 4H4ZM4 6H20V7.00195L12 12L4 7.00195V6ZM22.207 13C22.0792 13 21.951 13.049 21.8535 13.1465L20.8535 14.1465L22.8535 16.1465L23.8535 15.1465C24.0485 14.9515 24.0485 14.6345 23.8535 14.4395L22.5605 13.1465C22.4625 13.049 22.3349 13 22.207 13ZM20.1465 14.8535L15 20V22H17L22.1465 16.8535L20.1465 14.8535Z" fill="white"/>
</svg>
