<svg width="22" height="30" viewBox="0 0 22 30" fill="none" xmlns="http://www.w3.org/2000/svg">
<path d="M14.8043 10.1935V9.77402C14.8043 8.86515 14.1106 8.13107 13.2435 8.13107C12.3764 8.13107 11.6827 8.86515 11.6827 9.77402V11.1723" stroke="white" stroke-width="1.5" stroke-miterlimit="10" stroke-linecap="round" stroke-linejoin="round"/>
<path d="M17.9257 10.6829V10.1935C17.9257 9.28465 17.2321 8.55057 16.365 8.55057C15.4979 8.55057 14.8042 9.28465 14.8042 10.1935V11.4519" stroke="white" stroke-width="1.5" stroke-miterlimit="10" stroke-linecap="round" stroke-linejoin="round"/>
<path d="M19.001 25.2946C19.001 20.6105 20.7698 20.4007 20.9779 14.4582C21.0473 12.221 20.9432 11.5568 20.8045 10.6479C20.6658 9.84393 20.1802 9.14481 19.3825 9.14481C18.5848 9.14481 17.9604 9.80898 17.9604 10.6479V11.6966" stroke="white" stroke-width="1.5" stroke-miterlimit="10" stroke-linecap="round" stroke-linejoin="round"/>
<path d="M8.56116 14.4582V2.64295C8.56116 1.73408 9.25483 1 10.1219 1C10.989 1 11.7174 1.73408 11.7174 2.64295V9.77403" stroke="white" stroke-width="1.5" stroke-miterlimit="10" stroke-linecap="round" stroke-linejoin="round"/>
<path d="M9.0468 25.2946C9.0468 22.4282 5.82122 18.1286 5.61312 14.9476C5.33565 10.8577 8.56123 11.4519 8.56123 11.4519" stroke="white" stroke-width="1.5" stroke-miterlimit="10" stroke-linecap="round" stroke-linejoin="round"/>
<path d="M19.001 29H9.04674C8.4918 29 8.00623 28.5456 8.00623 27.9513V26.3783C8.00623 25.819 8.45711 25.3296 9.04674 25.3296H19.001C19.5559 25.3296 20.0415 25.784 20.0415 26.3783V27.9513C20.0415 28.5106 19.5559 29 19.001 29Z" stroke="white" stroke-width="1.5" stroke-miterlimit="10" stroke-linecap="round" stroke-linejoin="round"/>
<path d="M6.44534 3.44693H1" stroke="white" stroke-width="1.5" stroke-miterlimit="10" stroke-linecap="round" stroke-linejoin="round"/>
<path d="M3.42786 1.03522L1 3.4472L3.42786 5.85919" stroke="white" stroke-width="1.5" stroke-miterlimit="10" stroke-linecap="round" stroke-linejoin="round"/>
<path d="M17.5788 3.44693H13.5902" stroke="white" stroke-width="1.5" stroke-miterlimit="10" stroke-linecap="round" stroke-linejoin="round" stroke-dasharray="0.3 0.3"/>
</svg>
