<svg width="31" height="50" viewBox="0 0 31 50" fill="none" xmlns="http://www.w3.org/2000/svg">
<path d="M20.4506 21.263V20.6691C20.4506 19.3624 19.4546 18.2933 18.2243 18.2933C16.994 18.2933 15.998 19.3624 15.998 20.6691V22.6885" stroke="var(--fill)" stroke-width="2" stroke-miterlimit="10" stroke-linecap="round" stroke-linejoin="round"/>
<path d="M24.9031 21.9164V21.2036C24.9031 19.897 23.9071 18.8279 22.6768 18.8279C21.4465 18.8279 20.4506 19.897 20.4506 21.2036V22.9855" stroke="var(--fill)" stroke-width="2" stroke-miterlimit="10" stroke-linecap="round" stroke-linejoin="round"/>
<path d="M26.4263 43.0013C26.4263 36.2304 28.9455 35.9928 29.2384 27.4401C29.3556 24.2328 29.1798 23.2825 29.0041 21.9758C28.8283 20.7879 28.0667 19.8376 26.9536 19.8376C25.8405 19.8376 24.9031 20.7879 24.9031 21.9758V23.4607" stroke="var(--fill)" stroke-width="2" stroke-miterlimit="10" stroke-linecap="round" stroke-linejoin="round"/>
<path d="M26.4262 48.2872H12.1899C11.3697 48.2872 10.7252 47.6339 10.7252 46.8024V44.5454C10.7252 43.7139 11.3697 43.0605 12.1899 43.0605H26.4262C27.2464 43.0605 27.8909 43.7139 27.8909 44.5454V46.8024C27.8909 47.5745 27.2464 48.2872 26.4262 48.2872Z" stroke="var(--fill)" stroke-width="2" stroke-miterlimit="10" stroke-linecap="round" stroke-linejoin="round"/>
<path d="M12.1899 43.0013C12.1899 40.5067 9.96362 37.2401 8.61614 35.2801C5.21816 30.291 5.27675 28.8655 3.69493 26.0146C2.28887 23.5201 1.41008 21.5601 2.75756 20.8473C3.69493 20.3722 5.56968 20.9661 7.32725 23.2825C7.91311 24.0546 8.73332 25.5395 9.55352 26.5492C10.198 27.3213 11.4283 26.9055 11.4283 25.8958V10.4534C11.4283 9.14673 12.4242 8.07764 13.6545 8.07764C14.8848 8.07764 15.9394 9.14673 15.9394 10.4534V20.6692" stroke="var(--fill)" stroke-width="2" stroke-miterlimit="10" stroke-linecap="round" stroke-linejoin="round"/>
<path d="M4.80811 9.91882V17.4025" stroke="var(--fill)" stroke-width="2" stroke-miterlimit="10" stroke-linecap="round" stroke-linejoin="round"/>
<path d="M1.7616 14.2545L4.80806 17.4024L7.85453 14.2545" stroke="var(--fill)" stroke-width="2" stroke-miterlimit="10" stroke-linecap="round" stroke-linejoin="round"/>
<path d="M5 1L5 2" stroke="var(--fill)" stroke-width="2" stroke-miterlimit="10" stroke-linecap="round" stroke-linejoin="round" stroke-dasharray="0.28 0.28"/>
<path d="M5 5L5 6" stroke="var(--fill)" stroke-width="2" stroke-miterlimit="10" stroke-linecap="round" stroke-linejoin="round" stroke-dasharray="0.28 0.28"/>
</svg>
