<svg width="56" height="57" viewBox="0 0 56 57" fill="none" xmlns="http://www.w3.org/2000/svg">
<path d="M0.621548 43.4463V38.4832H1.37862V39.2356C1.57179 38.8836 1.74937 38.6515 1.91138 38.5393C2.0765 38.4272 2.2572 38.3711 2.45348 38.3711C2.73699 38.3711 3.02518 38.4614 3.31804 38.6421L3.0283 39.4226C2.82267 39.3011 2.61705 39.2403 2.41142 39.2403C2.2276 39.2403 2.06248 39.2964 1.91605 39.4086C1.76962 39.5176 1.66525 39.6703 1.60294 39.8665C1.50947 40.1656 1.46274 40.4928 1.46274 40.8479V43.4463H0.621548ZM7.21557 41.848L8.0848 41.9555C7.94772 42.4633 7.6938 42.8575 7.32305 43.1379C6.95231 43.4182 6.47875 43.5584 5.90237 43.5584C5.17645 43.5584 4.60008 43.3357 4.17325 42.8902C3.74954 42.4415 3.53768 41.8138 3.53768 41.0068C3.53768 40.1719 3.75266 39.5238 4.1826 39.0627C4.61254 38.6016 5.17022 38.3711 5.85564 38.3711C6.51925 38.3711 7.06135 38.597 7.48195 39.0487C7.90254 39.5005 8.11284 40.136 8.11284 40.9554C8.11284 41.0053 8.11128 41.08 8.10817 41.1797H4.40692C4.43807 41.725 4.59229 42.1424 4.86957 42.4322C5.14686 42.7219 5.49268 42.8668 5.90705 42.8668C6.21548 42.8668 6.47875 42.7858 6.69683 42.6238C6.91492 42.4618 7.08783 42.2032 7.21557 41.848ZM4.45365 40.4881H7.22492C7.18753 40.0706 7.0816 39.7575 6.90713 39.5488C6.6392 39.2247 6.29181 39.0627 5.86499 39.0627C5.47866 39.0627 5.15309 39.192 4.88827 39.4506C4.62656 39.7092 4.48169 40.055 4.45365 40.4881ZM14.1414 41.0442L15.048 41.2732C14.858 42.0178 14.5153 42.5864 14.0199 42.979C13.5276 43.3684 12.9248 43.5631 12.2113 43.5631C11.4729 43.5631 10.8716 43.4136 10.4074 43.1145C9.94633 42.8123 9.59428 42.3761 9.35126 41.806C9.11137 41.2358 8.99142 40.6236 8.99142 39.9694C8.99142 39.2559 9.12695 38.6344 9.398 38.1047C9.67216 37.572 10.06 37.1685 10.5616 36.8943C11.0664 36.617 11.6209 36.4784 12.2253 36.4784C12.9108 36.4784 13.4871 36.6529 13.9545 37.0018C14.4218 37.3508 14.7474 37.8414 14.9312 38.4739L14.0386 38.6842C13.8797 38.1857 13.6491 37.8228 13.3469 37.5953C13.0447 37.3679 12.6646 37.2542 12.2066 37.2542C11.6801 37.2542 11.2393 37.3804 10.8841 37.6327C10.5321 37.8851 10.2844 38.2247 10.1411 38.6515C9.99774 39.0752 9.92608 39.5129 9.92608 39.9647C9.92608 40.5473 10.0102 41.0567 10.1784 41.4929C10.3498 41.9259 10.6146 42.2499 10.9729 42.4649C11.3312 42.6799 11.7191 42.7874 12.1365 42.7874C12.6444 42.7874 13.0743 42.6409 13.4264 42.3481C13.7784 42.0552 14.0168 41.6206 14.1414 41.0442ZM15.4172 43.4463L18.0483 36.5952H19.025L21.829 43.4463H20.7962L19.997 41.3713H17.1323L16.3799 43.4463H15.4172ZM17.394 40.633H19.7166L19.0016 38.7356C18.7835 38.1592 18.6215 37.6857 18.5156 37.3149C18.4284 37.7542 18.3053 38.1904 18.1464 38.6234L17.394 40.633ZM22.5533 43.4463V36.5952H25.1377C25.5925 36.5952 25.9399 36.617 26.1798 36.6607C26.5163 36.7167 26.7982 36.8242 27.0257 36.9831C27.2531 37.1389 27.4354 37.3585 27.5724 37.6421C27.7126 37.9256 27.7827 38.2371 27.7827 38.5767C27.7827 39.1593 27.5974 39.6531 27.2266 40.0581C26.8559 40.4601 26.186 40.661 25.2171 40.661H23.4599V43.4463H22.5533ZM23.4599 39.8525H25.2311C25.8168 39.8525 26.2328 39.7435 26.4789 39.5254C26.725 39.3073 26.8481 39.0004 26.8481 38.6048C26.8481 38.3181 26.7749 38.0736 26.6284 37.871C26.4851 37.6654 26.2951 37.5299 26.0583 37.4645C25.9056 37.424 25.6237 37.4037 25.2124 37.4037H23.4599V39.8525ZM30.6802 43.4463V37.4037H28.423V36.5952H33.8534V37.4037H31.5868V43.4463H30.6802ZM39.6763 41.0442L40.5829 41.2732C40.3929 42.0178 40.0501 42.5864 39.5548 42.979C39.0625 43.3684 38.4597 43.5631 37.7462 43.5631C37.0078 43.5631 36.4065 43.4136 35.9423 43.1145C35.4812 42.8123 35.1292 42.3761 34.8862 41.806C34.6463 41.2358 34.5263 40.6236 34.5263 39.9694C34.5263 39.2559 34.6618 38.6344 34.9329 38.1047C35.2071 37.572 35.5949 37.1685 36.0965 36.8943C36.6013 36.617 37.1558 36.4784 37.7602 36.4784C38.4456 36.4784 39.022 36.6529 39.4893 37.0018C39.9567 37.3508 40.2823 37.8414 40.4661 38.4739L39.5735 38.6842C39.4146 38.1857 39.184 37.8228 38.8818 37.5953C38.5796 37.3679 38.1995 37.2542 37.7415 37.2542C37.215 37.2542 36.7742 37.3804 36.419 37.6327C36.0669 37.8851 35.8193 38.2247 35.6759 38.6515C35.5326 39.0752 35.461 39.5129 35.461 39.9647C35.461 40.5473 35.5451 41.0567 35.7133 41.4929C35.8847 41.9259 36.1495 42.2499 36.5078 42.4649C36.8661 42.6799 37.254 42.7874 37.6714 42.7874C38.1793 42.7874 38.6092 42.6409 38.9613 42.3481C39.3133 42.0552 39.5517 41.6206 39.6763 41.0442ZM41.7325 43.4463V36.5952H42.6392V39.4086H46.2002V36.5952H47.1068V43.4463H46.2002V40.217H42.6392V43.4463H41.7325ZM47.8686 43.4463L50.4996 36.5952H51.4764L54.2803 43.4463H53.2475L52.4484 41.3713H49.5837L48.8313 43.4463H47.8686ZM49.8454 40.633H52.168L51.453 38.7356C51.2349 38.1592 51.0729 37.6857 50.967 37.3149C50.8797 37.7542 50.7567 38.1904 50.5978 38.6234L49.8454 40.633Z" fill="#A5A5A5"/>
<path d="M0.628409 54.9785V49.1478H2.82784C3.21496 49.1478 3.51061 49.1664 3.71477 49.2035C4.00114 49.2512 4.2411 49.3427 4.43466 49.4779C4.62822 49.6105 4.78333 49.7975 4.9 50.0387C5.01932 50.28 5.07898 50.5452 5.07898 50.8342C5.07898 51.33 4.92121 51.7503 4.60568 52.095C4.29015 52.437 3.72008 52.6081 2.89545 52.6081H1.4V54.9785H0.628409ZM1.4 51.92H2.90739C3.40587 51.92 3.75985 51.8272 3.96932 51.6416C4.17879 51.456 4.28352 51.1948 4.28352 50.8581C4.28352 50.6141 4.22121 50.406 4.09659 50.2336C3.97462 50.0586 3.81288 49.9433 3.61136 49.8876C3.48144 49.8531 3.24148 49.8359 2.89148 49.8359H1.4V51.92ZM5.96193 54.9785V50.7547H6.60625V51.395C6.77064 51.0954 6.92178 50.8978 7.05966 50.8024C7.20019 50.7069 7.35398 50.6592 7.52102 50.6592C7.76231 50.6592 8.00758 50.7361 8.25682 50.8899L8.01023 51.5541C7.83523 51.4507 7.66023 51.399 7.48523 51.399C7.32879 51.399 7.18826 51.4467 7.06364 51.5422C6.93901 51.635 6.85019 51.7649 6.79716 51.9319C6.71761 52.1865 6.67784 52.4649 6.67784 52.7672V54.9785H5.96193ZM8.68636 49.9711V49.1478H9.40227V49.9711H8.68636ZM8.68636 54.9785V50.7547H9.40227V54.9785H8.68636ZM11.6693 54.9785L10.0625 50.7547H10.8182L11.725 53.2842C11.8231 53.5573 11.9133 53.841 11.9955 54.1353C12.0591 53.9126 12.1479 53.6448 12.2619 53.3319L13.2006 50.7547H13.9364L12.3375 54.9785H11.6693ZM17.325 54.4575C17.0598 54.6829 16.804 54.842 16.5574 54.9348C16.3134 55.0276 16.0509 55.074 15.7699 55.074C15.3059 55.074 14.9492 54.9613 14.7 54.7359C14.4508 54.5079 14.3261 54.2175 14.3261 53.8649C14.3261 53.6581 14.3725 53.4698 14.4653 53.3001C14.5608 53.1278 14.6841 52.9899 14.8352 52.8865C14.989 52.7831 15.1614 52.7048 15.3523 52.6518C15.4928 52.6147 15.7049 52.5789 15.9886 52.5444C16.5667 52.4755 16.9922 52.3933 17.2653 52.2978C17.268 52.1997 17.2693 52.1374 17.2693 52.1109C17.2693 51.8192 17.2017 51.6137 17.0665 51.4944C16.8835 51.3327 16.6117 51.2518 16.2511 51.2518C15.9144 51.2518 15.6652 51.3115 15.5034 51.4308C15.3443 51.5475 15.2263 51.7556 15.1494 52.0552L14.4494 51.9598C14.5131 51.6601 14.6178 51.4189 14.7636 51.2359C14.9095 51.0503 15.1203 50.9084 15.396 50.8103C15.6718 50.7096 15.9913 50.6592 16.3545 50.6592C16.7152 50.6592 17.0081 50.7016 17.2335 50.7865C17.4589 50.8713 17.6246 50.9787 17.7307 51.1086C17.8367 51.2359 17.911 51.3976 17.9534 51.5939C17.9773 51.7158 17.9892 51.9359 17.9892 52.2541V53.2086C17.9892 53.8742 18.0038 54.2958 18.033 54.4734C18.0648 54.6484 18.1258 54.8168 18.2159 54.9785H17.4682C17.3939 54.83 17.3462 54.6564 17.325 54.4575ZM17.2653 52.8586C17.0055 52.9647 16.6157 53.0548 16.096 53.1291C15.8017 53.1715 15.5936 53.2192 15.4716 53.2723C15.3496 53.3253 15.2555 53.4035 15.1892 53.5069C15.1229 53.6077 15.0898 53.7204 15.0898 53.845C15.0898 54.0359 15.1614 54.195 15.3045 54.3223C15.4504 54.4495 15.6625 54.5132 15.9409 54.5132C16.2167 54.5132 16.4619 54.4535 16.6767 54.3342C16.8915 54.2122 17.0492 54.0465 17.15 53.837C17.2269 53.6753 17.2653 53.4367 17.2653 53.1211V52.8586ZM21.8591 53.4314L22.5631 53.5228C22.4862 54.0081 22.2886 54.3886 21.9705 54.6643C21.6549 54.9374 21.2665 55.074 20.8051 55.074C20.2271 55.074 19.7617 54.8857 19.4091 54.5092C19.0591 54.13 18.8841 53.5878 18.8841 52.8825C18.8841 52.4264 18.9597 52.0274 19.1108 51.6853C19.2619 51.3433 19.4913 51.0874 19.7989 50.9177C20.1091 50.7454 20.4458 50.6592 20.8091 50.6592C21.2678 50.6592 21.643 50.7759 21.9347 51.0092C22.2263 51.2399 22.4133 51.5687 22.4955 51.9956L21.7994 52.1029C21.7331 51.8192 21.6152 51.6058 21.4455 51.4626C21.2784 51.3194 21.0756 51.2478 20.8369 51.2478C20.4763 51.2478 20.1833 51.3778 19.958 51.6376C19.7326 51.8948 19.6199 52.3031 19.6199 52.8626C19.6199 53.43 19.7286 53.8423 19.946 54.0995C20.1634 54.3567 20.4472 54.4853 20.7972 54.4853C21.0782 54.4853 21.3129 54.3992 21.5011 54.2268C21.6894 54.0545 21.8087 53.7893 21.8591 53.4314ZM23.1437 56.6052L23.0642 55.9331C23.2206 55.9755 23.3572 55.9967 23.4739 55.9967C23.633 55.9967 23.7602 55.9702 23.8557 55.9172C23.9511 55.8641 24.0294 55.7899 24.0903 55.6944C24.1354 55.6228 24.2083 55.4452 24.3091 55.1615C24.3223 55.1217 24.3436 55.0634 24.3727 54.9865L22.7699 50.7547H23.5415L24.4205 53.2007C24.5345 53.5109 24.6366 53.837 24.7267 54.1791C24.8089 53.8503 24.907 53.5295 25.021 53.2166L25.9239 50.7547H26.6398L25.033 55.0501C24.8606 55.5141 24.7267 55.8336 24.6312 56.0086C24.504 56.2446 24.3581 56.417 24.1937 56.5257C24.0294 56.637 23.8331 56.6927 23.6051 56.6927C23.4672 56.6927 23.3134 56.6636 23.1437 56.6052ZM29.2369 53.2285V52.5086H31.4364V53.2285H29.2369ZM35.9187 54.9785V49.8359H33.9977V49.1478H38.6193V49.8359H36.6903V54.9785H35.9187ZM41.308 53.6183L42.0477 53.7098C41.9311 54.142 41.715 54.4774 41.3994 54.716C41.0839 54.9547 40.6809 55.074 40.1903 55.074C39.5725 55.074 39.082 54.8844 38.7187 54.5052C38.3581 54.1234 38.1778 53.5891 38.1778 52.9024C38.1778 52.1918 38.3608 51.6403 38.7267 51.2478C39.0926 50.8554 39.5672 50.6592 40.1506 50.6592C40.7153 50.6592 41.1767 50.8514 41.5347 51.2359C41.8926 51.6204 42.0716 52.1613 42.0716 52.8586C42.0716 52.9011 42.0703 52.9647 42.0676 53.0495H38.9176C38.9441 53.5136 39.0754 53.8689 39.3114 54.1154C39.5473 54.362 39.8417 54.4853 40.1943 54.4853C40.4568 54.4853 40.6809 54.4164 40.8665 54.2785C41.0521 54.1406 41.1992 53.9206 41.308 53.6183ZM38.9574 52.4609H41.3159C41.2841 52.1056 41.1939 51.8391 41.0455 51.6615C40.8174 51.3857 40.5218 51.2478 40.1585 51.2478C39.8297 51.2478 39.5526 51.3579 39.3273 51.5779C39.1045 51.798 38.9812 52.0923 38.9574 52.4609ZM42.9426 54.9785V50.7547H43.5869V51.395C43.7513 51.0954 43.9025 50.8978 44.0403 50.8024C44.1809 50.7069 44.3347 50.6592 44.5017 50.6592C44.743 50.6592 44.9883 50.7361 45.2375 50.8899L44.9909 51.5541C44.8159 51.4507 44.6409 51.399 44.4659 51.399C44.3095 51.399 44.1689 51.4467 44.0443 51.5422C43.9197 51.635 43.8309 51.7649 43.7778 51.9319C43.6983 52.1865 43.6585 52.4649 43.6585 52.7672V54.9785H42.9426ZM45.6631 54.9785V50.7547H46.3034V51.3473C46.436 51.1404 46.6123 50.9747 46.8324 50.8501C47.0525 50.7228 47.303 50.6592 47.5841 50.6592C47.897 50.6592 48.1528 50.7242 48.3517 50.8541C48.5532 50.984 48.6951 51.1656 48.7773 51.399C49.1114 50.9058 49.5462 50.6592 50.0818 50.6592C50.5008 50.6592 50.8229 50.7759 51.0483 51.0092C51.2737 51.2399 51.3864 51.5965 51.3864 52.0791V54.9785H50.6744V52.3177C50.6744 52.0314 50.6506 51.8259 50.6028 51.7012C50.5578 51.574 50.4742 51.4719 50.3523 51.395C50.2303 51.3181 50.0871 51.2797 49.9227 51.2797C49.6258 51.2797 49.3792 51.3791 49.183 51.5779C48.9867 51.7742 48.8886 52.0897 48.8886 52.5245V54.9785H48.1727V52.2342C48.1727 51.916 48.1144 51.6774 47.9977 51.5183C47.8811 51.3592 47.6902 51.2797 47.425 51.2797C47.2235 51.2797 47.0366 51.3327 46.8642 51.4387C46.6945 51.5448 46.5712 51.6999 46.4943 51.9041C46.4174 52.1083 46.379 52.4026 46.379 52.787V54.9785H45.6631ZM52.1619 53.7177L52.8699 53.6064C52.9097 53.8901 53.0197 54.1075 53.2 54.2586C53.383 54.4098 53.6375 54.4853 53.9636 54.4853C54.2924 54.4853 54.5364 54.419 54.6955 54.2865C54.8545 54.1512 54.9341 53.9935 54.9341 53.8132C54.9341 53.6514 54.8638 53.5242 54.7233 53.4314C54.6252 53.3677 54.3812 53.2868 53.9915 53.1887C53.4665 53.0562 53.1019 52.9422 52.8977 52.8467C52.6962 52.7486 52.5424 52.6147 52.4364 52.445C52.333 52.2726 52.2812 52.0831 52.2812 51.8762C52.2812 51.688 52.3237 51.5143 52.4085 51.3552C52.496 51.1935 52.614 51.0596 52.7625 50.9535C52.8739 50.8713 53.025 50.8024 53.2159 50.7467C53.4095 50.6884 53.6163 50.6592 53.8364 50.6592C54.1678 50.6592 54.4581 50.7069 54.7074 50.8024C54.9593 50.8978 55.1449 51.0278 55.2642 51.1922C55.3835 51.3539 55.4657 51.5713 55.5108 51.8444L54.8108 51.9399C54.779 51.7225 54.6862 51.5528 54.5324 51.4308C54.3812 51.3088 54.1665 51.2478 53.8881 51.2478C53.5593 51.2478 53.3246 51.3022 53.1841 51.4109C53.0436 51.5196 52.9733 51.6469 52.9733 51.7927C52.9733 51.8855 53.0025 51.969 53.0608 52.0433C53.1191 52.1202 53.2106 52.1838 53.3352 52.2342C53.4068 52.2607 53.6176 52.3217 53.9676 52.4172C54.4741 52.5524 54.8267 52.6637 55.0256 52.7512C55.2271 52.8361 55.3848 52.9607 55.4989 53.1251C55.6129 53.2895 55.6699 53.4937 55.6699 53.7376C55.6699 53.9762 55.5996 54.2016 55.4591 54.4137C55.3212 54.6232 55.121 54.7863 54.8585 54.9029C54.596 55.017 54.2991 55.074 53.9676 55.074C53.4187 55.074 52.9998 54.96 52.7108 54.7319C52.4244 54.5039 52.2415 54.1658 52.1619 53.7177Z" fill="#A5A5A5"/>
<g clip-path="url(#clip0)">
<g filter="url(#filter0_d)">
<path fill-rule="evenodd" clip-rule="evenodd" d="M24.4304 7.90228C25.455 7.43594 26.6625 7.14162 28.0056 7.27437C31.8585 7.65518 33.7711 10.1871 34.1135 10.6871L30.2838 14.6108L42.15 14.7091L41.9951 2.61201L39.2286 5.44639C38.8445 4.92389 35.0329 0 27.7956 0C24.6128 0 22.0579 0.94197 20.16 2.04133L24.4304 7.90228Z" fill="#2B4CB9"/>
</g>
<g filter="url(#filter1_d)">
<path fill-rule="evenodd" clip-rule="evenodd" d="M14.9747 0.19593L17.853 3.00523C17.4667 3.28473 12.385 7.10167 12.385 14.454C12.385 15.4585 12.4789 16.4005 12.6419 17.279L19.9886 17.0619C19.7056 16.2157 19.5581 15.2694 19.6594 14.244C20.0463 10.3301 22.6528 8.41847 23.0943 8.121L26.9735 11.9072L27.0718 0.0410156L14.9747 0.19593Z" fill="#5A96F6"/>
</g>
<g filter="url(#filter2_d)">
<path fill-rule="evenodd" clip-rule="evenodd" d="M15.3432 24.4356L12.5767 27.27L12.4218 15.1729L24.288 15.2712L20.4583 19.1949C20.8008 19.6949 22.7133 22.2268 26.5662 22.6076C30.8447 23.0305 33.7464 19.1198 33.7464 19.1198L38.4407 24.4507C38.4407 24.4507 34.4189 29.882 26.7762 29.882C19.539 29.882 15.7273 24.9581 15.3432 24.4356Z" fill="#BEBEBE"/>
</g>
</g>
<defs>
<filter id="filter0_d" x="19.16" y="-1" width="23.99" height="16.7091" filterUnits="userSpaceOnUse" color-interpolation-filters="sRGB">
<feFlood flood-opacity="0" result="BackgroundImageFix"/>
<feColorMatrix in="SourceAlpha" type="matrix" values="0 0 0 0 0 0 0 0 0 0 0 0 0 0 0 0 0 0 127 0"/>
<feOffset/>
<feGaussianBlur stdDeviation="0.5"/>
<feColorMatrix type="matrix" values="0 0 0 0 0 0 0 0 0 0 0 0 0 0 0 0 0 0 0.5 0"/>
<feBlend mode="normal" in2="BackgroundImageFix" result="effect1_dropShadow"/>
<feBlend mode="normal" in="SourceGraphic" in2="effect1_dropShadow" result="shape"/>
</filter>
<filter id="filter1_d" x="11.385" y="-0.958984" width="16.6868" height="19.238" filterUnits="userSpaceOnUse" color-interpolation-filters="sRGB">
<feFlood flood-opacity="0" result="BackgroundImageFix"/>
<feColorMatrix in="SourceAlpha" type="matrix" values="0 0 0 0 0 0 0 0 0 0 0 0 0 0 0 0 0 0 127 0"/>
<feOffset/>
<feGaussianBlur stdDeviation="0.5"/>
<feColorMatrix type="matrix" values="0 0 0 0 0 0 0 0 0 0 0 0 0 0 0 0 0 0 0.5 0"/>
<feBlend mode="normal" in2="BackgroundImageFix" result="effect1_dropShadow"/>
<feBlend mode="normal" in="SourceGraphic" in2="effect1_dropShadow" result="shape"/>
</filter>
<filter id="filter2_d" x="11.4218" y="14.1729" width="28.0189" height="16.7091" filterUnits="userSpaceOnUse" color-interpolation-filters="sRGB">
<feFlood flood-opacity="0" result="BackgroundImageFix"/>
<feColorMatrix in="SourceAlpha" type="matrix" values="0 0 0 0 0 0 0 0 0 0 0 0 0 0 0 0 0 0 127 0"/>
<feOffset/>
<feGaussianBlur stdDeviation="0.5"/>
<feColorMatrix type="matrix" values="0 0 0 0 0 0 0 0 0 0 0 0 0 0 0 0 0 0 0.382529 0"/>
<feBlend mode="normal" in2="BackgroundImageFix" result="effect1_dropShadow"/>
<feBlend mode="normal" in="SourceGraphic" in2="effect1_dropShadow" result="shape"/>
</filter>
<clipPath id="clip0">
<rect width="31" height="30" fill="white" transform="translate(11.4218)"/>
</clipPath>
</defs>
</svg>
