<svg width="32" height="32" viewBox="0 0 32 32" fill="none" xmlns="http://www.w3.org/2000/svg">
<path d="M12.888 2.66663L12.2344 6.03121C11.1355 6.44563 10.1264 7.02653 9.24217 7.75256L6.0104 6.63798L2.89581 12.0286L5.48435 14.2786C5.38484 14.8896 5.33331 15.4558 5.33331 16C5.33331 16.545 5.38639 17.1101 5.48435 17.7213V17.7239L2.89581 19.9739L6.0104 25.3619L9.23956 24.25C10.1238 24.9764 11.1352 25.5541 12.2344 25.9687L12.888 29.3333H19.112L19.7656 25.9687C20.8652 25.554 21.8732 24.9741 22.7578 24.2474L25.9896 25.3619L29.1015 19.9739L26.5156 17.7213C26.6151 17.1103 26.6666 16.5442 26.6666 16C26.6666 15.4566 26.6148 14.8911 26.5156 14.2812V14.2786L29.1041 12.026L25.9896 6.63798L22.7604 7.74996C21.8761 7.02353 20.8647 6.44587 19.7656 6.03121L19.112 2.66663H12.888ZM15.0859 5.33329H16.914L17.4323 7.99996L18.8229 8.526C19.6611 8.84192 20.4142 9.27563 21.0677 9.81246L22.2187 10.7552L24.7812 9.87496L25.6953 11.4557L23.6484 13.2369L23.8828 14.7031V14.7057C23.9643 15.2056 24 15.625 24 16C24 16.3749 23.9643 16.7943 23.8828 17.2942L23.6458 18.7604L25.6927 20.5416L24.7786 22.125L22.2187 21.2421L21.0651 22.1875C20.4116 22.7243 19.6611 23.158 18.8229 23.4739H18.8203L17.4297 24L16.9114 26.6666H15.0859L14.5677 24L13.1771 23.4739C12.3388 23.158 11.5857 22.7243 10.9323 22.1875L9.78123 21.2448L7.21873 22.125L6.30467 20.5442L8.35415 18.7604L8.11717 17.2994V17.2968C8.0368 16.7947 7.99998 16.3742 7.99998 16C7.99998 15.625 8.03564 15.2057 8.11717 14.7057L8.35415 13.2395L6.30467 11.4583L7.21873 9.87496L9.78123 10.7578L10.9323 9.81246C11.5857 9.27563 12.3388 8.84192 13.1771 8.526L14.5677 7.99996L15.0859 5.33329ZM16 10.6666C13.0713 10.6666 10.6666 13.0713 10.6666 16C10.6666 18.9287 13.0713 21.3333 16 21.3333C18.9287 21.3333 21.3333 18.9287 21.3333 16C21.3333 13.0713 18.9287 10.6666 16 10.6666ZM16 13.3333C17.4819 13.3333 18.6666 14.518 18.6666 16C18.6666 17.4819 17.4819 18.6666 16 18.6666C14.518 18.6666 13.3333 17.4819 13.3333 16C13.3333 14.518 14.518 13.3333 16 13.3333Z" fill="white"/>
</svg>
