<svg width="32" height="32" viewBox="0 0 32 32" fill="none" xmlns="http://www.w3.org/2000/svg">
<path d="M21.3151 4L18.6459 6.66927C17.6696 6.67697 16.8281 7.2116 16.3698 8H10.4349C9.903 6.42539 8.45926 5.33333 6.66669 5.33333C4.40002 5.33333 2.66669 7.06667 2.66669 9.33333C2.66669 11.2972 3.96982 12.8569 5.79169 13.2396L8.75002 20H6.66669C5.20002 20 4.00002 21.2 4.00002 22.6667V28H26.6667V22.6667C26.6667 21.2 25.4667 20 24 20H12.75L9.38023 12.2943C9.85896 11.8573 10.2199 11.3031 10.4349 10.6667H16.3698C16.8281 11.4551 17.6696 11.9897 18.6459 11.9974L21.3151 14.6667H28V12H22.4193L19.7526 9.33333L22.4193 6.66667H28V4H21.3151ZM6.66669 8C7.46402 8 8.00002 8.536 8.00002 9.33333C8.00002 10.1307 7.46402 10.6667 6.66669 10.6667C5.86935 10.6667 5.33335 10.1307 5.33335 9.33333C5.33335 8.536 5.86935 8 6.66669 8ZM6.66669 22.6667H24V25.3333H6.66669V22.6667Z" fill="white"/>
</svg>
