<svg width="32" height="32" viewBox="0 0 32 32" fill="none" xmlns="http://www.w3.org/2000/svg">
<path d="M18.6667 2.66663V5.33329C23.0787 5.33329 26.6667 8.92129 26.6667 13.3333H29.3333C29.3333 7.45196 24.548 2.66663 18.6667 2.66663ZM8.89062 5.15621L7.71615 6.33069C5.31881 8.72669 4 11.9166 4 15.3073C4 18.6979 5.32008 21.8865 7.71875 24.2838C10.1148 26.6811 13.302 28 16.6927 28C20.0834 28 23.2719 26.6799 25.6693 24.2812L26.8724 23.0781L25.4141 22.1979C22.9713 20.7225 20.6704 18.9835 18.5078 17.013C18.7476 16.927 18.9863 16.7845 19.2187 16.552C20.2601 15.5107 20.2601 13.8225 19.2187 12.7812C18.1774 11.7399 16.4893 11.7399 15.4479 12.7812C15.2213 13.0078 15.0819 13.2403 14.9948 13.4739C13.1235 11.3744 11.3839 9.06675 9.78385 6.55725L8.89062 5.15621ZM18.6667 7.99996V10.6666C20.1373 10.6666 21.3333 11.8626 21.3333 13.3333H24C24 10.392 21.608 7.99996 18.6667 7.99996ZM8.52344 9.49215C12.4528 15.2708 17.1378 19.9707 22.4818 23.4974C20.8004 24.6907 18.7954 25.3333 16.6927 25.3333C14.014 25.3333 11.4962 24.2917 9.60156 22.3984C6.09356 18.8891 5.7341 13.4055 8.52344 9.49215Z" fill="white"/>
</svg>
