<svg width="40" height="40" viewBox="0 0 40 40" fill="none" xmlns="http://www.w3.org/2000/svg">
<path d="M18.3333 3.3335V11.6668H8.33333C6.51156 11.6668 5 13.1784 5 15.0002V26.6668C5 29.4084 7.25838 31.6668 10 31.6668H30C32.7416 31.6668 35 29.4084 35 26.6668V15.0002C35 13.1784 33.4884 11.6668 31.6667 11.6668H21.6667V3.3335H18.3333ZM0 15.0002V28.3335H3.33333V15.0002H0ZM8.33333 15.0002H31.6667V26.6668C31.6667 27.6085 30.9417 28.3335 30 28.3335H10C9.05828 28.3335 8.33333 27.6085 8.33333 26.6668V15.0002ZM36.6667 15.0002V28.3335H40V15.0002H36.6667ZM16.6667 16.6668V20.0002H23.3333V16.6668H16.6667Z" fill="white"/>
</svg>
