<svg width="40" height="40" viewBox="0 0 40 40" fill="none" xmlns="http://www.w3.org/2000/svg">
<path d="M16.11 3.3335L15.2929 7.53923C13.9193 8.05725 12.6579 8.78338 11.5527 9.69092L7.51298 8.29769L3.61975 15.036L6.85543 17.8485C6.73104 18.6122 6.66663 19.3199 6.66663 20.0002C6.66663 20.6814 6.73297 21.3879 6.85543 22.1519V22.1551L3.61975 24.9676L7.51298 31.7026L11.5494 30.3127C12.6548 31.2207 13.919 31.9428 15.2929 32.4611L16.11 36.6668H23.8899L24.707 32.4611C26.0815 31.9427 27.3415 31.2178 28.4472 30.3094L32.4869 31.7026L36.3769 24.9676L33.1445 22.1519C33.2689 21.3881 33.3333 20.6804 33.3333 20.0002C33.3333 19.3209 33.2685 18.6141 33.1445 17.8517V17.8485L36.3802 15.0327L32.4869 8.29769L28.4505 9.68766C27.3451 8.77963 26.0809 8.05755 24.707 7.53923L23.8899 3.3335H16.11ZM18.8574 6.66683H21.1425L21.7903 10.0002L23.5286 10.6577C24.5764 11.0526 25.5177 11.5948 26.3346 12.2658L27.7734 13.4442L30.9765 12.3439L32.1191 14.3198L29.5605 16.5464L29.8535 18.3791V18.3823C29.9554 19.0072 30 19.5314 30 20.0002C30 20.4689 29.9554 20.993 29.8535 21.618L29.5572 23.4507L32.1158 25.6772L30.9733 27.6564L27.7734 26.5529L26.3313 27.7345C25.5145 28.4056 24.5764 28.9477 23.5286 29.3426H23.5253L21.7871 30.0002L21.1393 33.3335H18.8574L18.2096 30.0002L16.4713 29.3426C15.4235 28.9477 14.4822 28.4056 13.6653 27.7345L12.2265 26.5562L9.0234 27.6564L7.88082 25.6805L10.4427 23.4507L10.1464 21.6245V21.6213C10.046 20.9936 9.99996 20.468 9.99996 20.0002C9.99996 19.5314 10.0445 19.0073 10.1464 18.3823L10.4427 16.5496L7.88082 14.3231L9.0234 12.3439L12.2265 13.4474L13.6653 12.2658C14.4822 11.5948 15.4235 11.0526 16.4713 10.6577L18.2096 10.0002L18.8574 6.66683ZM20 13.3335C16.3391 13.3335 13.3333 16.3393 13.3333 20.0002C13.3333 23.661 16.3391 26.6668 20 26.6668C23.6608 26.6668 26.6666 23.661 26.6666 20.0002C26.6666 16.3393 23.6608 13.3335 20 13.3335ZM20 16.6668C21.8524 16.6668 23.3333 18.1477 23.3333 20.0002C23.3333 21.8526 21.8524 23.3335 20 23.3335C18.1475 23.3335 16.6666 21.8526 16.6666 20.0002C16.6666 18.1477 18.1475 16.6668 20 16.6668Z" fill="white"/>
</svg>
