<svg width="40" height="40" viewBox="0 0 40 40" fill="none" xmlns="http://www.w3.org/2000/svg">
<path d="M20 3.3335C10.9144 3.3335 3.33337 9.95688 3.33337 18.3335C3.33337 26.7101 10.9144 33.3335 20 33.3335C20.577 33.3335 21.1086 33.2177 21.6667 33.1642V38.4897L24.2351 36.8426C27.8387 34.5297 35.6418 28.5259 36.5723 19.909C36.6313 19.3964 36.6667 18.8714 36.6667 18.3335C36.6667 9.95688 29.0857 3.3335 20 3.3335ZM20 6.66683C27.4844 6.66683 33.3334 11.9834 33.3334 18.3335C33.3334 18.7345 33.3085 19.1345 33.2618 19.5379V19.5444L33.2585 19.5509C32.6825 24.8852 28.4125 29.0749 25 31.8068V29.2873L23.0046 29.6909C22.0285 29.888 21.0256 30.0002 20 30.0002C12.5157 30.0002 6.66671 24.6835 6.66671 18.3335C6.66671 11.9834 12.5157 6.66683 20 6.66683ZM11.6667 16.6668V20.0002H15V16.6668H11.6667ZM18.3334 16.6668V20.0002H21.6667V16.6668H18.3334ZM25 16.6668V20.0002H28.3334V16.6668H25Z" fill="white"/>
</svg>
