<svg width="40" height="40" viewBox="0 0 40 40" fill="none" xmlns="http://www.w3.org/2000/svg">
<path d="M20 6.6665C19.4153 6.66697 18.8411 6.82121 18.3348 7.11374C17.8286 7.40628 17.4082 7.82683 17.1159 8.33317H8.33333H3.33333V11.6665H6.66667L0 24.9998C0 29.6015 3.73167 33.3332 8.33333 33.3332C12.935 33.3332 16.6667 29.6015 16.6667 24.9998L10 11.6665H17.1191C17.4112 12.1724 17.8311 12.5926 18.3367 12.8851C18.8423 13.1776 19.4159 13.3321 20 13.3332C20.5847 13.3327 21.1589 13.1785 21.6652 12.8859C22.1714 12.5934 22.5918 12.1728 22.8841 11.6665H30L23.3333 24.9998C23.3333 29.6015 27.065 33.3332 31.6667 33.3332C36.2683 33.3332 40 29.6015 40 24.9998L33.3333 11.6665H36.6667V8.33317H22.8809C22.5888 7.8273 22.1689 7.40707 21.6633 7.11456C21.1577 6.82205 20.5841 6.66754 20 6.6665ZM8.33333 15.0356L13.3138 24.9998H3.35286L8.33333 15.0356ZM31.6667 15.0356L36.6471 24.9998H26.6862L31.6667 15.0356Z" fill="white"/>
</svg>
