<svg width="40" height="40" viewBox="0 0 40 40" fill="none" xmlns="http://www.w3.org/2000/svg">
<path d="M8.33333 5C6.51156 5 5 6.51156 5 8.33333V31.6667C5 33.4884 6.51156 35 8.33333 35H31.6667C33.4884 35 35 33.4884 35 31.6667V8.33333C35 6.51156 33.4884 5 31.6667 5H8.33333ZM8.33333 8.33333H31.6667V11.6667H8.33333V8.33333ZM8.33333 15H31.6667V31.6667H8.33333V15ZM10.5892 18.3333C10.5892 18.3333 10 20 10 23.3333C10 26.6667 10.5892 28.3333 10.5892 28.3333H13.3333C13.3333 28.3333 12.7441 26.6667 12.7441 23.3333C12.7441 20 13.3333 18.3333 13.3333 18.3333H10.5892ZM15.8333 18.3333L18.584 23.3333L15.8333 28.3333H18.6654L20 25.9082L21.3346 28.3333H24.1667L21.416 23.3333L24.1667 18.3333H21.3346L20 20.7585L18.6654 18.3333H15.8333ZM26.6667 18.3333C26.6667 18.3333 27.2559 20 27.2559 23.3333C27.2559 26.6667 26.6667 28.3333 26.6667 28.3333H29.4108C29.4108 28.3333 30 26.6667 30 23.3333C30 20 29.4108 18.3333 29.4108 18.3333H26.6667Z" fill="white"/>
</svg>
