<svg width="40" height="40" viewBox="0 0 40 40" fill="none" xmlns="http://www.w3.org/2000/svg">
<path d="M6.66671 3.3335C5.78265 3.3335 4.93481 3.68469 4.30968 4.30981C3.68456 4.93493 3.33337 5.78277 3.33337 6.66683C3.33337 7.55088 3.68456 8.39873 4.30968 9.02385C4.93481 9.64897 5.78265 10.0002 6.66671 10.0002C7.25138 9.9997 7.82565 9.84546 8.33188 9.55292C8.83811 9.26038 9.25848 8.83984 9.55082 8.3335H33.3334V18.3335H26.6667V14.2254C26.6667 13.6054 26.3248 13.0375 25.7748 12.7508C25.2264 12.4641 24.5611 12.5032 24.0528 12.8582L15.7194 18.6297C15.2694 18.9414 15 19.4535 15 20.0002C15 20.5468 15.2694 21.0589 15.7194 21.3706L24.0528 27.1421C24.3361 27.3388 24.6667 27.4416 25 27.4416C25.265 27.4416 25.5314 27.3762 25.7748 27.2495C26.3248 26.9612 26.6667 26.3949 26.6667 25.7749V21.6668H36.6667V5.00016H9.54757C9.25551 4.4943 8.83564 4.07406 8.33003 3.78155C7.82443 3.48904 7.25083 3.33453 6.66671 3.3335ZM23.3334 17.409V22.5913L19.5931 20.0002L23.3334 17.409ZM3.33337 18.3335V21.6668H6.66671V18.3335H3.33337ZM10 18.3335V21.6668H13.3334V18.3335H10ZM3.33337 25.0002V28.3335H6.66671V25.0002H3.33337ZM33.3334 30.0002C32.4493 30.0002 31.6015 30.3514 30.9764 30.9765C30.3512 31.6016 30 32.4494 30 33.3335C30 34.2176 30.3512 35.0654 30.9764 35.6905C31.6015 36.3156 32.4493 36.6668 33.3334 36.6668C34.2174 36.6668 35.0653 36.3156 35.6904 35.6905C36.3155 35.0654 36.6667 34.2176 36.6667 33.3335C36.6667 32.4494 36.3155 31.6016 35.6904 30.9765C35.0653 30.3514 34.2174 30.0002 33.3334 30.0002ZM3.33337 31.6668V35.0002H6.66671V31.6668H3.33337ZM10 31.6668V35.0002H13.3334V31.6668H10ZM16.6667 31.6668V35.0002H20V31.6668H16.6667ZM23.3334 31.6668V35.0002H26.6667V31.6668H23.3334Z" fill="white"/>
</svg>
