<svg width="40" height="40" viewBox="0 0 40 40" fill="none" xmlns="http://www.w3.org/2000/svg">
<path d="M10 5C7.25832 5 5 7.25832 5 10C5 12.1553 6.40445 13.9919 8.33333 14.6875V21.6667H11.6667V14.6875C13.5955 13.9919 15 12.1553 15 10C15 7.25832 12.7417 5 10 5ZM30 5C28.9672 5.00145 27.9602 5.32267 27.1174 5.91954C26.2746 6.51641 25.6372 7.35962 25.293 8.33333H18.3333V11.6667H25.2897C25.6342 12.6409 26.272 13.4845 27.1155 14.0814C27.959 14.6783 28.9667 14.9992 30 15C31.3261 15 32.5979 14.4732 33.5355 13.5355C34.4732 12.5979 35 11.3261 35 10C35 8.67392 34.4732 7.40215 33.5355 6.46447C32.5979 5.52678 31.3261 5 30 5ZM10 8.33333C10.9402 8.33333 11.6667 9.05978 11.6667 10C11.6667 10.9402 10.9402 11.6667 10 11.6667C9.05978 11.6667 8.33333 10.9402 8.33333 10C8.33333 9.05978 9.05978 8.33333 10 8.33333ZM28.3333 18.3333V25L24.5117 28.8216C23.8617 29.4716 23.8617 30.5284 24.5117 31.1784L28.8216 35.4883C29.4716 36.1399 30.5267 36.1399 31.1784 35.4883L35.4883 31.1784C36.1399 30.5284 36.1399 29.4733 35.4883 28.8216L31.6667 25V18.3333H28.3333ZM6.66667 25C5.74667 25 5 25.7467 5 26.6667V33.3333C5 34.2533 5.74667 35 6.66667 35H13.3333C14.2533 35 15 34.2533 15 33.3333V26.6667C15 25.7467 14.2533 25 13.3333 25H6.66667Z" fill="white"/>
</svg>
