<svg width="40" height="40" viewBox="0 0 40 40" fill="none" xmlns="http://www.w3.org/2000/svg">
<path d="M31.6667 0C27.065 0 23.3333 3.73167 23.3333 8.33333C23.3333 12.935 27.065 16.6667 31.6667 16.6667C36.2683 16.6667 40 12.935 40 8.33333C40 3.73167 36.2683 0 31.6667 0ZM35.0846 4.41732L37.4154 6.7513L30.8333 13.3333L25.918 8.41797L28.2487 6.08398L30.8333 8.66536L35.0846 4.41732ZM6.66667 6.66667C4.825 6.66667 3.33333 8.15833 3.33333 10V26.6667C3.33333 28.5083 4.825 30 6.66667 30H0V33.3333H40V30H33.3333C35.175 30 36.6667 28.5083 36.6667 26.6667V18.8607C35.63 19.354 34.5133 19.6982 33.3366 19.8665V26.6667H6.66667V10H20.1335C20.0551 9.455 20 8.9 20 8.33333C20 7.76667 20.0551 7.21167 20.1335 6.66667H6.66667Z" fill="white"/>
</svg>
