<svg width="40" height="40" viewBox="0 0 40 40" fill="none" xmlns="http://www.w3.org/2000/svg">
<path d="M8.33333 5C6.49167 5 5 6.49167 5 8.33333V31.6667C5 33.5083 6.49167 35 8.33333 35H21.2988C20.4455 34.0517 20.0033 32.865 20.0033 31.6667H8.33333V15H31.6667V20C32.9133 20 34.08 20.4705 35 21.2988V18.3333V8.33333C35 6.49167 33.5083 5 31.6667 5H8.33333ZM8.33333 8.33333H31.6667V11.6667H8.33333V8.33333ZM11.6667 18.3333V21.6667H15V18.3333H11.6667ZM18.3333 18.3333V21.6667H27.9329L28.3333 21.2988V18.3333H18.3333ZM31.6406 23.3333C31.2077 23.3402 30.7944 23.5154 30.4883 23.8216L29.3099 25H26.6667C26.2247 25 25.8008 25.1757 25.4882 25.4882C25.1757 25.8008 25 26.2247 25 26.6667V29.3099L23.8216 30.4883C23.5092 30.8009 23.3337 31.2247 23.3337 31.6667C23.3337 32.1086 23.5092 32.5325 23.8216 32.8451L25 34.0234V36.6667C25 37.1087 25.1757 37.5326 25.4882 37.8451C25.8008 38.1577 26.2247 38.3333 26.6667 38.3333H29.3099L30.4883 39.5117C30.8009 39.8242 31.2247 39.9997 31.6667 39.9997C32.1086 39.9997 32.5325 39.8242 32.8451 39.5117L34.0234 38.3333H36.6667C37.1087 38.3333 37.5326 38.1577 37.8451 37.8451C38.1577 37.5326 38.3333 37.1087 38.3333 36.6667V34.0234L39.5117 32.8451C39.8242 32.5325 39.9997 32.1086 39.9997 31.6667C39.9997 31.2247 39.8242 30.8009 39.5117 30.4883L38.3333 29.3099V26.6667C38.3333 26.2247 38.1577 25.8008 37.8451 25.4882C37.5326 25.1757 37.1087 25 36.6667 25H34.0234L32.8451 23.8216C32.6872 23.6637 32.4993 23.5391 32.2924 23.4553C32.0855 23.3714 31.8639 23.3299 31.6406 23.3333ZM11.6667 25V28.3333H15V25H11.6667ZM18.3333 25V28.3333H21.2988C21.3488 28.2667 21.4014 28.2014 21.4681 28.1348L21.6667 27.9329V26.6667C21.6667 26.0833 21.7661 25.5167 21.9661 25H18.3333ZM31.6667 27.3568L32.1549 27.8451C32.4675 28.1576 32.8913 28.3333 33.3333 28.3333H35V30C35.0001 30.442 35.1757 30.8659 35.4883 31.1784L35.9766 31.6667L35.4883 32.1549C35.1757 32.4675 35.0001 32.8913 35 33.3333V35H33.3333C32.8913 35.0001 32.4675 35.1757 32.1549 35.4883L31.6667 35.9766L31.1784 35.4883C30.8659 35.1757 30.442 35.0001 30 35H28.3333V33.3333C28.3333 32.8913 28.1576 32.4675 27.8451 32.1549L27.3568 31.6667L27.8451 31.1784C28.1576 30.8659 28.3333 30.442 28.3333 30V28.3333H30C30.442 28.3333 30.8659 28.1576 31.1784 27.8451L31.6667 27.3568Z" fill="white"/>
</svg>
